G04 #@! TF.GenerationSoftware,KiCad,Pcbnew,5.0.2+dfsg1-1~bpo9+1*
G04 #@! TF.CreationDate,2019-06-18T09:32:28+01:00*
G04 #@! TF.ProjectId,LedMatrix,4c65644d-6174-4726-9978-2e6b69636164,1.0*
G04 #@! TF.SameCoordinates,Original*
G04 #@! TF.FileFunction,Soldermask,Top*
G04 #@! TF.FilePolarity,Negative*
%FSLAX46Y46*%
G04 Gerber Fmt 4.6, Leading zero omitted, Abs format (unit mm)*
G04 Created by KiCad (PCBNEW 5.0.2+dfsg1-1~bpo9+1) date Tue 18 Jun 2019 09:32:28 IST*
%MOMM*%
%LPD*%
G01*
G04 APERTURE LIST*
%ADD10C,0.100000*%
G04 APERTURE END LIST*
D10*
G36*
X127536693Y-82391859D02*
X127802437Y-82444719D01*
X128303087Y-82652095D01*
X128750622Y-82951129D01*
X128753663Y-82953161D01*
X129136839Y-83336337D01*
X129136841Y-83336340D01*
X129437905Y-83786913D01*
X129645281Y-84287563D01*
X129751000Y-84819050D01*
X129751000Y-85360950D01*
X129645281Y-85892437D01*
X129437905Y-86393087D01*
X129138871Y-86840622D01*
X129136839Y-86843663D01*
X128753663Y-87226839D01*
X128753660Y-87226841D01*
X128303087Y-87527905D01*
X127802437Y-87735281D01*
X127536694Y-87788140D01*
X127270951Y-87841000D01*
X126729049Y-87841000D01*
X126463306Y-87788140D01*
X126197563Y-87735281D01*
X125696913Y-87527905D01*
X125246340Y-87226841D01*
X125246337Y-87226839D01*
X124863161Y-86843663D01*
X124861129Y-86840622D01*
X124562095Y-86393087D01*
X124354719Y-85892437D01*
X124249000Y-85360950D01*
X124249000Y-84819050D01*
X124354719Y-84287563D01*
X124562095Y-83786913D01*
X124863159Y-83336340D01*
X124863161Y-83336337D01*
X125246337Y-82953161D01*
X125249378Y-82951129D01*
X125696913Y-82652095D01*
X126197563Y-82444719D01*
X126463306Y-82391860D01*
X126729049Y-82339000D01*
X127270951Y-82339000D01*
X127536693Y-82391859D01*
X127536693Y-82391859D01*
G37*
G36*
X58956693Y-82391859D02*
X59222437Y-82444719D01*
X59723087Y-82652095D01*
X60170622Y-82951129D01*
X60173663Y-82953161D01*
X60556839Y-83336337D01*
X60556841Y-83336340D01*
X60857905Y-83786913D01*
X61065281Y-84287563D01*
X61171000Y-84819050D01*
X61171000Y-85360950D01*
X61065281Y-85892437D01*
X60857905Y-86393087D01*
X60558871Y-86840622D01*
X60556839Y-86843663D01*
X60173663Y-87226839D01*
X60173660Y-87226841D01*
X59723087Y-87527905D01*
X59222437Y-87735281D01*
X58956694Y-87788140D01*
X58690951Y-87841000D01*
X58149049Y-87841000D01*
X57883306Y-87788140D01*
X57617563Y-87735281D01*
X57116913Y-87527905D01*
X56666340Y-87226841D01*
X56666337Y-87226839D01*
X56283161Y-86843663D01*
X56281129Y-86840622D01*
X55982095Y-86393087D01*
X55774719Y-85892437D01*
X55669000Y-85360950D01*
X55669000Y-84819050D01*
X55774719Y-84287563D01*
X55982095Y-83786913D01*
X56283159Y-83336340D01*
X56283161Y-83336337D01*
X56666337Y-82953161D01*
X56669378Y-82951129D01*
X57116913Y-82652095D01*
X57617563Y-82444719D01*
X57883307Y-82391859D01*
X58149049Y-82339000D01*
X58690951Y-82339000D01*
X58956693Y-82391859D01*
X58956693Y-82391859D01*
G37*
G36*
X121601000Y-80961000D02*
X119699000Y-80961000D01*
X119699000Y-79059000D01*
X121601000Y-79059000D01*
X121601000Y-80961000D01*
X121601000Y-80961000D01*
G37*
G36*
X77151000Y-80961000D02*
X75249000Y-80961000D01*
X75249000Y-79059000D01*
X77151000Y-79059000D01*
X77151000Y-80961000D01*
X77151000Y-80961000D01*
G37*
G36*
X115251000Y-80961000D02*
X113349000Y-80961000D01*
X113349000Y-79059000D01*
X115251000Y-79059000D01*
X115251000Y-80961000D01*
X115251000Y-80961000D01*
G37*
G36*
X117117396Y-79095546D02*
X117290466Y-79167234D01*
X117446230Y-79271312D01*
X117578688Y-79403770D01*
X117682766Y-79559534D01*
X117754454Y-79732604D01*
X117791000Y-79916333D01*
X117791000Y-80103667D01*
X117754454Y-80287396D01*
X117682766Y-80460466D01*
X117578688Y-80616230D01*
X117446230Y-80748688D01*
X117290466Y-80852766D01*
X117117396Y-80924454D01*
X116933667Y-80961000D01*
X116746333Y-80961000D01*
X116562604Y-80924454D01*
X116389534Y-80852766D01*
X116233770Y-80748688D01*
X116101312Y-80616230D01*
X115997234Y-80460466D01*
X115925546Y-80287396D01*
X115889000Y-80103667D01*
X115889000Y-79916333D01*
X115925546Y-79732604D01*
X115997234Y-79559534D01*
X116101312Y-79403770D01*
X116233770Y-79271312D01*
X116389534Y-79167234D01*
X116562604Y-79095546D01*
X116746333Y-79059000D01*
X116933667Y-79059000D01*
X117117396Y-79095546D01*
X117117396Y-79095546D01*
G37*
G36*
X123467396Y-79095546D02*
X123640466Y-79167234D01*
X123796230Y-79271312D01*
X123928688Y-79403770D01*
X124032766Y-79559534D01*
X124104454Y-79732604D01*
X124141000Y-79916333D01*
X124141000Y-80103667D01*
X124104454Y-80287396D01*
X124032766Y-80460466D01*
X123928688Y-80616230D01*
X123796230Y-80748688D01*
X123640466Y-80852766D01*
X123467396Y-80924454D01*
X123283667Y-80961000D01*
X123096333Y-80961000D01*
X122912604Y-80924454D01*
X122739534Y-80852766D01*
X122583770Y-80748688D01*
X122451312Y-80616230D01*
X122347234Y-80460466D01*
X122275546Y-80287396D01*
X122239000Y-80103667D01*
X122239000Y-79916333D01*
X122275546Y-79732604D01*
X122347234Y-79559534D01*
X122451312Y-79403770D01*
X122583770Y-79271312D01*
X122739534Y-79167234D01*
X122912604Y-79095546D01*
X123096333Y-79059000D01*
X123283667Y-79059000D01*
X123467396Y-79095546D01*
X123467396Y-79095546D01*
G37*
G36*
X102551000Y-80961000D02*
X100649000Y-80961000D01*
X100649000Y-79059000D01*
X102551000Y-79059000D01*
X102551000Y-80961000D01*
X102551000Y-80961000D01*
G37*
G36*
X79017396Y-79095546D02*
X79190466Y-79167234D01*
X79346230Y-79271312D01*
X79478688Y-79403770D01*
X79582766Y-79559534D01*
X79654454Y-79732604D01*
X79691000Y-79916333D01*
X79691000Y-80103667D01*
X79654454Y-80287396D01*
X79582766Y-80460466D01*
X79478688Y-80616230D01*
X79346230Y-80748688D01*
X79190466Y-80852766D01*
X79017396Y-80924454D01*
X78833667Y-80961000D01*
X78646333Y-80961000D01*
X78462604Y-80924454D01*
X78289534Y-80852766D01*
X78133770Y-80748688D01*
X78001312Y-80616230D01*
X77897234Y-80460466D01*
X77825546Y-80287396D01*
X77789000Y-80103667D01*
X77789000Y-79916333D01*
X77825546Y-79732604D01*
X77897234Y-79559534D01*
X78001312Y-79403770D01*
X78133770Y-79271312D01*
X78289534Y-79167234D01*
X78462604Y-79095546D01*
X78646333Y-79059000D01*
X78833667Y-79059000D01*
X79017396Y-79095546D01*
X79017396Y-79095546D01*
G37*
G36*
X108901000Y-80961000D02*
X106999000Y-80961000D01*
X106999000Y-79059000D01*
X108901000Y-79059000D01*
X108901000Y-80961000D01*
X108901000Y-80961000D01*
G37*
G36*
X83501000Y-80961000D02*
X81599000Y-80961000D01*
X81599000Y-79059000D01*
X83501000Y-79059000D01*
X83501000Y-80961000D01*
X83501000Y-80961000D01*
G37*
G36*
X85367396Y-79095546D02*
X85540466Y-79167234D01*
X85696230Y-79271312D01*
X85828688Y-79403770D01*
X85932766Y-79559534D01*
X86004454Y-79732604D01*
X86041000Y-79916333D01*
X86041000Y-80103667D01*
X86004454Y-80287396D01*
X85932766Y-80460466D01*
X85828688Y-80616230D01*
X85696230Y-80748688D01*
X85540466Y-80852766D01*
X85367396Y-80924454D01*
X85183667Y-80961000D01*
X84996333Y-80961000D01*
X84812604Y-80924454D01*
X84639534Y-80852766D01*
X84483770Y-80748688D01*
X84351312Y-80616230D01*
X84247234Y-80460466D01*
X84175546Y-80287396D01*
X84139000Y-80103667D01*
X84139000Y-79916333D01*
X84175546Y-79732604D01*
X84247234Y-79559534D01*
X84351312Y-79403770D01*
X84483770Y-79271312D01*
X84639534Y-79167234D01*
X84812604Y-79095546D01*
X84996333Y-79059000D01*
X85183667Y-79059000D01*
X85367396Y-79095546D01*
X85367396Y-79095546D01*
G37*
G36*
X91717396Y-79095546D02*
X91890466Y-79167234D01*
X92046230Y-79271312D01*
X92178688Y-79403770D01*
X92282766Y-79559534D01*
X92354454Y-79732604D01*
X92391000Y-79916333D01*
X92391000Y-80103667D01*
X92354454Y-80287396D01*
X92282766Y-80460466D01*
X92178688Y-80616230D01*
X92046230Y-80748688D01*
X91890466Y-80852766D01*
X91717396Y-80924454D01*
X91533667Y-80961000D01*
X91346333Y-80961000D01*
X91162604Y-80924454D01*
X90989534Y-80852766D01*
X90833770Y-80748688D01*
X90701312Y-80616230D01*
X90597234Y-80460466D01*
X90525546Y-80287396D01*
X90489000Y-80103667D01*
X90489000Y-79916333D01*
X90525546Y-79732604D01*
X90597234Y-79559534D01*
X90701312Y-79403770D01*
X90833770Y-79271312D01*
X90989534Y-79167234D01*
X91162604Y-79095546D01*
X91346333Y-79059000D01*
X91533667Y-79059000D01*
X91717396Y-79095546D01*
X91717396Y-79095546D01*
G37*
G36*
X104417396Y-79095546D02*
X104590466Y-79167234D01*
X104746230Y-79271312D01*
X104878688Y-79403770D01*
X104982766Y-79559534D01*
X105054454Y-79732604D01*
X105091000Y-79916333D01*
X105091000Y-80103667D01*
X105054454Y-80287396D01*
X104982766Y-80460466D01*
X104878688Y-80616230D01*
X104746230Y-80748688D01*
X104590466Y-80852766D01*
X104417396Y-80924454D01*
X104233667Y-80961000D01*
X104046333Y-80961000D01*
X103862604Y-80924454D01*
X103689534Y-80852766D01*
X103533770Y-80748688D01*
X103401312Y-80616230D01*
X103297234Y-80460466D01*
X103225546Y-80287396D01*
X103189000Y-80103667D01*
X103189000Y-79916333D01*
X103225546Y-79732604D01*
X103297234Y-79559534D01*
X103401312Y-79403770D01*
X103533770Y-79271312D01*
X103689534Y-79167234D01*
X103862604Y-79095546D01*
X104046333Y-79059000D01*
X104233667Y-79059000D01*
X104417396Y-79095546D01*
X104417396Y-79095546D01*
G37*
G36*
X89851000Y-80961000D02*
X87949000Y-80961000D01*
X87949000Y-79059000D01*
X89851000Y-79059000D01*
X89851000Y-80961000D01*
X89851000Y-80961000D01*
G37*
G36*
X98067396Y-79095546D02*
X98240466Y-79167234D01*
X98396230Y-79271312D01*
X98528688Y-79403770D01*
X98632766Y-79559534D01*
X98704454Y-79732604D01*
X98741000Y-79916333D01*
X98741000Y-80103667D01*
X98704454Y-80287396D01*
X98632766Y-80460466D01*
X98528688Y-80616230D01*
X98396230Y-80748688D01*
X98240466Y-80852766D01*
X98067396Y-80924454D01*
X97883667Y-80961000D01*
X97696333Y-80961000D01*
X97512604Y-80924454D01*
X97339534Y-80852766D01*
X97183770Y-80748688D01*
X97051312Y-80616230D01*
X96947234Y-80460466D01*
X96875546Y-80287396D01*
X96839000Y-80103667D01*
X96839000Y-79916333D01*
X96875546Y-79732604D01*
X96947234Y-79559534D01*
X97051312Y-79403770D01*
X97183770Y-79271312D01*
X97339534Y-79167234D01*
X97512604Y-79095546D01*
X97696333Y-79059000D01*
X97883667Y-79059000D01*
X98067396Y-79095546D01*
X98067396Y-79095546D01*
G37*
G36*
X96201000Y-80961000D02*
X94299000Y-80961000D01*
X94299000Y-79059000D01*
X96201000Y-79059000D01*
X96201000Y-80961000D01*
X96201000Y-80961000D01*
G37*
G36*
X110767396Y-79095546D02*
X110940466Y-79167234D01*
X111096230Y-79271312D01*
X111228688Y-79403770D01*
X111332766Y-79559534D01*
X111404454Y-79732604D01*
X111441000Y-79916333D01*
X111441000Y-80103667D01*
X111404454Y-80287396D01*
X111332766Y-80460466D01*
X111228688Y-80616230D01*
X111096230Y-80748688D01*
X110940466Y-80852766D01*
X110767396Y-80924454D01*
X110583667Y-80961000D01*
X110396333Y-80961000D01*
X110212604Y-80924454D01*
X110039534Y-80852766D01*
X109883770Y-80748688D01*
X109751312Y-80616230D01*
X109647234Y-80460466D01*
X109575546Y-80287396D01*
X109539000Y-80103667D01*
X109539000Y-79916333D01*
X109575546Y-79732604D01*
X109647234Y-79559534D01*
X109751312Y-79403770D01*
X109883770Y-79271312D01*
X110039534Y-79167234D01*
X110212604Y-79095546D01*
X110396333Y-79059000D01*
X110583667Y-79059000D01*
X110767396Y-79095546D01*
X110767396Y-79095546D01*
G37*
G36*
X72556821Y-79171313D02*
X72556824Y-79171314D01*
X72556825Y-79171314D01*
X72717239Y-79219975D01*
X72717241Y-79219976D01*
X72717244Y-79219977D01*
X72865078Y-79298995D01*
X72994659Y-79405341D01*
X73101005Y-79534922D01*
X73180023Y-79682756D01*
X73180024Y-79682759D01*
X73180025Y-79682761D01*
X73228686Y-79843175D01*
X73228687Y-79843179D01*
X73245117Y-80010000D01*
X73228687Y-80176821D01*
X73228686Y-80176824D01*
X73228686Y-80176825D01*
X73195145Y-80287396D01*
X73180023Y-80337244D01*
X73101005Y-80485078D01*
X72994659Y-80614659D01*
X72865078Y-80721005D01*
X72717244Y-80800023D01*
X72717241Y-80800024D01*
X72717239Y-80800025D01*
X72556825Y-80848686D01*
X72556824Y-80848686D01*
X72556821Y-80848687D01*
X72431804Y-80861000D01*
X72348196Y-80861000D01*
X72223179Y-80848687D01*
X72223176Y-80848686D01*
X72223175Y-80848686D01*
X72062761Y-80800025D01*
X72062759Y-80800024D01*
X72062756Y-80800023D01*
X71914922Y-80721005D01*
X71785341Y-80614659D01*
X71678995Y-80485078D01*
X71599977Y-80337244D01*
X71584856Y-80287396D01*
X71551314Y-80176825D01*
X71551314Y-80176824D01*
X71551313Y-80176821D01*
X71534883Y-80010000D01*
X71551313Y-79843179D01*
X71551314Y-79843175D01*
X71599975Y-79682761D01*
X71599976Y-79682759D01*
X71599977Y-79682756D01*
X71678995Y-79534922D01*
X71785341Y-79405341D01*
X71914922Y-79298995D01*
X72062756Y-79219977D01*
X72062759Y-79219976D01*
X72062761Y-79219975D01*
X72223175Y-79171314D01*
X72223176Y-79171314D01*
X72223179Y-79171313D01*
X72348196Y-79159000D01*
X72431804Y-79159000D01*
X72556821Y-79171313D01*
X72556821Y-79171313D01*
G37*
G36*
X62478228Y-79191703D02*
X62633100Y-79255853D01*
X62772481Y-79348985D01*
X62891015Y-79467519D01*
X62984147Y-79606900D01*
X63048297Y-79761772D01*
X63081000Y-79926184D01*
X63081000Y-80093816D01*
X63048297Y-80258228D01*
X62984147Y-80413100D01*
X62891015Y-80552481D01*
X62772481Y-80671015D01*
X62633100Y-80764147D01*
X62478228Y-80828297D01*
X62313816Y-80861000D01*
X62146184Y-80861000D01*
X61981772Y-80828297D01*
X61826900Y-80764147D01*
X61687519Y-80671015D01*
X61568985Y-80552481D01*
X61475853Y-80413100D01*
X61411703Y-80258228D01*
X61379000Y-80093816D01*
X61379000Y-79926184D01*
X61411703Y-79761772D01*
X61475853Y-79606900D01*
X61568985Y-79467519D01*
X61687519Y-79348985D01*
X61826900Y-79255853D01*
X61981772Y-79191703D01*
X62146184Y-79159000D01*
X62313816Y-79159000D01*
X62478228Y-79191703D01*
X62478228Y-79191703D01*
G37*
G36*
X121601000Y-74611000D02*
X119699000Y-74611000D01*
X119699000Y-72709000D01*
X121601000Y-72709000D01*
X121601000Y-74611000D01*
X121601000Y-74611000D01*
G37*
G36*
X117117396Y-72745546D02*
X117290466Y-72817234D01*
X117446230Y-72921312D01*
X117578688Y-73053770D01*
X117682766Y-73209534D01*
X117754454Y-73382604D01*
X117791000Y-73566333D01*
X117791000Y-73753667D01*
X117754454Y-73937396D01*
X117682766Y-74110466D01*
X117578688Y-74266230D01*
X117446230Y-74398688D01*
X117290466Y-74502766D01*
X117117396Y-74574454D01*
X116933667Y-74611000D01*
X116746333Y-74611000D01*
X116562604Y-74574454D01*
X116389534Y-74502766D01*
X116233770Y-74398688D01*
X116101312Y-74266230D01*
X115997234Y-74110466D01*
X115925546Y-73937396D01*
X115889000Y-73753667D01*
X115889000Y-73566333D01*
X115925546Y-73382604D01*
X115997234Y-73209534D01*
X116101312Y-73053770D01*
X116233770Y-72921312D01*
X116389534Y-72817234D01*
X116562604Y-72745546D01*
X116746333Y-72709000D01*
X116933667Y-72709000D01*
X117117396Y-72745546D01*
X117117396Y-72745546D01*
G37*
G36*
X115251000Y-74611000D02*
X113349000Y-74611000D01*
X113349000Y-72709000D01*
X115251000Y-72709000D01*
X115251000Y-74611000D01*
X115251000Y-74611000D01*
G37*
G36*
X77151000Y-74611000D02*
X75249000Y-74611000D01*
X75249000Y-72709000D01*
X77151000Y-72709000D01*
X77151000Y-74611000D01*
X77151000Y-74611000D01*
G37*
G36*
X79017396Y-72745546D02*
X79190466Y-72817234D01*
X79346230Y-72921312D01*
X79478688Y-73053770D01*
X79582766Y-73209534D01*
X79654454Y-73382604D01*
X79691000Y-73566333D01*
X79691000Y-73753667D01*
X79654454Y-73937396D01*
X79582766Y-74110466D01*
X79478688Y-74266230D01*
X79346230Y-74398688D01*
X79190466Y-74502766D01*
X79017396Y-74574454D01*
X78833667Y-74611000D01*
X78646333Y-74611000D01*
X78462604Y-74574454D01*
X78289534Y-74502766D01*
X78133770Y-74398688D01*
X78001312Y-74266230D01*
X77897234Y-74110466D01*
X77825546Y-73937396D01*
X77789000Y-73753667D01*
X77789000Y-73566333D01*
X77825546Y-73382604D01*
X77897234Y-73209534D01*
X78001312Y-73053770D01*
X78133770Y-72921312D01*
X78289534Y-72817234D01*
X78462604Y-72745546D01*
X78646333Y-72709000D01*
X78833667Y-72709000D01*
X79017396Y-72745546D01*
X79017396Y-72745546D01*
G37*
G36*
X91717396Y-72745546D02*
X91890466Y-72817234D01*
X92046230Y-72921312D01*
X92178688Y-73053770D01*
X92282766Y-73209534D01*
X92354454Y-73382604D01*
X92391000Y-73566333D01*
X92391000Y-73753667D01*
X92354454Y-73937396D01*
X92282766Y-74110466D01*
X92178688Y-74266230D01*
X92046230Y-74398688D01*
X91890466Y-74502766D01*
X91717396Y-74574454D01*
X91533667Y-74611000D01*
X91346333Y-74611000D01*
X91162604Y-74574454D01*
X90989534Y-74502766D01*
X90833770Y-74398688D01*
X90701312Y-74266230D01*
X90597234Y-74110466D01*
X90525546Y-73937396D01*
X90489000Y-73753667D01*
X90489000Y-73566333D01*
X90525546Y-73382604D01*
X90597234Y-73209534D01*
X90701312Y-73053770D01*
X90833770Y-72921312D01*
X90989534Y-72817234D01*
X91162604Y-72745546D01*
X91346333Y-72709000D01*
X91533667Y-72709000D01*
X91717396Y-72745546D01*
X91717396Y-72745546D01*
G37*
G36*
X85367396Y-72745546D02*
X85540466Y-72817234D01*
X85696230Y-72921312D01*
X85828688Y-73053770D01*
X85932766Y-73209534D01*
X86004454Y-73382604D01*
X86041000Y-73566333D01*
X86041000Y-73753667D01*
X86004454Y-73937396D01*
X85932766Y-74110466D01*
X85828688Y-74266230D01*
X85696230Y-74398688D01*
X85540466Y-74502766D01*
X85367396Y-74574454D01*
X85183667Y-74611000D01*
X84996333Y-74611000D01*
X84812604Y-74574454D01*
X84639534Y-74502766D01*
X84483770Y-74398688D01*
X84351312Y-74266230D01*
X84247234Y-74110466D01*
X84175546Y-73937396D01*
X84139000Y-73753667D01*
X84139000Y-73566333D01*
X84175546Y-73382604D01*
X84247234Y-73209534D01*
X84351312Y-73053770D01*
X84483770Y-72921312D01*
X84639534Y-72817234D01*
X84812604Y-72745546D01*
X84996333Y-72709000D01*
X85183667Y-72709000D01*
X85367396Y-72745546D01*
X85367396Y-72745546D01*
G37*
G36*
X110767396Y-72745546D02*
X110940466Y-72817234D01*
X111096230Y-72921312D01*
X111228688Y-73053770D01*
X111332766Y-73209534D01*
X111404454Y-73382604D01*
X111441000Y-73566333D01*
X111441000Y-73753667D01*
X111404454Y-73937396D01*
X111332766Y-74110466D01*
X111228688Y-74266230D01*
X111096230Y-74398688D01*
X110940466Y-74502766D01*
X110767396Y-74574454D01*
X110583667Y-74611000D01*
X110396333Y-74611000D01*
X110212604Y-74574454D01*
X110039534Y-74502766D01*
X109883770Y-74398688D01*
X109751312Y-74266230D01*
X109647234Y-74110466D01*
X109575546Y-73937396D01*
X109539000Y-73753667D01*
X109539000Y-73566333D01*
X109575546Y-73382604D01*
X109647234Y-73209534D01*
X109751312Y-73053770D01*
X109883770Y-72921312D01*
X110039534Y-72817234D01*
X110212604Y-72745546D01*
X110396333Y-72709000D01*
X110583667Y-72709000D01*
X110767396Y-72745546D01*
X110767396Y-72745546D01*
G37*
G36*
X96201000Y-74611000D02*
X94299000Y-74611000D01*
X94299000Y-72709000D01*
X96201000Y-72709000D01*
X96201000Y-74611000D01*
X96201000Y-74611000D01*
G37*
G36*
X98067396Y-72745546D02*
X98240466Y-72817234D01*
X98396230Y-72921312D01*
X98528688Y-73053770D01*
X98632766Y-73209534D01*
X98704454Y-73382604D01*
X98741000Y-73566333D01*
X98741000Y-73753667D01*
X98704454Y-73937396D01*
X98632766Y-74110466D01*
X98528688Y-74266230D01*
X98396230Y-74398688D01*
X98240466Y-74502766D01*
X98067396Y-74574454D01*
X97883667Y-74611000D01*
X97696333Y-74611000D01*
X97512604Y-74574454D01*
X97339534Y-74502766D01*
X97183770Y-74398688D01*
X97051312Y-74266230D01*
X96947234Y-74110466D01*
X96875546Y-73937396D01*
X96839000Y-73753667D01*
X96839000Y-73566333D01*
X96875546Y-73382604D01*
X96947234Y-73209534D01*
X97051312Y-73053770D01*
X97183770Y-72921312D01*
X97339534Y-72817234D01*
X97512604Y-72745546D01*
X97696333Y-72709000D01*
X97883667Y-72709000D01*
X98067396Y-72745546D01*
X98067396Y-72745546D01*
G37*
G36*
X102551000Y-74611000D02*
X100649000Y-74611000D01*
X100649000Y-72709000D01*
X102551000Y-72709000D01*
X102551000Y-74611000D01*
X102551000Y-74611000D01*
G37*
G36*
X104417396Y-72745546D02*
X104590466Y-72817234D01*
X104746230Y-72921312D01*
X104878688Y-73053770D01*
X104982766Y-73209534D01*
X105054454Y-73382604D01*
X105091000Y-73566333D01*
X105091000Y-73753667D01*
X105054454Y-73937396D01*
X104982766Y-74110466D01*
X104878688Y-74266230D01*
X104746230Y-74398688D01*
X104590466Y-74502766D01*
X104417396Y-74574454D01*
X104233667Y-74611000D01*
X104046333Y-74611000D01*
X103862604Y-74574454D01*
X103689534Y-74502766D01*
X103533770Y-74398688D01*
X103401312Y-74266230D01*
X103297234Y-74110466D01*
X103225546Y-73937396D01*
X103189000Y-73753667D01*
X103189000Y-73566333D01*
X103225546Y-73382604D01*
X103297234Y-73209534D01*
X103401312Y-73053770D01*
X103533770Y-72921312D01*
X103689534Y-72817234D01*
X103862604Y-72745546D01*
X104046333Y-72709000D01*
X104233667Y-72709000D01*
X104417396Y-72745546D01*
X104417396Y-72745546D01*
G37*
G36*
X83501000Y-74611000D02*
X81599000Y-74611000D01*
X81599000Y-72709000D01*
X83501000Y-72709000D01*
X83501000Y-74611000D01*
X83501000Y-74611000D01*
G37*
G36*
X123467396Y-72745546D02*
X123640466Y-72817234D01*
X123796230Y-72921312D01*
X123928688Y-73053770D01*
X124032766Y-73209534D01*
X124104454Y-73382604D01*
X124141000Y-73566333D01*
X124141000Y-73753667D01*
X124104454Y-73937396D01*
X124032766Y-74110466D01*
X123928688Y-74266230D01*
X123796230Y-74398688D01*
X123640466Y-74502766D01*
X123467396Y-74574454D01*
X123283667Y-74611000D01*
X123096333Y-74611000D01*
X122912604Y-74574454D01*
X122739534Y-74502766D01*
X122583770Y-74398688D01*
X122451312Y-74266230D01*
X122347234Y-74110466D01*
X122275546Y-73937396D01*
X122239000Y-73753667D01*
X122239000Y-73566333D01*
X122275546Y-73382604D01*
X122347234Y-73209534D01*
X122451312Y-73053770D01*
X122583770Y-72921312D01*
X122739534Y-72817234D01*
X122912604Y-72745546D01*
X123096333Y-72709000D01*
X123283667Y-72709000D01*
X123467396Y-72745546D01*
X123467396Y-72745546D01*
G37*
G36*
X89851000Y-74611000D02*
X87949000Y-74611000D01*
X87949000Y-72709000D01*
X89851000Y-72709000D01*
X89851000Y-74611000D01*
X89851000Y-74611000D01*
G37*
G36*
X108901000Y-74611000D02*
X106999000Y-74611000D01*
X106999000Y-72709000D01*
X108901000Y-72709000D01*
X108901000Y-74611000D01*
X108901000Y-74611000D01*
G37*
G36*
X62478228Y-72841703D02*
X62633100Y-72905853D01*
X62772481Y-72998985D01*
X62891015Y-73117519D01*
X62984147Y-73256900D01*
X63048297Y-73411772D01*
X63081000Y-73576184D01*
X63081000Y-73743816D01*
X63048297Y-73908228D01*
X62984147Y-74063100D01*
X62891015Y-74202481D01*
X62772481Y-74321015D01*
X62633100Y-74414147D01*
X62478228Y-74478297D01*
X62313816Y-74511000D01*
X62146184Y-74511000D01*
X61981772Y-74478297D01*
X61826900Y-74414147D01*
X61687519Y-74321015D01*
X61568985Y-74202481D01*
X61475853Y-74063100D01*
X61411703Y-73908228D01*
X61379000Y-73743816D01*
X61379000Y-73576184D01*
X61411703Y-73411772D01*
X61475853Y-73256900D01*
X61568985Y-73117519D01*
X61687519Y-72998985D01*
X61826900Y-72905853D01*
X61981772Y-72841703D01*
X62146184Y-72809000D01*
X62313816Y-72809000D01*
X62478228Y-72841703D01*
X62478228Y-72841703D01*
G37*
G36*
X72556821Y-72821313D02*
X72556824Y-72821314D01*
X72556825Y-72821314D01*
X72717239Y-72869975D01*
X72717241Y-72869976D01*
X72717244Y-72869977D01*
X72865078Y-72948995D01*
X72994659Y-73055341D01*
X73101005Y-73184922D01*
X73180023Y-73332756D01*
X73180024Y-73332759D01*
X73180025Y-73332761D01*
X73228686Y-73493175D01*
X73228687Y-73493179D01*
X73245117Y-73660000D01*
X73228687Y-73826821D01*
X73228686Y-73826824D01*
X73228686Y-73826825D01*
X73195145Y-73937396D01*
X73180023Y-73987244D01*
X73101005Y-74135078D01*
X72994659Y-74264659D01*
X72865078Y-74371005D01*
X72717244Y-74450023D01*
X72717241Y-74450024D01*
X72717239Y-74450025D01*
X72556825Y-74498686D01*
X72556824Y-74498686D01*
X72556821Y-74498687D01*
X72431804Y-74511000D01*
X72348196Y-74511000D01*
X72223179Y-74498687D01*
X72223176Y-74498686D01*
X72223175Y-74498686D01*
X72062761Y-74450025D01*
X72062759Y-74450024D01*
X72062756Y-74450023D01*
X71914922Y-74371005D01*
X71785341Y-74264659D01*
X71678995Y-74135078D01*
X71599977Y-73987244D01*
X71584856Y-73937396D01*
X71551314Y-73826825D01*
X71551314Y-73826824D01*
X71551313Y-73826821D01*
X71534883Y-73660000D01*
X71551313Y-73493179D01*
X71551314Y-73493175D01*
X71599975Y-73332761D01*
X71599976Y-73332759D01*
X71599977Y-73332756D01*
X71678995Y-73184922D01*
X71785341Y-73055341D01*
X71914922Y-72948995D01*
X72062756Y-72869977D01*
X72062759Y-72869976D01*
X72062761Y-72869975D01*
X72223175Y-72821314D01*
X72223176Y-72821314D01*
X72223179Y-72821313D01*
X72348196Y-72809000D01*
X72431804Y-72809000D01*
X72556821Y-72821313D01*
X72556821Y-72821313D01*
G37*
G36*
X57260443Y-67685519D02*
X57326627Y-67692037D01*
X57439853Y-67726384D01*
X57496467Y-67743557D01*
X57574146Y-67785078D01*
X57652991Y-67827222D01*
X57683769Y-67852481D01*
X57790186Y-67939814D01*
X57873448Y-68041271D01*
X57902778Y-68077009D01*
X57902779Y-68077011D01*
X57986443Y-68233533D01*
X57986443Y-68233534D01*
X58037963Y-68403373D01*
X58055359Y-68580000D01*
X58037963Y-68756627D01*
X58003616Y-68869853D01*
X57986443Y-68926467D01*
X57912348Y-69065087D01*
X57902778Y-69082991D01*
X57873448Y-69118729D01*
X57790186Y-69220186D01*
X57688729Y-69303448D01*
X57652991Y-69332778D01*
X57652989Y-69332779D01*
X57496467Y-69416443D01*
X57439853Y-69433616D01*
X57326627Y-69467963D01*
X57260442Y-69474482D01*
X57194260Y-69481000D01*
X57105740Y-69481000D01*
X57039558Y-69474482D01*
X56973373Y-69467963D01*
X56860147Y-69433616D01*
X56803533Y-69416443D01*
X56647011Y-69332779D01*
X56647009Y-69332778D01*
X56611271Y-69303448D01*
X56509814Y-69220186D01*
X56426552Y-69118729D01*
X56397222Y-69082991D01*
X56387652Y-69065087D01*
X56313557Y-68926467D01*
X56296384Y-68869853D01*
X56262037Y-68756627D01*
X56244641Y-68580000D01*
X56262037Y-68403373D01*
X56313557Y-68233534D01*
X56313557Y-68233533D01*
X56397221Y-68077011D01*
X56397222Y-68077009D01*
X56426552Y-68041271D01*
X56509814Y-67939814D01*
X56616231Y-67852481D01*
X56647009Y-67827222D01*
X56725854Y-67785078D01*
X56803533Y-67743557D01*
X56860147Y-67726384D01*
X56973373Y-67692037D01*
X57039557Y-67685519D01*
X57105740Y-67679000D01*
X57194260Y-67679000D01*
X57260443Y-67685519D01*
X57260443Y-67685519D01*
G37*
G36*
X117117396Y-66395546D02*
X117290466Y-66467234D01*
X117446230Y-66571312D01*
X117578688Y-66703770D01*
X117682766Y-66859534D01*
X117754454Y-67032604D01*
X117791000Y-67216333D01*
X117791000Y-67403667D01*
X117754454Y-67587396D01*
X117682766Y-67760466D01*
X117578688Y-67916230D01*
X117446230Y-68048688D01*
X117290466Y-68152766D01*
X117117396Y-68224454D01*
X116933667Y-68261000D01*
X116746333Y-68261000D01*
X116562604Y-68224454D01*
X116389534Y-68152766D01*
X116233770Y-68048688D01*
X116101312Y-67916230D01*
X115997234Y-67760466D01*
X115925546Y-67587396D01*
X115889000Y-67403667D01*
X115889000Y-67216333D01*
X115925546Y-67032604D01*
X115997234Y-66859534D01*
X116101312Y-66703770D01*
X116233770Y-66571312D01*
X116389534Y-66467234D01*
X116562604Y-66395546D01*
X116746333Y-66359000D01*
X116933667Y-66359000D01*
X117117396Y-66395546D01*
X117117396Y-66395546D01*
G37*
G36*
X104417396Y-66395546D02*
X104590466Y-66467234D01*
X104746230Y-66571312D01*
X104878688Y-66703770D01*
X104982766Y-66859534D01*
X105054454Y-67032604D01*
X105091000Y-67216333D01*
X105091000Y-67403667D01*
X105054454Y-67587396D01*
X104982766Y-67760466D01*
X104878688Y-67916230D01*
X104746230Y-68048688D01*
X104590466Y-68152766D01*
X104417396Y-68224454D01*
X104233667Y-68261000D01*
X104046333Y-68261000D01*
X103862604Y-68224454D01*
X103689534Y-68152766D01*
X103533770Y-68048688D01*
X103401312Y-67916230D01*
X103297234Y-67760466D01*
X103225546Y-67587396D01*
X103189000Y-67403667D01*
X103189000Y-67216333D01*
X103225546Y-67032604D01*
X103297234Y-66859534D01*
X103401312Y-66703770D01*
X103533770Y-66571312D01*
X103689534Y-66467234D01*
X103862604Y-66395546D01*
X104046333Y-66359000D01*
X104233667Y-66359000D01*
X104417396Y-66395546D01*
X104417396Y-66395546D01*
G37*
G36*
X108901000Y-68261000D02*
X106999000Y-68261000D01*
X106999000Y-66359000D01*
X108901000Y-66359000D01*
X108901000Y-68261000D01*
X108901000Y-68261000D01*
G37*
G36*
X110767396Y-66395546D02*
X110940466Y-66467234D01*
X111096230Y-66571312D01*
X111228688Y-66703770D01*
X111332766Y-66859534D01*
X111404454Y-67032604D01*
X111441000Y-67216333D01*
X111441000Y-67403667D01*
X111404454Y-67587396D01*
X111332766Y-67760466D01*
X111228688Y-67916230D01*
X111096230Y-68048688D01*
X110940466Y-68152766D01*
X110767396Y-68224454D01*
X110583667Y-68261000D01*
X110396333Y-68261000D01*
X110212604Y-68224454D01*
X110039534Y-68152766D01*
X109883770Y-68048688D01*
X109751312Y-67916230D01*
X109647234Y-67760466D01*
X109575546Y-67587396D01*
X109539000Y-67403667D01*
X109539000Y-67216333D01*
X109575546Y-67032604D01*
X109647234Y-66859534D01*
X109751312Y-66703770D01*
X109883770Y-66571312D01*
X110039534Y-66467234D01*
X110212604Y-66395546D01*
X110396333Y-66359000D01*
X110583667Y-66359000D01*
X110767396Y-66395546D01*
X110767396Y-66395546D01*
G37*
G36*
X91717396Y-66395546D02*
X91890466Y-66467234D01*
X92046230Y-66571312D01*
X92178688Y-66703770D01*
X92282766Y-66859534D01*
X92354454Y-67032604D01*
X92391000Y-67216333D01*
X92391000Y-67403667D01*
X92354454Y-67587396D01*
X92282766Y-67760466D01*
X92178688Y-67916230D01*
X92046230Y-68048688D01*
X91890466Y-68152766D01*
X91717396Y-68224454D01*
X91533667Y-68261000D01*
X91346333Y-68261000D01*
X91162604Y-68224454D01*
X90989534Y-68152766D01*
X90833770Y-68048688D01*
X90701312Y-67916230D01*
X90597234Y-67760466D01*
X90525546Y-67587396D01*
X90489000Y-67403667D01*
X90489000Y-67216333D01*
X90525546Y-67032604D01*
X90597234Y-66859534D01*
X90701312Y-66703770D01*
X90833770Y-66571312D01*
X90989534Y-66467234D01*
X91162604Y-66395546D01*
X91346333Y-66359000D01*
X91533667Y-66359000D01*
X91717396Y-66395546D01*
X91717396Y-66395546D01*
G37*
G36*
X89851000Y-68261000D02*
X87949000Y-68261000D01*
X87949000Y-66359000D01*
X89851000Y-66359000D01*
X89851000Y-68261000D01*
X89851000Y-68261000D01*
G37*
G36*
X121601000Y-68261000D02*
X119699000Y-68261000D01*
X119699000Y-66359000D01*
X121601000Y-66359000D01*
X121601000Y-68261000D01*
X121601000Y-68261000D01*
G37*
G36*
X98067396Y-66395546D02*
X98240466Y-66467234D01*
X98396230Y-66571312D01*
X98528688Y-66703770D01*
X98632766Y-66859534D01*
X98704454Y-67032604D01*
X98741000Y-67216333D01*
X98741000Y-67403667D01*
X98704454Y-67587396D01*
X98632766Y-67760466D01*
X98528688Y-67916230D01*
X98396230Y-68048688D01*
X98240466Y-68152766D01*
X98067396Y-68224454D01*
X97883667Y-68261000D01*
X97696333Y-68261000D01*
X97512604Y-68224454D01*
X97339534Y-68152766D01*
X97183770Y-68048688D01*
X97051312Y-67916230D01*
X96947234Y-67760466D01*
X96875546Y-67587396D01*
X96839000Y-67403667D01*
X96839000Y-67216333D01*
X96875546Y-67032604D01*
X96947234Y-66859534D01*
X97051312Y-66703770D01*
X97183770Y-66571312D01*
X97339534Y-66467234D01*
X97512604Y-66395546D01*
X97696333Y-66359000D01*
X97883667Y-66359000D01*
X98067396Y-66395546D01*
X98067396Y-66395546D01*
G37*
G36*
X79017396Y-66395546D02*
X79190466Y-66467234D01*
X79346230Y-66571312D01*
X79478688Y-66703770D01*
X79582766Y-66859534D01*
X79654454Y-67032604D01*
X79691000Y-67216333D01*
X79691000Y-67403667D01*
X79654454Y-67587396D01*
X79582766Y-67760466D01*
X79478688Y-67916230D01*
X79346230Y-68048688D01*
X79190466Y-68152766D01*
X79017396Y-68224454D01*
X78833667Y-68261000D01*
X78646333Y-68261000D01*
X78462604Y-68224454D01*
X78289534Y-68152766D01*
X78133770Y-68048688D01*
X78001312Y-67916230D01*
X77897234Y-67760466D01*
X77825546Y-67587396D01*
X77789000Y-67403667D01*
X77789000Y-67216333D01*
X77825546Y-67032604D01*
X77897234Y-66859534D01*
X78001312Y-66703770D01*
X78133770Y-66571312D01*
X78289534Y-66467234D01*
X78462604Y-66395546D01*
X78646333Y-66359000D01*
X78833667Y-66359000D01*
X79017396Y-66395546D01*
X79017396Y-66395546D01*
G37*
G36*
X102551000Y-68261000D02*
X100649000Y-68261000D01*
X100649000Y-66359000D01*
X102551000Y-66359000D01*
X102551000Y-68261000D01*
X102551000Y-68261000D01*
G37*
G36*
X123467396Y-66395546D02*
X123640466Y-66467234D01*
X123796230Y-66571312D01*
X123928688Y-66703770D01*
X124032766Y-66859534D01*
X124104454Y-67032604D01*
X124141000Y-67216333D01*
X124141000Y-67403667D01*
X124104454Y-67587396D01*
X124032766Y-67760466D01*
X123928688Y-67916230D01*
X123796230Y-68048688D01*
X123640466Y-68152766D01*
X123467396Y-68224454D01*
X123283667Y-68261000D01*
X123096333Y-68261000D01*
X122912604Y-68224454D01*
X122739534Y-68152766D01*
X122583770Y-68048688D01*
X122451312Y-67916230D01*
X122347234Y-67760466D01*
X122275546Y-67587396D01*
X122239000Y-67403667D01*
X122239000Y-67216333D01*
X122275546Y-67032604D01*
X122347234Y-66859534D01*
X122451312Y-66703770D01*
X122583770Y-66571312D01*
X122739534Y-66467234D01*
X122912604Y-66395546D01*
X123096333Y-66359000D01*
X123283667Y-66359000D01*
X123467396Y-66395546D01*
X123467396Y-66395546D01*
G37*
G36*
X83501000Y-68261000D02*
X81599000Y-68261000D01*
X81599000Y-66359000D01*
X83501000Y-66359000D01*
X83501000Y-68261000D01*
X83501000Y-68261000D01*
G37*
G36*
X85367396Y-66395546D02*
X85540466Y-66467234D01*
X85696230Y-66571312D01*
X85828688Y-66703770D01*
X85932766Y-66859534D01*
X86004454Y-67032604D01*
X86041000Y-67216333D01*
X86041000Y-67403667D01*
X86004454Y-67587396D01*
X85932766Y-67760466D01*
X85828688Y-67916230D01*
X85696230Y-68048688D01*
X85540466Y-68152766D01*
X85367396Y-68224454D01*
X85183667Y-68261000D01*
X84996333Y-68261000D01*
X84812604Y-68224454D01*
X84639534Y-68152766D01*
X84483770Y-68048688D01*
X84351312Y-67916230D01*
X84247234Y-67760466D01*
X84175546Y-67587396D01*
X84139000Y-67403667D01*
X84139000Y-67216333D01*
X84175546Y-67032604D01*
X84247234Y-66859534D01*
X84351312Y-66703770D01*
X84483770Y-66571312D01*
X84639534Y-66467234D01*
X84812604Y-66395546D01*
X84996333Y-66359000D01*
X85183667Y-66359000D01*
X85367396Y-66395546D01*
X85367396Y-66395546D01*
G37*
G36*
X115251000Y-68261000D02*
X113349000Y-68261000D01*
X113349000Y-66359000D01*
X115251000Y-66359000D01*
X115251000Y-68261000D01*
X115251000Y-68261000D01*
G37*
G36*
X96201000Y-68261000D02*
X94299000Y-68261000D01*
X94299000Y-66359000D01*
X96201000Y-66359000D01*
X96201000Y-68261000D01*
X96201000Y-68261000D01*
G37*
G36*
X77151000Y-68261000D02*
X75249000Y-68261000D01*
X75249000Y-66359000D01*
X77151000Y-66359000D01*
X77151000Y-68261000D01*
X77151000Y-68261000D01*
G37*
G36*
X62478228Y-66491703D02*
X62633100Y-66555853D01*
X62772481Y-66648985D01*
X62891015Y-66767519D01*
X62984147Y-66906900D01*
X63048297Y-67061772D01*
X63081000Y-67226184D01*
X63081000Y-67393816D01*
X63048297Y-67558228D01*
X62984147Y-67713100D01*
X62891015Y-67852481D01*
X62772481Y-67971015D01*
X62633100Y-68064147D01*
X62478228Y-68128297D01*
X62313816Y-68161000D01*
X62146184Y-68161000D01*
X61981772Y-68128297D01*
X61826900Y-68064147D01*
X61687519Y-67971015D01*
X61568985Y-67852481D01*
X61475853Y-67713100D01*
X61411703Y-67558228D01*
X61379000Y-67393816D01*
X61379000Y-67226184D01*
X61411703Y-67061772D01*
X61475853Y-66906900D01*
X61568985Y-66767519D01*
X61687519Y-66648985D01*
X61826900Y-66555853D01*
X61981772Y-66491703D01*
X62146184Y-66459000D01*
X62313816Y-66459000D01*
X62478228Y-66491703D01*
X62478228Y-66491703D01*
G37*
G36*
X72556821Y-66471313D02*
X72556824Y-66471314D01*
X72556825Y-66471314D01*
X72717239Y-66519975D01*
X72717241Y-66519976D01*
X72717244Y-66519977D01*
X72865078Y-66598995D01*
X72994659Y-66705341D01*
X73101005Y-66834922D01*
X73180023Y-66982756D01*
X73180024Y-66982759D01*
X73180025Y-66982761D01*
X73228686Y-67143175D01*
X73228687Y-67143179D01*
X73245117Y-67310000D01*
X73228687Y-67476821D01*
X73228686Y-67476824D01*
X73228686Y-67476825D01*
X73195145Y-67587396D01*
X73180023Y-67637244D01*
X73101005Y-67785078D01*
X72994659Y-67914659D01*
X72865078Y-68021005D01*
X72717244Y-68100023D01*
X72717241Y-68100024D01*
X72717239Y-68100025D01*
X72556825Y-68148686D01*
X72556824Y-68148686D01*
X72556821Y-68148687D01*
X72431804Y-68161000D01*
X72348196Y-68161000D01*
X72223179Y-68148687D01*
X72223176Y-68148686D01*
X72223175Y-68148686D01*
X72062761Y-68100025D01*
X72062759Y-68100024D01*
X72062756Y-68100023D01*
X71914922Y-68021005D01*
X71785341Y-67914659D01*
X71678995Y-67785078D01*
X71599977Y-67637244D01*
X71584856Y-67587396D01*
X71551314Y-67476825D01*
X71551314Y-67476824D01*
X71551313Y-67476821D01*
X71534883Y-67310000D01*
X71551313Y-67143179D01*
X71551314Y-67143175D01*
X71599975Y-66982761D01*
X71599976Y-66982759D01*
X71599977Y-66982756D01*
X71678995Y-66834922D01*
X71785341Y-66705341D01*
X71914922Y-66598995D01*
X72062756Y-66519977D01*
X72062759Y-66519976D01*
X72062761Y-66519975D01*
X72223175Y-66471314D01*
X72223176Y-66471314D01*
X72223179Y-66471313D01*
X72348196Y-66459000D01*
X72431804Y-66459000D01*
X72556821Y-66471313D01*
X72556821Y-66471313D01*
G37*
G36*
X57260442Y-65145518D02*
X57326627Y-65152037D01*
X57439853Y-65186384D01*
X57496467Y-65203557D01*
X57635087Y-65277652D01*
X57652991Y-65287222D01*
X57688729Y-65316552D01*
X57790186Y-65399814D01*
X57873448Y-65501271D01*
X57902778Y-65537009D01*
X57902779Y-65537011D01*
X57986443Y-65693533D01*
X57986443Y-65693534D01*
X58037963Y-65863373D01*
X58055359Y-66040000D01*
X58037963Y-66216627D01*
X58003616Y-66329853D01*
X57986443Y-66386467D01*
X57930192Y-66491703D01*
X57902778Y-66542991D01*
X57879537Y-66571310D01*
X57790186Y-66680186D01*
X57688729Y-66763448D01*
X57652991Y-66792778D01*
X57652989Y-66792779D01*
X57496467Y-66876443D01*
X57439853Y-66893616D01*
X57326627Y-66927963D01*
X57260442Y-66934482D01*
X57194260Y-66941000D01*
X57105740Y-66941000D01*
X57039558Y-66934482D01*
X56973373Y-66927963D01*
X56860147Y-66893616D01*
X56803533Y-66876443D01*
X56647011Y-66792779D01*
X56647009Y-66792778D01*
X56611271Y-66763448D01*
X56509814Y-66680186D01*
X56420463Y-66571310D01*
X56397222Y-66542991D01*
X56369808Y-66491703D01*
X56313557Y-66386467D01*
X56296384Y-66329853D01*
X56262037Y-66216627D01*
X56244641Y-66040000D01*
X56262037Y-65863373D01*
X56313557Y-65693534D01*
X56313557Y-65693533D01*
X56397221Y-65537011D01*
X56397222Y-65537009D01*
X56426552Y-65501271D01*
X56509814Y-65399814D01*
X56611271Y-65316552D01*
X56647009Y-65287222D01*
X56664913Y-65277652D01*
X56803533Y-65203557D01*
X56860147Y-65186384D01*
X56973373Y-65152037D01*
X57039558Y-65145518D01*
X57105740Y-65139000D01*
X57194260Y-65139000D01*
X57260442Y-65145518D01*
X57260442Y-65145518D01*
G37*
G36*
X57260442Y-62605518D02*
X57326627Y-62612037D01*
X57439853Y-62646384D01*
X57496467Y-62663557D01*
X57635087Y-62737652D01*
X57652991Y-62747222D01*
X57688729Y-62776552D01*
X57790186Y-62859814D01*
X57873448Y-62961271D01*
X57902778Y-62997009D01*
X57902779Y-62997011D01*
X57986443Y-63153533D01*
X57986443Y-63153534D01*
X58037963Y-63323373D01*
X58055359Y-63500000D01*
X58037963Y-63676627D01*
X58003616Y-63789853D01*
X57986443Y-63846467D01*
X57912348Y-63985087D01*
X57902778Y-64002991D01*
X57873448Y-64038729D01*
X57790186Y-64140186D01*
X57688729Y-64223448D01*
X57652991Y-64252778D01*
X57652989Y-64252779D01*
X57496467Y-64336443D01*
X57439853Y-64353616D01*
X57326627Y-64387963D01*
X57260442Y-64394482D01*
X57194260Y-64401000D01*
X57105740Y-64401000D01*
X57039558Y-64394482D01*
X56973373Y-64387963D01*
X56860147Y-64353616D01*
X56803533Y-64336443D01*
X56647011Y-64252779D01*
X56647009Y-64252778D01*
X56611271Y-64223448D01*
X56509814Y-64140186D01*
X56426552Y-64038729D01*
X56397222Y-64002991D01*
X56387652Y-63985087D01*
X56313557Y-63846467D01*
X56296384Y-63789853D01*
X56262037Y-63676627D01*
X56244641Y-63500000D01*
X56262037Y-63323373D01*
X56313557Y-63153534D01*
X56313557Y-63153533D01*
X56397221Y-62997011D01*
X56397222Y-62997009D01*
X56426552Y-62961271D01*
X56509814Y-62859814D01*
X56611271Y-62776552D01*
X56647009Y-62747222D01*
X56664913Y-62737652D01*
X56803533Y-62663557D01*
X56860147Y-62646384D01*
X56973373Y-62612037D01*
X57039558Y-62605518D01*
X57105740Y-62599000D01*
X57194260Y-62599000D01*
X57260442Y-62605518D01*
X57260442Y-62605518D01*
G37*
G36*
X123467396Y-60045546D02*
X123640466Y-60117234D01*
X123796230Y-60221312D01*
X123928688Y-60353770D01*
X124032766Y-60509534D01*
X124104454Y-60682604D01*
X124141000Y-60866333D01*
X124141000Y-61053667D01*
X124104454Y-61237396D01*
X124032766Y-61410466D01*
X123928688Y-61566230D01*
X123796230Y-61698688D01*
X123640466Y-61802766D01*
X123467396Y-61874454D01*
X123283667Y-61911000D01*
X123096333Y-61911000D01*
X122912604Y-61874454D01*
X122739534Y-61802766D01*
X122583770Y-61698688D01*
X122451312Y-61566230D01*
X122347234Y-61410466D01*
X122275546Y-61237396D01*
X122239000Y-61053667D01*
X122239000Y-60866333D01*
X122275546Y-60682604D01*
X122347234Y-60509534D01*
X122451312Y-60353770D01*
X122583770Y-60221312D01*
X122739534Y-60117234D01*
X122912604Y-60045546D01*
X123096333Y-60009000D01*
X123283667Y-60009000D01*
X123467396Y-60045546D01*
X123467396Y-60045546D01*
G37*
G36*
X121601000Y-61911000D02*
X119699000Y-61911000D01*
X119699000Y-60009000D01*
X121601000Y-60009000D01*
X121601000Y-61911000D01*
X121601000Y-61911000D01*
G37*
G36*
X117117396Y-60045546D02*
X117290466Y-60117234D01*
X117446230Y-60221312D01*
X117578688Y-60353770D01*
X117682766Y-60509534D01*
X117754454Y-60682604D01*
X117791000Y-60866333D01*
X117791000Y-61053667D01*
X117754454Y-61237396D01*
X117682766Y-61410466D01*
X117578688Y-61566230D01*
X117446230Y-61698688D01*
X117290466Y-61802766D01*
X117117396Y-61874454D01*
X116933667Y-61911000D01*
X116746333Y-61911000D01*
X116562604Y-61874454D01*
X116389534Y-61802766D01*
X116233770Y-61698688D01*
X116101312Y-61566230D01*
X115997234Y-61410466D01*
X115925546Y-61237396D01*
X115889000Y-61053667D01*
X115889000Y-60866333D01*
X115925546Y-60682604D01*
X115997234Y-60509534D01*
X116101312Y-60353770D01*
X116233770Y-60221312D01*
X116389534Y-60117234D01*
X116562604Y-60045546D01*
X116746333Y-60009000D01*
X116933667Y-60009000D01*
X117117396Y-60045546D01*
X117117396Y-60045546D01*
G37*
G36*
X77151000Y-61911000D02*
X75249000Y-61911000D01*
X75249000Y-60009000D01*
X77151000Y-60009000D01*
X77151000Y-61911000D01*
X77151000Y-61911000D01*
G37*
G36*
X79017396Y-60045546D02*
X79190466Y-60117234D01*
X79346230Y-60221312D01*
X79478688Y-60353770D01*
X79582766Y-60509534D01*
X79654454Y-60682604D01*
X79691000Y-60866333D01*
X79691000Y-61053667D01*
X79654454Y-61237396D01*
X79582766Y-61410466D01*
X79478688Y-61566230D01*
X79346230Y-61698688D01*
X79190466Y-61802766D01*
X79017396Y-61874454D01*
X78833667Y-61911000D01*
X78646333Y-61911000D01*
X78462604Y-61874454D01*
X78289534Y-61802766D01*
X78133770Y-61698688D01*
X78001312Y-61566230D01*
X77897234Y-61410466D01*
X77825546Y-61237396D01*
X77789000Y-61053667D01*
X77789000Y-60866333D01*
X77825546Y-60682604D01*
X77897234Y-60509534D01*
X78001312Y-60353770D01*
X78133770Y-60221312D01*
X78289534Y-60117234D01*
X78462604Y-60045546D01*
X78646333Y-60009000D01*
X78833667Y-60009000D01*
X79017396Y-60045546D01*
X79017396Y-60045546D01*
G37*
G36*
X83501000Y-61911000D02*
X81599000Y-61911000D01*
X81599000Y-60009000D01*
X83501000Y-60009000D01*
X83501000Y-61911000D01*
X83501000Y-61911000D01*
G37*
G36*
X85367396Y-60045546D02*
X85540466Y-60117234D01*
X85696230Y-60221312D01*
X85828688Y-60353770D01*
X85932766Y-60509534D01*
X86004454Y-60682604D01*
X86041000Y-60866333D01*
X86041000Y-61053667D01*
X86004454Y-61237396D01*
X85932766Y-61410466D01*
X85828688Y-61566230D01*
X85696230Y-61698688D01*
X85540466Y-61802766D01*
X85367396Y-61874454D01*
X85183667Y-61911000D01*
X84996333Y-61911000D01*
X84812604Y-61874454D01*
X84639534Y-61802766D01*
X84483770Y-61698688D01*
X84351312Y-61566230D01*
X84247234Y-61410466D01*
X84175546Y-61237396D01*
X84139000Y-61053667D01*
X84139000Y-60866333D01*
X84175546Y-60682604D01*
X84247234Y-60509534D01*
X84351312Y-60353770D01*
X84483770Y-60221312D01*
X84639534Y-60117234D01*
X84812604Y-60045546D01*
X84996333Y-60009000D01*
X85183667Y-60009000D01*
X85367396Y-60045546D01*
X85367396Y-60045546D01*
G37*
G36*
X89851000Y-61911000D02*
X87949000Y-61911000D01*
X87949000Y-60009000D01*
X89851000Y-60009000D01*
X89851000Y-61911000D01*
X89851000Y-61911000D01*
G37*
G36*
X115251000Y-61911000D02*
X113349000Y-61911000D01*
X113349000Y-60009000D01*
X115251000Y-60009000D01*
X115251000Y-61911000D01*
X115251000Y-61911000D01*
G37*
G36*
X91717396Y-60045546D02*
X91890466Y-60117234D01*
X92046230Y-60221312D01*
X92178688Y-60353770D01*
X92282766Y-60509534D01*
X92354454Y-60682604D01*
X92391000Y-60866333D01*
X92391000Y-61053667D01*
X92354454Y-61237396D01*
X92282766Y-61410466D01*
X92178688Y-61566230D01*
X92046230Y-61698688D01*
X91890466Y-61802766D01*
X91717396Y-61874454D01*
X91533667Y-61911000D01*
X91346333Y-61911000D01*
X91162604Y-61874454D01*
X90989534Y-61802766D01*
X90833770Y-61698688D01*
X90701312Y-61566230D01*
X90597234Y-61410466D01*
X90525546Y-61237396D01*
X90489000Y-61053667D01*
X90489000Y-60866333D01*
X90525546Y-60682604D01*
X90597234Y-60509534D01*
X90701312Y-60353770D01*
X90833770Y-60221312D01*
X90989534Y-60117234D01*
X91162604Y-60045546D01*
X91346333Y-60009000D01*
X91533667Y-60009000D01*
X91717396Y-60045546D01*
X91717396Y-60045546D01*
G37*
G36*
X96201000Y-61911000D02*
X94299000Y-61911000D01*
X94299000Y-60009000D01*
X96201000Y-60009000D01*
X96201000Y-61911000D01*
X96201000Y-61911000D01*
G37*
G36*
X98067396Y-60045546D02*
X98240466Y-60117234D01*
X98396230Y-60221312D01*
X98528688Y-60353770D01*
X98632766Y-60509534D01*
X98704454Y-60682604D01*
X98741000Y-60866333D01*
X98741000Y-61053667D01*
X98704454Y-61237396D01*
X98632766Y-61410466D01*
X98528688Y-61566230D01*
X98396230Y-61698688D01*
X98240466Y-61802766D01*
X98067396Y-61874454D01*
X97883667Y-61911000D01*
X97696333Y-61911000D01*
X97512604Y-61874454D01*
X97339534Y-61802766D01*
X97183770Y-61698688D01*
X97051312Y-61566230D01*
X96947234Y-61410466D01*
X96875546Y-61237396D01*
X96839000Y-61053667D01*
X96839000Y-60866333D01*
X96875546Y-60682604D01*
X96947234Y-60509534D01*
X97051312Y-60353770D01*
X97183770Y-60221312D01*
X97339534Y-60117234D01*
X97512604Y-60045546D01*
X97696333Y-60009000D01*
X97883667Y-60009000D01*
X98067396Y-60045546D01*
X98067396Y-60045546D01*
G37*
G36*
X102551000Y-61911000D02*
X100649000Y-61911000D01*
X100649000Y-60009000D01*
X102551000Y-60009000D01*
X102551000Y-61911000D01*
X102551000Y-61911000D01*
G37*
G36*
X110767396Y-60045546D02*
X110940466Y-60117234D01*
X111096230Y-60221312D01*
X111228688Y-60353770D01*
X111332766Y-60509534D01*
X111404454Y-60682604D01*
X111441000Y-60866333D01*
X111441000Y-61053667D01*
X111404454Y-61237396D01*
X111332766Y-61410466D01*
X111228688Y-61566230D01*
X111096230Y-61698688D01*
X110940466Y-61802766D01*
X110767396Y-61874454D01*
X110583667Y-61911000D01*
X110396333Y-61911000D01*
X110212604Y-61874454D01*
X110039534Y-61802766D01*
X109883770Y-61698688D01*
X109751312Y-61566230D01*
X109647234Y-61410466D01*
X109575546Y-61237396D01*
X109539000Y-61053667D01*
X109539000Y-60866333D01*
X109575546Y-60682604D01*
X109647234Y-60509534D01*
X109751312Y-60353770D01*
X109883770Y-60221312D01*
X110039534Y-60117234D01*
X110212604Y-60045546D01*
X110396333Y-60009000D01*
X110583667Y-60009000D01*
X110767396Y-60045546D01*
X110767396Y-60045546D01*
G37*
G36*
X104417396Y-60045546D02*
X104590466Y-60117234D01*
X104746230Y-60221312D01*
X104878688Y-60353770D01*
X104982766Y-60509534D01*
X105054454Y-60682604D01*
X105091000Y-60866333D01*
X105091000Y-61053667D01*
X105054454Y-61237396D01*
X104982766Y-61410466D01*
X104878688Y-61566230D01*
X104746230Y-61698688D01*
X104590466Y-61802766D01*
X104417396Y-61874454D01*
X104233667Y-61911000D01*
X104046333Y-61911000D01*
X103862604Y-61874454D01*
X103689534Y-61802766D01*
X103533770Y-61698688D01*
X103401312Y-61566230D01*
X103297234Y-61410466D01*
X103225546Y-61237396D01*
X103189000Y-61053667D01*
X103189000Y-60866333D01*
X103225546Y-60682604D01*
X103297234Y-60509534D01*
X103401312Y-60353770D01*
X103533770Y-60221312D01*
X103689534Y-60117234D01*
X103862604Y-60045546D01*
X104046333Y-60009000D01*
X104233667Y-60009000D01*
X104417396Y-60045546D01*
X104417396Y-60045546D01*
G37*
G36*
X108901000Y-61911000D02*
X106999000Y-61911000D01*
X106999000Y-60009000D01*
X108901000Y-60009000D01*
X108901000Y-61911000D01*
X108901000Y-61911000D01*
G37*
G36*
X57260442Y-60065518D02*
X57326627Y-60072037D01*
X57439853Y-60106384D01*
X57496467Y-60123557D01*
X57583311Y-60169977D01*
X57652991Y-60207222D01*
X57688729Y-60236552D01*
X57790186Y-60319814D01*
X57870369Y-60417519D01*
X57902778Y-60457009D01*
X57902779Y-60457011D01*
X57986443Y-60613533D01*
X58003616Y-60670147D01*
X58037963Y-60783373D01*
X58055359Y-60960000D01*
X58037963Y-61136627D01*
X58016243Y-61208228D01*
X57986443Y-61306467D01*
X57930853Y-61410467D01*
X57902778Y-61462991D01*
X57873448Y-61498729D01*
X57790186Y-61600186D01*
X57688729Y-61683448D01*
X57652991Y-61712778D01*
X57652989Y-61712779D01*
X57496467Y-61796443D01*
X57475622Y-61802766D01*
X57326627Y-61847963D01*
X57260443Y-61854481D01*
X57194260Y-61861000D01*
X57105740Y-61861000D01*
X57039557Y-61854481D01*
X56973373Y-61847963D01*
X56824378Y-61802766D01*
X56803533Y-61796443D01*
X56647011Y-61712779D01*
X56647009Y-61712778D01*
X56611271Y-61683448D01*
X56509814Y-61600186D01*
X56426552Y-61498729D01*
X56397222Y-61462991D01*
X56369147Y-61410467D01*
X56313557Y-61306467D01*
X56283757Y-61208228D01*
X56262037Y-61136627D01*
X56244641Y-60960000D01*
X56262037Y-60783373D01*
X56296384Y-60670147D01*
X56313557Y-60613533D01*
X56397221Y-60457011D01*
X56397222Y-60457009D01*
X56429631Y-60417519D01*
X56509814Y-60319814D01*
X56611271Y-60236552D01*
X56647009Y-60207222D01*
X56716689Y-60169977D01*
X56803533Y-60123557D01*
X56860147Y-60106384D01*
X56973373Y-60072037D01*
X57039558Y-60065518D01*
X57105740Y-60059000D01*
X57194260Y-60059000D01*
X57260442Y-60065518D01*
X57260442Y-60065518D01*
G37*
G36*
X72556821Y-60121313D02*
X72556824Y-60121314D01*
X72556825Y-60121314D01*
X72717239Y-60169975D01*
X72717241Y-60169976D01*
X72717244Y-60169977D01*
X72865078Y-60248995D01*
X72994659Y-60355341D01*
X73101005Y-60484922D01*
X73180023Y-60632756D01*
X73180024Y-60632759D01*
X73180025Y-60632761D01*
X73225713Y-60783375D01*
X73228687Y-60793179D01*
X73245117Y-60960000D01*
X73228687Y-61126821D01*
X73228686Y-61126824D01*
X73228686Y-61126825D01*
X73195145Y-61237396D01*
X73180023Y-61287244D01*
X73101005Y-61435078D01*
X72994659Y-61564659D01*
X72865078Y-61671005D01*
X72717244Y-61750023D01*
X72717241Y-61750024D01*
X72717239Y-61750025D01*
X72556825Y-61798686D01*
X72556824Y-61798686D01*
X72556821Y-61798687D01*
X72431804Y-61811000D01*
X72348196Y-61811000D01*
X72223179Y-61798687D01*
X72223176Y-61798686D01*
X72223175Y-61798686D01*
X72062761Y-61750025D01*
X72062759Y-61750024D01*
X72062756Y-61750023D01*
X71914922Y-61671005D01*
X71785341Y-61564659D01*
X71678995Y-61435078D01*
X71599977Y-61287244D01*
X71584856Y-61237396D01*
X71551314Y-61126825D01*
X71551314Y-61126824D01*
X71551313Y-61126821D01*
X71534883Y-60960000D01*
X71551313Y-60793179D01*
X71554287Y-60783375D01*
X71599975Y-60632761D01*
X71599976Y-60632759D01*
X71599977Y-60632756D01*
X71678995Y-60484922D01*
X71785341Y-60355341D01*
X71914922Y-60248995D01*
X72062756Y-60169977D01*
X72062759Y-60169976D01*
X72062761Y-60169975D01*
X72223175Y-60121314D01*
X72223176Y-60121314D01*
X72223179Y-60121313D01*
X72348196Y-60109000D01*
X72431804Y-60109000D01*
X72556821Y-60121313D01*
X72556821Y-60121313D01*
G37*
G36*
X62478228Y-60141703D02*
X62633100Y-60205853D01*
X62772481Y-60298985D01*
X62891015Y-60417519D01*
X62984147Y-60556900D01*
X63048297Y-60711772D01*
X63081000Y-60876184D01*
X63081000Y-61043816D01*
X63048297Y-61208228D01*
X62984147Y-61363100D01*
X62891015Y-61502481D01*
X62772481Y-61621015D01*
X62633100Y-61714147D01*
X62478228Y-61778297D01*
X62313816Y-61811000D01*
X62146184Y-61811000D01*
X61981772Y-61778297D01*
X61826900Y-61714147D01*
X61687519Y-61621015D01*
X61568985Y-61502481D01*
X61475853Y-61363100D01*
X61411703Y-61208228D01*
X61379000Y-61043816D01*
X61379000Y-60876184D01*
X61411703Y-60711772D01*
X61475853Y-60556900D01*
X61568985Y-60417519D01*
X61687519Y-60298985D01*
X61826900Y-60205853D01*
X61981772Y-60141703D01*
X62146184Y-60109000D01*
X62313816Y-60109000D01*
X62478228Y-60141703D01*
X62478228Y-60141703D01*
G37*
G36*
X57260443Y-57525519D02*
X57326627Y-57532037D01*
X57439853Y-57566384D01*
X57496467Y-57583557D01*
X57635087Y-57657652D01*
X57652991Y-57667222D01*
X57688729Y-57696552D01*
X57790186Y-57779814D01*
X57873448Y-57881271D01*
X57902778Y-57917009D01*
X57902779Y-57917011D01*
X57986443Y-58073533D01*
X57986443Y-58073534D01*
X58037963Y-58243373D01*
X58055359Y-58420000D01*
X58037963Y-58596627D01*
X58003616Y-58709853D01*
X57986443Y-58766467D01*
X57912348Y-58905087D01*
X57902778Y-58922991D01*
X57873448Y-58958729D01*
X57790186Y-59060186D01*
X57688729Y-59143448D01*
X57652991Y-59172778D01*
X57652989Y-59172779D01*
X57496467Y-59256443D01*
X57439853Y-59273616D01*
X57326627Y-59307963D01*
X57260442Y-59314482D01*
X57194260Y-59321000D01*
X57105740Y-59321000D01*
X57039558Y-59314482D01*
X56973373Y-59307963D01*
X56860147Y-59273616D01*
X56803533Y-59256443D01*
X56647011Y-59172779D01*
X56647009Y-59172778D01*
X56611271Y-59143448D01*
X56509814Y-59060186D01*
X56426552Y-58958729D01*
X56397222Y-58922991D01*
X56387652Y-58905087D01*
X56313557Y-58766467D01*
X56296384Y-58709853D01*
X56262037Y-58596627D01*
X56244641Y-58420000D01*
X56262037Y-58243373D01*
X56313557Y-58073534D01*
X56313557Y-58073533D01*
X56397221Y-57917011D01*
X56397222Y-57917009D01*
X56426552Y-57881271D01*
X56509814Y-57779814D01*
X56611271Y-57696552D01*
X56647009Y-57667222D01*
X56664913Y-57657652D01*
X56803533Y-57583557D01*
X56860147Y-57566384D01*
X56973373Y-57532037D01*
X57039557Y-57525519D01*
X57105740Y-57519000D01*
X57194260Y-57519000D01*
X57260443Y-57525519D01*
X57260443Y-57525519D01*
G37*
G36*
X57260443Y-54985519D02*
X57326627Y-54992037D01*
X57439853Y-55026384D01*
X57496467Y-55043557D01*
X57574146Y-55085078D01*
X57652991Y-55127222D01*
X57683769Y-55152481D01*
X57790186Y-55239814D01*
X57873448Y-55341271D01*
X57902778Y-55377009D01*
X57902779Y-55377011D01*
X57986443Y-55533533D01*
X57986443Y-55533534D01*
X58037963Y-55703373D01*
X58055359Y-55880000D01*
X58037963Y-56056627D01*
X58003616Y-56169853D01*
X57986443Y-56226467D01*
X57912348Y-56365087D01*
X57902778Y-56382991D01*
X57873448Y-56418729D01*
X57790186Y-56520186D01*
X57688729Y-56603448D01*
X57652991Y-56632778D01*
X57652989Y-56632779D01*
X57496467Y-56716443D01*
X57439853Y-56733616D01*
X57326627Y-56767963D01*
X57260443Y-56774481D01*
X57194260Y-56781000D01*
X57105740Y-56781000D01*
X57039557Y-56774481D01*
X56973373Y-56767963D01*
X56860147Y-56733616D01*
X56803533Y-56716443D01*
X56647011Y-56632779D01*
X56647009Y-56632778D01*
X56611271Y-56603448D01*
X56509814Y-56520186D01*
X56426552Y-56418729D01*
X56397222Y-56382991D01*
X56387652Y-56365087D01*
X56313557Y-56226467D01*
X56296384Y-56169853D01*
X56262037Y-56056627D01*
X56244641Y-55880000D01*
X56262037Y-55703373D01*
X56313557Y-55533534D01*
X56313557Y-55533533D01*
X56397221Y-55377011D01*
X56397222Y-55377009D01*
X56426552Y-55341271D01*
X56509814Y-55239814D01*
X56616231Y-55152481D01*
X56647009Y-55127222D01*
X56725854Y-55085078D01*
X56803533Y-55043557D01*
X56860147Y-55026384D01*
X56973373Y-54992037D01*
X57039557Y-54985519D01*
X57105740Y-54979000D01*
X57194260Y-54979000D01*
X57260443Y-54985519D01*
X57260443Y-54985519D01*
G37*
G36*
X85367396Y-53695546D02*
X85540466Y-53767234D01*
X85696230Y-53871312D01*
X85828688Y-54003770D01*
X85932766Y-54159534D01*
X86004454Y-54332604D01*
X86041000Y-54516333D01*
X86041000Y-54703667D01*
X86004454Y-54887396D01*
X85932766Y-55060466D01*
X85828688Y-55216230D01*
X85696230Y-55348688D01*
X85540466Y-55452766D01*
X85367396Y-55524454D01*
X85183667Y-55561000D01*
X84996333Y-55561000D01*
X84812604Y-55524454D01*
X84639534Y-55452766D01*
X84483770Y-55348688D01*
X84351312Y-55216230D01*
X84247234Y-55060466D01*
X84175546Y-54887396D01*
X84139000Y-54703667D01*
X84139000Y-54516333D01*
X84175546Y-54332604D01*
X84247234Y-54159534D01*
X84351312Y-54003770D01*
X84483770Y-53871312D01*
X84639534Y-53767234D01*
X84812604Y-53695546D01*
X84996333Y-53659000D01*
X85183667Y-53659000D01*
X85367396Y-53695546D01*
X85367396Y-53695546D01*
G37*
G36*
X79017396Y-53695546D02*
X79190466Y-53767234D01*
X79346230Y-53871312D01*
X79478688Y-54003770D01*
X79582766Y-54159534D01*
X79654454Y-54332604D01*
X79691000Y-54516333D01*
X79691000Y-54703667D01*
X79654454Y-54887396D01*
X79582766Y-55060466D01*
X79478688Y-55216230D01*
X79346230Y-55348688D01*
X79190466Y-55452766D01*
X79017396Y-55524454D01*
X78833667Y-55561000D01*
X78646333Y-55561000D01*
X78462604Y-55524454D01*
X78289534Y-55452766D01*
X78133770Y-55348688D01*
X78001312Y-55216230D01*
X77897234Y-55060466D01*
X77825546Y-54887396D01*
X77789000Y-54703667D01*
X77789000Y-54516333D01*
X77825546Y-54332604D01*
X77897234Y-54159534D01*
X78001312Y-54003770D01*
X78133770Y-53871312D01*
X78289534Y-53767234D01*
X78462604Y-53695546D01*
X78646333Y-53659000D01*
X78833667Y-53659000D01*
X79017396Y-53695546D01*
X79017396Y-53695546D01*
G37*
G36*
X121601000Y-55561000D02*
X119699000Y-55561000D01*
X119699000Y-53659000D01*
X121601000Y-53659000D01*
X121601000Y-55561000D01*
X121601000Y-55561000D01*
G37*
G36*
X89851000Y-55561000D02*
X87949000Y-55561000D01*
X87949000Y-53659000D01*
X89851000Y-53659000D01*
X89851000Y-55561000D01*
X89851000Y-55561000D01*
G37*
G36*
X83501000Y-55561000D02*
X81599000Y-55561000D01*
X81599000Y-53659000D01*
X83501000Y-53659000D01*
X83501000Y-55561000D01*
X83501000Y-55561000D01*
G37*
G36*
X123467396Y-53695546D02*
X123640466Y-53767234D01*
X123796230Y-53871312D01*
X123928688Y-54003770D01*
X124032766Y-54159534D01*
X124104454Y-54332604D01*
X124141000Y-54516333D01*
X124141000Y-54703667D01*
X124104454Y-54887396D01*
X124032766Y-55060466D01*
X123928688Y-55216230D01*
X123796230Y-55348688D01*
X123640466Y-55452766D01*
X123467396Y-55524454D01*
X123283667Y-55561000D01*
X123096333Y-55561000D01*
X122912604Y-55524454D01*
X122739534Y-55452766D01*
X122583770Y-55348688D01*
X122451312Y-55216230D01*
X122347234Y-55060466D01*
X122275546Y-54887396D01*
X122239000Y-54703667D01*
X122239000Y-54516333D01*
X122275546Y-54332604D01*
X122347234Y-54159534D01*
X122451312Y-54003770D01*
X122583770Y-53871312D01*
X122739534Y-53767234D01*
X122912604Y-53695546D01*
X123096333Y-53659000D01*
X123283667Y-53659000D01*
X123467396Y-53695546D01*
X123467396Y-53695546D01*
G37*
G36*
X117117396Y-53695546D02*
X117290466Y-53767234D01*
X117446230Y-53871312D01*
X117578688Y-54003770D01*
X117682766Y-54159534D01*
X117754454Y-54332604D01*
X117791000Y-54516333D01*
X117791000Y-54703667D01*
X117754454Y-54887396D01*
X117682766Y-55060466D01*
X117578688Y-55216230D01*
X117446230Y-55348688D01*
X117290466Y-55452766D01*
X117117396Y-55524454D01*
X116933667Y-55561000D01*
X116746333Y-55561000D01*
X116562604Y-55524454D01*
X116389534Y-55452766D01*
X116233770Y-55348688D01*
X116101312Y-55216230D01*
X115997234Y-55060466D01*
X115925546Y-54887396D01*
X115889000Y-54703667D01*
X115889000Y-54516333D01*
X115925546Y-54332604D01*
X115997234Y-54159534D01*
X116101312Y-54003770D01*
X116233770Y-53871312D01*
X116389534Y-53767234D01*
X116562604Y-53695546D01*
X116746333Y-53659000D01*
X116933667Y-53659000D01*
X117117396Y-53695546D01*
X117117396Y-53695546D01*
G37*
G36*
X115251000Y-55561000D02*
X113349000Y-55561000D01*
X113349000Y-53659000D01*
X115251000Y-53659000D01*
X115251000Y-55561000D01*
X115251000Y-55561000D01*
G37*
G36*
X98067396Y-53695546D02*
X98240466Y-53767234D01*
X98396230Y-53871312D01*
X98528688Y-54003770D01*
X98632766Y-54159534D01*
X98704454Y-54332604D01*
X98741000Y-54516333D01*
X98741000Y-54703667D01*
X98704454Y-54887396D01*
X98632766Y-55060466D01*
X98528688Y-55216230D01*
X98396230Y-55348688D01*
X98240466Y-55452766D01*
X98067396Y-55524454D01*
X97883667Y-55561000D01*
X97696333Y-55561000D01*
X97512604Y-55524454D01*
X97339534Y-55452766D01*
X97183770Y-55348688D01*
X97051312Y-55216230D01*
X96947234Y-55060466D01*
X96875546Y-54887396D01*
X96839000Y-54703667D01*
X96839000Y-54516333D01*
X96875546Y-54332604D01*
X96947234Y-54159534D01*
X97051312Y-54003770D01*
X97183770Y-53871312D01*
X97339534Y-53767234D01*
X97512604Y-53695546D01*
X97696333Y-53659000D01*
X97883667Y-53659000D01*
X98067396Y-53695546D01*
X98067396Y-53695546D01*
G37*
G36*
X96201000Y-55561000D02*
X94299000Y-55561000D01*
X94299000Y-53659000D01*
X96201000Y-53659000D01*
X96201000Y-55561000D01*
X96201000Y-55561000D01*
G37*
G36*
X77151000Y-55561000D02*
X75249000Y-55561000D01*
X75249000Y-53659000D01*
X77151000Y-53659000D01*
X77151000Y-55561000D01*
X77151000Y-55561000D01*
G37*
G36*
X91717396Y-53695546D02*
X91890466Y-53767234D01*
X92046230Y-53871312D01*
X92178688Y-54003770D01*
X92282766Y-54159534D01*
X92354454Y-54332604D01*
X92391000Y-54516333D01*
X92391000Y-54703667D01*
X92354454Y-54887396D01*
X92282766Y-55060466D01*
X92178688Y-55216230D01*
X92046230Y-55348688D01*
X91890466Y-55452766D01*
X91717396Y-55524454D01*
X91533667Y-55561000D01*
X91346333Y-55561000D01*
X91162604Y-55524454D01*
X90989534Y-55452766D01*
X90833770Y-55348688D01*
X90701312Y-55216230D01*
X90597234Y-55060466D01*
X90525546Y-54887396D01*
X90489000Y-54703667D01*
X90489000Y-54516333D01*
X90525546Y-54332604D01*
X90597234Y-54159534D01*
X90701312Y-54003770D01*
X90833770Y-53871312D01*
X90989534Y-53767234D01*
X91162604Y-53695546D01*
X91346333Y-53659000D01*
X91533667Y-53659000D01*
X91717396Y-53695546D01*
X91717396Y-53695546D01*
G37*
G36*
X102551000Y-55561000D02*
X100649000Y-55561000D01*
X100649000Y-53659000D01*
X102551000Y-53659000D01*
X102551000Y-55561000D01*
X102551000Y-55561000D01*
G37*
G36*
X110767396Y-53695546D02*
X110940466Y-53767234D01*
X111096230Y-53871312D01*
X111228688Y-54003770D01*
X111332766Y-54159534D01*
X111404454Y-54332604D01*
X111441000Y-54516333D01*
X111441000Y-54703667D01*
X111404454Y-54887396D01*
X111332766Y-55060466D01*
X111228688Y-55216230D01*
X111096230Y-55348688D01*
X110940466Y-55452766D01*
X110767396Y-55524454D01*
X110583667Y-55561000D01*
X110396333Y-55561000D01*
X110212604Y-55524454D01*
X110039534Y-55452766D01*
X109883770Y-55348688D01*
X109751312Y-55216230D01*
X109647234Y-55060466D01*
X109575546Y-54887396D01*
X109539000Y-54703667D01*
X109539000Y-54516333D01*
X109575546Y-54332604D01*
X109647234Y-54159534D01*
X109751312Y-54003770D01*
X109883770Y-53871312D01*
X110039534Y-53767234D01*
X110212604Y-53695546D01*
X110396333Y-53659000D01*
X110583667Y-53659000D01*
X110767396Y-53695546D01*
X110767396Y-53695546D01*
G37*
G36*
X108901000Y-55561000D02*
X106999000Y-55561000D01*
X106999000Y-53659000D01*
X108901000Y-53659000D01*
X108901000Y-55561000D01*
X108901000Y-55561000D01*
G37*
G36*
X104417396Y-53695546D02*
X104590466Y-53767234D01*
X104746230Y-53871312D01*
X104878688Y-54003770D01*
X104982766Y-54159534D01*
X105054454Y-54332604D01*
X105091000Y-54516333D01*
X105091000Y-54703667D01*
X105054454Y-54887396D01*
X104982766Y-55060466D01*
X104878688Y-55216230D01*
X104746230Y-55348688D01*
X104590466Y-55452766D01*
X104417396Y-55524454D01*
X104233667Y-55561000D01*
X104046333Y-55561000D01*
X103862604Y-55524454D01*
X103689534Y-55452766D01*
X103533770Y-55348688D01*
X103401312Y-55216230D01*
X103297234Y-55060466D01*
X103225546Y-54887396D01*
X103189000Y-54703667D01*
X103189000Y-54516333D01*
X103225546Y-54332604D01*
X103297234Y-54159534D01*
X103401312Y-54003770D01*
X103533770Y-53871312D01*
X103689534Y-53767234D01*
X103862604Y-53695546D01*
X104046333Y-53659000D01*
X104233667Y-53659000D01*
X104417396Y-53695546D01*
X104417396Y-53695546D01*
G37*
G36*
X72556821Y-53771313D02*
X72556824Y-53771314D01*
X72556825Y-53771314D01*
X72717239Y-53819975D01*
X72717241Y-53819976D01*
X72717244Y-53819977D01*
X72865078Y-53898995D01*
X72994659Y-54005341D01*
X73101005Y-54134922D01*
X73180023Y-54282756D01*
X73180024Y-54282759D01*
X73180025Y-54282761D01*
X73228686Y-54443175D01*
X73228687Y-54443179D01*
X73245117Y-54610000D01*
X73228687Y-54776821D01*
X73228686Y-54776824D01*
X73228686Y-54776825D01*
X73195145Y-54887396D01*
X73180023Y-54937244D01*
X73101005Y-55085078D01*
X72994659Y-55214659D01*
X72865078Y-55321005D01*
X72717244Y-55400023D01*
X72717241Y-55400024D01*
X72717239Y-55400025D01*
X72556825Y-55448686D01*
X72556824Y-55448686D01*
X72556821Y-55448687D01*
X72431804Y-55461000D01*
X72348196Y-55461000D01*
X72223179Y-55448687D01*
X72223176Y-55448686D01*
X72223175Y-55448686D01*
X72062761Y-55400025D01*
X72062759Y-55400024D01*
X72062756Y-55400023D01*
X71914922Y-55321005D01*
X71785341Y-55214659D01*
X71678995Y-55085078D01*
X71599977Y-54937244D01*
X71584856Y-54887396D01*
X71551314Y-54776825D01*
X71551314Y-54776824D01*
X71551313Y-54776821D01*
X71534883Y-54610000D01*
X71551313Y-54443179D01*
X71551314Y-54443175D01*
X71599975Y-54282761D01*
X71599976Y-54282759D01*
X71599977Y-54282756D01*
X71678995Y-54134922D01*
X71785341Y-54005341D01*
X71914922Y-53898995D01*
X72062756Y-53819977D01*
X72062759Y-53819976D01*
X72062761Y-53819975D01*
X72223175Y-53771314D01*
X72223176Y-53771314D01*
X72223179Y-53771313D01*
X72348196Y-53759000D01*
X72431804Y-53759000D01*
X72556821Y-53771313D01*
X72556821Y-53771313D01*
G37*
G36*
X62478228Y-53791703D02*
X62633100Y-53855853D01*
X62772481Y-53948985D01*
X62891015Y-54067519D01*
X62984147Y-54206900D01*
X63048297Y-54361772D01*
X63081000Y-54526184D01*
X63081000Y-54693816D01*
X63048297Y-54858228D01*
X62984147Y-55013100D01*
X62891015Y-55152481D01*
X62772481Y-55271015D01*
X62633100Y-55364147D01*
X62478228Y-55428297D01*
X62313816Y-55461000D01*
X62146184Y-55461000D01*
X61981772Y-55428297D01*
X61826900Y-55364147D01*
X61687519Y-55271015D01*
X61568985Y-55152481D01*
X61475853Y-55013100D01*
X61411703Y-54858228D01*
X61379000Y-54693816D01*
X61379000Y-54526184D01*
X61411703Y-54361772D01*
X61475853Y-54206900D01*
X61568985Y-54067519D01*
X61687519Y-53948985D01*
X61826900Y-53855853D01*
X61981772Y-53791703D01*
X62146184Y-53759000D01*
X62313816Y-53759000D01*
X62478228Y-53791703D01*
X62478228Y-53791703D01*
G37*
G36*
X57260443Y-52445519D02*
X57326627Y-52452037D01*
X57439853Y-52486384D01*
X57496467Y-52503557D01*
X57635087Y-52577652D01*
X57652991Y-52587222D01*
X57688729Y-52616552D01*
X57790186Y-52699814D01*
X57873448Y-52801271D01*
X57902778Y-52837009D01*
X57902779Y-52837011D01*
X57986443Y-52993533D01*
X57986443Y-52993534D01*
X58037963Y-53163373D01*
X58055359Y-53340000D01*
X58037963Y-53516627D01*
X58003616Y-53629853D01*
X57986443Y-53686467D01*
X57930192Y-53791703D01*
X57902778Y-53842991D01*
X57879537Y-53871310D01*
X57790186Y-53980186D01*
X57688729Y-54063448D01*
X57652991Y-54092778D01*
X57652989Y-54092779D01*
X57496467Y-54176443D01*
X57439853Y-54193616D01*
X57326627Y-54227963D01*
X57260442Y-54234482D01*
X57194260Y-54241000D01*
X57105740Y-54241000D01*
X57039558Y-54234482D01*
X56973373Y-54227963D01*
X56860147Y-54193616D01*
X56803533Y-54176443D01*
X56647011Y-54092779D01*
X56647009Y-54092778D01*
X56611271Y-54063448D01*
X56509814Y-53980186D01*
X56420463Y-53871310D01*
X56397222Y-53842991D01*
X56369808Y-53791703D01*
X56313557Y-53686467D01*
X56296384Y-53629853D01*
X56262037Y-53516627D01*
X56244641Y-53340000D01*
X56262037Y-53163373D01*
X56313557Y-52993534D01*
X56313557Y-52993533D01*
X56397221Y-52837011D01*
X56397222Y-52837009D01*
X56426552Y-52801271D01*
X56509814Y-52699814D01*
X56611271Y-52616552D01*
X56647009Y-52587222D01*
X56664913Y-52577652D01*
X56803533Y-52503557D01*
X56860147Y-52486384D01*
X56973373Y-52452037D01*
X57039558Y-52445518D01*
X57105740Y-52439000D01*
X57194260Y-52439000D01*
X57260443Y-52445519D01*
X57260443Y-52445519D01*
G37*
G36*
X58051000Y-51701000D02*
X56249000Y-51701000D01*
X56249000Y-49899000D01*
X58051000Y-49899000D01*
X58051000Y-51701000D01*
X58051000Y-51701000D01*
G37*
G36*
X85367396Y-47345546D02*
X85540466Y-47417234D01*
X85696230Y-47521312D01*
X85828688Y-47653770D01*
X85932766Y-47809534D01*
X86004454Y-47982604D01*
X86041000Y-48166333D01*
X86041000Y-48353667D01*
X86004454Y-48537396D01*
X85932766Y-48710466D01*
X85828688Y-48866230D01*
X85696230Y-48998688D01*
X85540466Y-49102766D01*
X85367396Y-49174454D01*
X85183667Y-49211000D01*
X84996333Y-49211000D01*
X84812604Y-49174454D01*
X84639534Y-49102766D01*
X84483770Y-48998688D01*
X84351312Y-48866230D01*
X84247234Y-48710466D01*
X84175546Y-48537396D01*
X84139000Y-48353667D01*
X84139000Y-48166333D01*
X84175546Y-47982604D01*
X84247234Y-47809534D01*
X84351312Y-47653770D01*
X84483770Y-47521312D01*
X84639534Y-47417234D01*
X84812604Y-47345546D01*
X84996333Y-47309000D01*
X85183667Y-47309000D01*
X85367396Y-47345546D01*
X85367396Y-47345546D01*
G37*
G36*
X117117396Y-47345546D02*
X117290466Y-47417234D01*
X117446230Y-47521312D01*
X117578688Y-47653770D01*
X117682766Y-47809534D01*
X117754454Y-47982604D01*
X117791000Y-48166333D01*
X117791000Y-48353667D01*
X117754454Y-48537396D01*
X117682766Y-48710466D01*
X117578688Y-48866230D01*
X117446230Y-48998688D01*
X117290466Y-49102766D01*
X117117396Y-49174454D01*
X116933667Y-49211000D01*
X116746333Y-49211000D01*
X116562604Y-49174454D01*
X116389534Y-49102766D01*
X116233770Y-48998688D01*
X116101312Y-48866230D01*
X115997234Y-48710466D01*
X115925546Y-48537396D01*
X115889000Y-48353667D01*
X115889000Y-48166333D01*
X115925546Y-47982604D01*
X115997234Y-47809534D01*
X116101312Y-47653770D01*
X116233770Y-47521312D01*
X116389534Y-47417234D01*
X116562604Y-47345546D01*
X116746333Y-47309000D01*
X116933667Y-47309000D01*
X117117396Y-47345546D01*
X117117396Y-47345546D01*
G37*
G36*
X121601000Y-49211000D02*
X119699000Y-49211000D01*
X119699000Y-47309000D01*
X121601000Y-47309000D01*
X121601000Y-49211000D01*
X121601000Y-49211000D01*
G37*
G36*
X123467396Y-47345546D02*
X123640466Y-47417234D01*
X123796230Y-47521312D01*
X123928688Y-47653770D01*
X124032766Y-47809534D01*
X124104454Y-47982604D01*
X124141000Y-48166333D01*
X124141000Y-48353667D01*
X124104454Y-48537396D01*
X124032766Y-48710466D01*
X123928688Y-48866230D01*
X123796230Y-48998688D01*
X123640466Y-49102766D01*
X123467396Y-49174454D01*
X123283667Y-49211000D01*
X123096333Y-49211000D01*
X122912604Y-49174454D01*
X122739534Y-49102766D01*
X122583770Y-48998688D01*
X122451312Y-48866230D01*
X122347234Y-48710466D01*
X122275546Y-48537396D01*
X122239000Y-48353667D01*
X122239000Y-48166333D01*
X122275546Y-47982604D01*
X122347234Y-47809534D01*
X122451312Y-47653770D01*
X122583770Y-47521312D01*
X122739534Y-47417234D01*
X122912604Y-47345546D01*
X123096333Y-47309000D01*
X123283667Y-47309000D01*
X123467396Y-47345546D01*
X123467396Y-47345546D01*
G37*
G36*
X77151000Y-49211000D02*
X75249000Y-49211000D01*
X75249000Y-47309000D01*
X77151000Y-47309000D01*
X77151000Y-49211000D01*
X77151000Y-49211000D01*
G37*
G36*
X79017396Y-47345546D02*
X79190466Y-47417234D01*
X79346230Y-47521312D01*
X79478688Y-47653770D01*
X79582766Y-47809534D01*
X79654454Y-47982604D01*
X79691000Y-48166333D01*
X79691000Y-48353667D01*
X79654454Y-48537396D01*
X79582766Y-48710466D01*
X79478688Y-48866230D01*
X79346230Y-48998688D01*
X79190466Y-49102766D01*
X79017396Y-49174454D01*
X78833667Y-49211000D01*
X78646333Y-49211000D01*
X78462604Y-49174454D01*
X78289534Y-49102766D01*
X78133770Y-48998688D01*
X78001312Y-48866230D01*
X77897234Y-48710466D01*
X77825546Y-48537396D01*
X77789000Y-48353667D01*
X77789000Y-48166333D01*
X77825546Y-47982604D01*
X77897234Y-47809534D01*
X78001312Y-47653770D01*
X78133770Y-47521312D01*
X78289534Y-47417234D01*
X78462604Y-47345546D01*
X78646333Y-47309000D01*
X78833667Y-47309000D01*
X79017396Y-47345546D01*
X79017396Y-47345546D01*
G37*
G36*
X83501000Y-49211000D02*
X81599000Y-49211000D01*
X81599000Y-47309000D01*
X83501000Y-47309000D01*
X83501000Y-49211000D01*
X83501000Y-49211000D01*
G37*
G36*
X89851000Y-49211000D02*
X87949000Y-49211000D01*
X87949000Y-47309000D01*
X89851000Y-47309000D01*
X89851000Y-49211000D01*
X89851000Y-49211000D01*
G37*
G36*
X104417396Y-47345546D02*
X104590466Y-47417234D01*
X104746230Y-47521312D01*
X104878688Y-47653770D01*
X104982766Y-47809534D01*
X105054454Y-47982604D01*
X105091000Y-48166333D01*
X105091000Y-48353667D01*
X105054454Y-48537396D01*
X104982766Y-48710466D01*
X104878688Y-48866230D01*
X104746230Y-48998688D01*
X104590466Y-49102766D01*
X104417396Y-49174454D01*
X104233667Y-49211000D01*
X104046333Y-49211000D01*
X103862604Y-49174454D01*
X103689534Y-49102766D01*
X103533770Y-48998688D01*
X103401312Y-48866230D01*
X103297234Y-48710466D01*
X103225546Y-48537396D01*
X103189000Y-48353667D01*
X103189000Y-48166333D01*
X103225546Y-47982604D01*
X103297234Y-47809534D01*
X103401312Y-47653770D01*
X103533770Y-47521312D01*
X103689534Y-47417234D01*
X103862604Y-47345546D01*
X104046333Y-47309000D01*
X104233667Y-47309000D01*
X104417396Y-47345546D01*
X104417396Y-47345546D01*
G37*
G36*
X102551000Y-49211000D02*
X100649000Y-49211000D01*
X100649000Y-47309000D01*
X102551000Y-47309000D01*
X102551000Y-49211000D01*
X102551000Y-49211000D01*
G37*
G36*
X98067396Y-47345546D02*
X98240466Y-47417234D01*
X98396230Y-47521312D01*
X98528688Y-47653770D01*
X98632766Y-47809534D01*
X98704454Y-47982604D01*
X98741000Y-48166333D01*
X98741000Y-48353667D01*
X98704454Y-48537396D01*
X98632766Y-48710466D01*
X98528688Y-48866230D01*
X98396230Y-48998688D01*
X98240466Y-49102766D01*
X98067396Y-49174454D01*
X97883667Y-49211000D01*
X97696333Y-49211000D01*
X97512604Y-49174454D01*
X97339534Y-49102766D01*
X97183770Y-48998688D01*
X97051312Y-48866230D01*
X96947234Y-48710466D01*
X96875546Y-48537396D01*
X96839000Y-48353667D01*
X96839000Y-48166333D01*
X96875546Y-47982604D01*
X96947234Y-47809534D01*
X97051312Y-47653770D01*
X97183770Y-47521312D01*
X97339534Y-47417234D01*
X97512604Y-47345546D01*
X97696333Y-47309000D01*
X97883667Y-47309000D01*
X98067396Y-47345546D01*
X98067396Y-47345546D01*
G37*
G36*
X96201000Y-49211000D02*
X94299000Y-49211000D01*
X94299000Y-47309000D01*
X96201000Y-47309000D01*
X96201000Y-49211000D01*
X96201000Y-49211000D01*
G37*
G36*
X108901000Y-49211000D02*
X106999000Y-49211000D01*
X106999000Y-47309000D01*
X108901000Y-47309000D01*
X108901000Y-49211000D01*
X108901000Y-49211000D01*
G37*
G36*
X115251000Y-49211000D02*
X113349000Y-49211000D01*
X113349000Y-47309000D01*
X115251000Y-47309000D01*
X115251000Y-49211000D01*
X115251000Y-49211000D01*
G37*
G36*
X91717396Y-47345546D02*
X91890466Y-47417234D01*
X92046230Y-47521312D01*
X92178688Y-47653770D01*
X92282766Y-47809534D01*
X92354454Y-47982604D01*
X92391000Y-48166333D01*
X92391000Y-48353667D01*
X92354454Y-48537396D01*
X92282766Y-48710466D01*
X92178688Y-48866230D01*
X92046230Y-48998688D01*
X91890466Y-49102766D01*
X91717396Y-49174454D01*
X91533667Y-49211000D01*
X91346333Y-49211000D01*
X91162604Y-49174454D01*
X90989534Y-49102766D01*
X90833770Y-48998688D01*
X90701312Y-48866230D01*
X90597234Y-48710466D01*
X90525546Y-48537396D01*
X90489000Y-48353667D01*
X90489000Y-48166333D01*
X90525546Y-47982604D01*
X90597234Y-47809534D01*
X90701312Y-47653770D01*
X90833770Y-47521312D01*
X90989534Y-47417234D01*
X91162604Y-47345546D01*
X91346333Y-47309000D01*
X91533667Y-47309000D01*
X91717396Y-47345546D01*
X91717396Y-47345546D01*
G37*
G36*
X110767396Y-47345546D02*
X110940466Y-47417234D01*
X111096230Y-47521312D01*
X111228688Y-47653770D01*
X111332766Y-47809534D01*
X111404454Y-47982604D01*
X111441000Y-48166333D01*
X111441000Y-48353667D01*
X111404454Y-48537396D01*
X111332766Y-48710466D01*
X111228688Y-48866230D01*
X111096230Y-48998688D01*
X110940466Y-49102766D01*
X110767396Y-49174454D01*
X110583667Y-49211000D01*
X110396333Y-49211000D01*
X110212604Y-49174454D01*
X110039534Y-49102766D01*
X109883770Y-48998688D01*
X109751312Y-48866230D01*
X109647234Y-48710466D01*
X109575546Y-48537396D01*
X109539000Y-48353667D01*
X109539000Y-48166333D01*
X109575546Y-47982604D01*
X109647234Y-47809534D01*
X109751312Y-47653770D01*
X109883770Y-47521312D01*
X110039534Y-47417234D01*
X110212604Y-47345546D01*
X110396333Y-47309000D01*
X110583667Y-47309000D01*
X110767396Y-47345546D01*
X110767396Y-47345546D01*
G37*
G36*
X62478228Y-47441703D02*
X62633100Y-47505853D01*
X62772481Y-47598985D01*
X62891015Y-47717519D01*
X62984147Y-47856900D01*
X63048297Y-48011772D01*
X63081000Y-48176184D01*
X63081000Y-48343816D01*
X63048297Y-48508228D01*
X62984147Y-48663100D01*
X62891015Y-48802481D01*
X62772481Y-48921015D01*
X62633100Y-49014147D01*
X62478228Y-49078297D01*
X62313816Y-49111000D01*
X62146184Y-49111000D01*
X61981772Y-49078297D01*
X61826900Y-49014147D01*
X61687519Y-48921015D01*
X61568985Y-48802481D01*
X61475853Y-48663100D01*
X61411703Y-48508228D01*
X61379000Y-48343816D01*
X61379000Y-48176184D01*
X61411703Y-48011772D01*
X61475853Y-47856900D01*
X61568985Y-47717519D01*
X61687519Y-47598985D01*
X61826900Y-47505853D01*
X61981772Y-47441703D01*
X62146184Y-47409000D01*
X62313816Y-47409000D01*
X62478228Y-47441703D01*
X62478228Y-47441703D01*
G37*
G36*
X72556821Y-47421313D02*
X72556824Y-47421314D01*
X72556825Y-47421314D01*
X72717239Y-47469975D01*
X72717241Y-47469976D01*
X72717244Y-47469977D01*
X72865078Y-47548995D01*
X72994659Y-47655341D01*
X73101005Y-47784922D01*
X73180023Y-47932756D01*
X73180024Y-47932759D01*
X73180025Y-47932761D01*
X73228686Y-48093175D01*
X73228687Y-48093179D01*
X73245117Y-48260000D01*
X73228687Y-48426821D01*
X73228686Y-48426824D01*
X73228686Y-48426825D01*
X73195145Y-48537396D01*
X73180023Y-48587244D01*
X73101005Y-48735078D01*
X72994659Y-48864659D01*
X72865078Y-48971005D01*
X72717244Y-49050023D01*
X72717241Y-49050024D01*
X72717239Y-49050025D01*
X72556825Y-49098686D01*
X72556824Y-49098686D01*
X72556821Y-49098687D01*
X72431804Y-49111000D01*
X72348196Y-49111000D01*
X72223179Y-49098687D01*
X72223176Y-49098686D01*
X72223175Y-49098686D01*
X72062761Y-49050025D01*
X72062759Y-49050024D01*
X72062756Y-49050023D01*
X71914922Y-48971005D01*
X71785341Y-48864659D01*
X71678995Y-48735078D01*
X71599977Y-48587244D01*
X71584856Y-48537396D01*
X71551314Y-48426825D01*
X71551314Y-48426824D01*
X71551313Y-48426821D01*
X71534883Y-48260000D01*
X71551313Y-48093179D01*
X71551314Y-48093175D01*
X71599975Y-47932761D01*
X71599976Y-47932759D01*
X71599977Y-47932756D01*
X71678995Y-47784922D01*
X71785341Y-47655341D01*
X71914922Y-47548995D01*
X72062756Y-47469977D01*
X72062759Y-47469976D01*
X72062761Y-47469975D01*
X72223175Y-47421314D01*
X72223176Y-47421314D01*
X72223179Y-47421313D01*
X72348196Y-47409000D01*
X72431804Y-47409000D01*
X72556821Y-47421313D01*
X72556821Y-47421313D01*
G37*
G36*
X77151000Y-42861000D02*
X75249000Y-42861000D01*
X75249000Y-40959000D01*
X77151000Y-40959000D01*
X77151000Y-42861000D01*
X77151000Y-42861000D01*
G37*
G36*
X79017396Y-40995546D02*
X79190466Y-41067234D01*
X79346230Y-41171312D01*
X79478688Y-41303770D01*
X79582766Y-41459534D01*
X79654454Y-41632604D01*
X79691000Y-41816333D01*
X79691000Y-42003667D01*
X79654454Y-42187396D01*
X79582766Y-42360466D01*
X79478688Y-42516230D01*
X79346230Y-42648688D01*
X79190466Y-42752766D01*
X79017396Y-42824454D01*
X78833667Y-42861000D01*
X78646333Y-42861000D01*
X78462604Y-42824454D01*
X78289534Y-42752766D01*
X78133770Y-42648688D01*
X78001312Y-42516230D01*
X77897234Y-42360466D01*
X77825546Y-42187396D01*
X77789000Y-42003667D01*
X77789000Y-41816333D01*
X77825546Y-41632604D01*
X77897234Y-41459534D01*
X78001312Y-41303770D01*
X78133770Y-41171312D01*
X78289534Y-41067234D01*
X78462604Y-40995546D01*
X78646333Y-40959000D01*
X78833667Y-40959000D01*
X79017396Y-40995546D01*
X79017396Y-40995546D01*
G37*
G36*
X83501000Y-42861000D02*
X81599000Y-42861000D01*
X81599000Y-40959000D01*
X83501000Y-40959000D01*
X83501000Y-42861000D01*
X83501000Y-42861000D01*
G37*
G36*
X121601000Y-42861000D02*
X119699000Y-42861000D01*
X119699000Y-40959000D01*
X121601000Y-40959000D01*
X121601000Y-42861000D01*
X121601000Y-42861000D01*
G37*
G36*
X110767396Y-40995546D02*
X110940466Y-41067234D01*
X111096230Y-41171312D01*
X111228688Y-41303770D01*
X111332766Y-41459534D01*
X111404454Y-41632604D01*
X111441000Y-41816333D01*
X111441000Y-42003667D01*
X111404454Y-42187396D01*
X111332766Y-42360466D01*
X111228688Y-42516230D01*
X111096230Y-42648688D01*
X110940466Y-42752766D01*
X110767396Y-42824454D01*
X110583667Y-42861000D01*
X110396333Y-42861000D01*
X110212604Y-42824454D01*
X110039534Y-42752766D01*
X109883770Y-42648688D01*
X109751312Y-42516230D01*
X109647234Y-42360466D01*
X109575546Y-42187396D01*
X109539000Y-42003667D01*
X109539000Y-41816333D01*
X109575546Y-41632604D01*
X109647234Y-41459534D01*
X109751312Y-41303770D01*
X109883770Y-41171312D01*
X110039534Y-41067234D01*
X110212604Y-40995546D01*
X110396333Y-40959000D01*
X110583667Y-40959000D01*
X110767396Y-40995546D01*
X110767396Y-40995546D01*
G37*
G36*
X102551000Y-42861000D02*
X100649000Y-42861000D01*
X100649000Y-40959000D01*
X102551000Y-40959000D01*
X102551000Y-42861000D01*
X102551000Y-42861000D01*
G37*
G36*
X108901000Y-42861000D02*
X106999000Y-42861000D01*
X106999000Y-40959000D01*
X108901000Y-40959000D01*
X108901000Y-42861000D01*
X108901000Y-42861000D01*
G37*
G36*
X91717396Y-40995546D02*
X91890466Y-41067234D01*
X92046230Y-41171312D01*
X92178688Y-41303770D01*
X92282766Y-41459534D01*
X92354454Y-41632604D01*
X92391000Y-41816333D01*
X92391000Y-42003667D01*
X92354454Y-42187396D01*
X92282766Y-42360466D01*
X92178688Y-42516230D01*
X92046230Y-42648688D01*
X91890466Y-42752766D01*
X91717396Y-42824454D01*
X91533667Y-42861000D01*
X91346333Y-42861000D01*
X91162604Y-42824454D01*
X90989534Y-42752766D01*
X90833770Y-42648688D01*
X90701312Y-42516230D01*
X90597234Y-42360466D01*
X90525546Y-42187396D01*
X90489000Y-42003667D01*
X90489000Y-41816333D01*
X90525546Y-41632604D01*
X90597234Y-41459534D01*
X90701312Y-41303770D01*
X90833770Y-41171312D01*
X90989534Y-41067234D01*
X91162604Y-40995546D01*
X91346333Y-40959000D01*
X91533667Y-40959000D01*
X91717396Y-40995546D01*
X91717396Y-40995546D01*
G37*
G36*
X123467396Y-40995546D02*
X123640466Y-41067234D01*
X123796230Y-41171312D01*
X123928688Y-41303770D01*
X124032766Y-41459534D01*
X124104454Y-41632604D01*
X124141000Y-41816333D01*
X124141000Y-42003667D01*
X124104454Y-42187396D01*
X124032766Y-42360466D01*
X123928688Y-42516230D01*
X123796230Y-42648688D01*
X123640466Y-42752766D01*
X123467396Y-42824454D01*
X123283667Y-42861000D01*
X123096333Y-42861000D01*
X122912604Y-42824454D01*
X122739534Y-42752766D01*
X122583770Y-42648688D01*
X122451312Y-42516230D01*
X122347234Y-42360466D01*
X122275546Y-42187396D01*
X122239000Y-42003667D01*
X122239000Y-41816333D01*
X122275546Y-41632604D01*
X122347234Y-41459534D01*
X122451312Y-41303770D01*
X122583770Y-41171312D01*
X122739534Y-41067234D01*
X122912604Y-40995546D01*
X123096333Y-40959000D01*
X123283667Y-40959000D01*
X123467396Y-40995546D01*
X123467396Y-40995546D01*
G37*
G36*
X96201000Y-42861000D02*
X94299000Y-42861000D01*
X94299000Y-40959000D01*
X96201000Y-40959000D01*
X96201000Y-42861000D01*
X96201000Y-42861000D01*
G37*
G36*
X98067396Y-40995546D02*
X98240466Y-41067234D01*
X98396230Y-41171312D01*
X98528688Y-41303770D01*
X98632766Y-41459534D01*
X98704454Y-41632604D01*
X98741000Y-41816333D01*
X98741000Y-42003667D01*
X98704454Y-42187396D01*
X98632766Y-42360466D01*
X98528688Y-42516230D01*
X98396230Y-42648688D01*
X98240466Y-42752766D01*
X98067396Y-42824454D01*
X97883667Y-42861000D01*
X97696333Y-42861000D01*
X97512604Y-42824454D01*
X97339534Y-42752766D01*
X97183770Y-42648688D01*
X97051312Y-42516230D01*
X96947234Y-42360466D01*
X96875546Y-42187396D01*
X96839000Y-42003667D01*
X96839000Y-41816333D01*
X96875546Y-41632604D01*
X96947234Y-41459534D01*
X97051312Y-41303770D01*
X97183770Y-41171312D01*
X97339534Y-41067234D01*
X97512604Y-40995546D01*
X97696333Y-40959000D01*
X97883667Y-40959000D01*
X98067396Y-40995546D01*
X98067396Y-40995546D01*
G37*
G36*
X117117396Y-40995546D02*
X117290466Y-41067234D01*
X117446230Y-41171312D01*
X117578688Y-41303770D01*
X117682766Y-41459534D01*
X117754454Y-41632604D01*
X117791000Y-41816333D01*
X117791000Y-42003667D01*
X117754454Y-42187396D01*
X117682766Y-42360466D01*
X117578688Y-42516230D01*
X117446230Y-42648688D01*
X117290466Y-42752766D01*
X117117396Y-42824454D01*
X116933667Y-42861000D01*
X116746333Y-42861000D01*
X116562604Y-42824454D01*
X116389534Y-42752766D01*
X116233770Y-42648688D01*
X116101312Y-42516230D01*
X115997234Y-42360466D01*
X115925546Y-42187396D01*
X115889000Y-42003667D01*
X115889000Y-41816333D01*
X115925546Y-41632604D01*
X115997234Y-41459534D01*
X116101312Y-41303770D01*
X116233770Y-41171312D01*
X116389534Y-41067234D01*
X116562604Y-40995546D01*
X116746333Y-40959000D01*
X116933667Y-40959000D01*
X117117396Y-40995546D01*
X117117396Y-40995546D01*
G37*
G36*
X104417396Y-40995546D02*
X104590466Y-41067234D01*
X104746230Y-41171312D01*
X104878688Y-41303770D01*
X104982766Y-41459534D01*
X105054454Y-41632604D01*
X105091000Y-41816333D01*
X105091000Y-42003667D01*
X105054454Y-42187396D01*
X104982766Y-42360466D01*
X104878688Y-42516230D01*
X104746230Y-42648688D01*
X104590466Y-42752766D01*
X104417396Y-42824454D01*
X104233667Y-42861000D01*
X104046333Y-42861000D01*
X103862604Y-42824454D01*
X103689534Y-42752766D01*
X103533770Y-42648688D01*
X103401312Y-42516230D01*
X103297234Y-42360466D01*
X103225546Y-42187396D01*
X103189000Y-42003667D01*
X103189000Y-41816333D01*
X103225546Y-41632604D01*
X103297234Y-41459534D01*
X103401312Y-41303770D01*
X103533770Y-41171312D01*
X103689534Y-41067234D01*
X103862604Y-40995546D01*
X104046333Y-40959000D01*
X104233667Y-40959000D01*
X104417396Y-40995546D01*
X104417396Y-40995546D01*
G37*
G36*
X85367396Y-40995546D02*
X85540466Y-41067234D01*
X85696230Y-41171312D01*
X85828688Y-41303770D01*
X85932766Y-41459534D01*
X86004454Y-41632604D01*
X86041000Y-41816333D01*
X86041000Y-42003667D01*
X86004454Y-42187396D01*
X85932766Y-42360466D01*
X85828688Y-42516230D01*
X85696230Y-42648688D01*
X85540466Y-42752766D01*
X85367396Y-42824454D01*
X85183667Y-42861000D01*
X84996333Y-42861000D01*
X84812604Y-42824454D01*
X84639534Y-42752766D01*
X84483770Y-42648688D01*
X84351312Y-42516230D01*
X84247234Y-42360466D01*
X84175546Y-42187396D01*
X84139000Y-42003667D01*
X84139000Y-41816333D01*
X84175546Y-41632604D01*
X84247234Y-41459534D01*
X84351312Y-41303770D01*
X84483770Y-41171312D01*
X84639534Y-41067234D01*
X84812604Y-40995546D01*
X84996333Y-40959000D01*
X85183667Y-40959000D01*
X85367396Y-40995546D01*
X85367396Y-40995546D01*
G37*
G36*
X89851000Y-42861000D02*
X87949000Y-42861000D01*
X87949000Y-40959000D01*
X89851000Y-40959000D01*
X89851000Y-42861000D01*
X89851000Y-42861000D01*
G37*
G36*
X115251000Y-42861000D02*
X113349000Y-42861000D01*
X113349000Y-40959000D01*
X115251000Y-40959000D01*
X115251000Y-42861000D01*
X115251000Y-42861000D01*
G37*
G36*
X72556821Y-41071313D02*
X72556824Y-41071314D01*
X72556825Y-41071314D01*
X72717239Y-41119975D01*
X72717241Y-41119976D01*
X72717244Y-41119977D01*
X72865078Y-41198995D01*
X72994659Y-41305341D01*
X73101005Y-41434922D01*
X73180023Y-41582756D01*
X73180024Y-41582759D01*
X73180025Y-41582761D01*
X73228686Y-41743175D01*
X73228687Y-41743179D01*
X73245117Y-41910000D01*
X73228687Y-42076821D01*
X73228686Y-42076824D01*
X73228686Y-42076825D01*
X73195145Y-42187396D01*
X73180023Y-42237244D01*
X73101005Y-42385078D01*
X72994659Y-42514659D01*
X72865078Y-42621005D01*
X72717244Y-42700023D01*
X72717241Y-42700024D01*
X72717239Y-42700025D01*
X72556825Y-42748686D01*
X72556824Y-42748686D01*
X72556821Y-42748687D01*
X72431804Y-42761000D01*
X72348196Y-42761000D01*
X72223179Y-42748687D01*
X72223176Y-42748686D01*
X72223175Y-42748686D01*
X72062761Y-42700025D01*
X72062759Y-42700024D01*
X72062756Y-42700023D01*
X71914922Y-42621005D01*
X71785341Y-42514659D01*
X71678995Y-42385078D01*
X71599977Y-42237244D01*
X71584856Y-42187396D01*
X71551314Y-42076825D01*
X71551314Y-42076824D01*
X71551313Y-42076821D01*
X71534883Y-41910000D01*
X71551313Y-41743179D01*
X71551314Y-41743175D01*
X71599975Y-41582761D01*
X71599976Y-41582759D01*
X71599977Y-41582756D01*
X71678995Y-41434922D01*
X71785341Y-41305341D01*
X71914922Y-41198995D01*
X72062756Y-41119977D01*
X72062759Y-41119976D01*
X72062761Y-41119975D01*
X72223175Y-41071314D01*
X72223176Y-41071314D01*
X72223179Y-41071313D01*
X72348196Y-41059000D01*
X72431804Y-41059000D01*
X72556821Y-41071313D01*
X72556821Y-41071313D01*
G37*
G36*
X62478228Y-41091703D02*
X62633100Y-41155853D01*
X62772481Y-41248985D01*
X62891015Y-41367519D01*
X62984147Y-41506900D01*
X63048297Y-41661772D01*
X63081000Y-41826184D01*
X63081000Y-41993816D01*
X63048297Y-42158228D01*
X62984147Y-42313100D01*
X62891015Y-42452481D01*
X62772481Y-42571015D01*
X62633100Y-42664147D01*
X62478228Y-42728297D01*
X62313816Y-42761000D01*
X62146184Y-42761000D01*
X61981772Y-42728297D01*
X61826900Y-42664147D01*
X61687519Y-42571015D01*
X61568985Y-42452481D01*
X61475853Y-42313100D01*
X61411703Y-42158228D01*
X61379000Y-41993816D01*
X61379000Y-41826184D01*
X61411703Y-41661772D01*
X61475853Y-41506900D01*
X61568985Y-41367519D01*
X61687519Y-41248985D01*
X61826900Y-41155853D01*
X61981772Y-41091703D01*
X62146184Y-41059000D01*
X62313816Y-41059000D01*
X62478228Y-41091703D01*
X62478228Y-41091703D01*
G37*
G36*
X115251000Y-36511000D02*
X113349000Y-36511000D01*
X113349000Y-34609000D01*
X115251000Y-34609000D01*
X115251000Y-36511000D01*
X115251000Y-36511000D01*
G37*
G36*
X96201000Y-36511000D02*
X94299000Y-36511000D01*
X94299000Y-34609000D01*
X96201000Y-34609000D01*
X96201000Y-36511000D01*
X96201000Y-36511000D01*
G37*
G36*
X104417396Y-34645546D02*
X104590466Y-34717234D01*
X104746230Y-34821312D01*
X104878688Y-34953770D01*
X104982766Y-35109534D01*
X105054454Y-35282604D01*
X105091000Y-35466333D01*
X105091000Y-35653667D01*
X105054454Y-35837396D01*
X104982766Y-36010466D01*
X104878688Y-36166230D01*
X104746230Y-36298688D01*
X104590466Y-36402766D01*
X104417396Y-36474454D01*
X104233667Y-36511000D01*
X104046333Y-36511000D01*
X103862604Y-36474454D01*
X103689534Y-36402766D01*
X103533770Y-36298688D01*
X103401312Y-36166230D01*
X103297234Y-36010466D01*
X103225546Y-35837396D01*
X103189000Y-35653667D01*
X103189000Y-35466333D01*
X103225546Y-35282604D01*
X103297234Y-35109534D01*
X103401312Y-34953770D01*
X103533770Y-34821312D01*
X103689534Y-34717234D01*
X103862604Y-34645546D01*
X104046333Y-34609000D01*
X104233667Y-34609000D01*
X104417396Y-34645546D01*
X104417396Y-34645546D01*
G37*
G36*
X102551000Y-36511000D02*
X100649000Y-36511000D01*
X100649000Y-34609000D01*
X102551000Y-34609000D01*
X102551000Y-36511000D01*
X102551000Y-36511000D01*
G37*
G36*
X123467396Y-34645546D02*
X123640466Y-34717234D01*
X123796230Y-34821312D01*
X123928688Y-34953770D01*
X124032766Y-35109534D01*
X124104454Y-35282604D01*
X124141000Y-35466333D01*
X124141000Y-35653667D01*
X124104454Y-35837396D01*
X124032766Y-36010466D01*
X123928688Y-36166230D01*
X123796230Y-36298688D01*
X123640466Y-36402766D01*
X123467396Y-36474454D01*
X123283667Y-36511000D01*
X123096333Y-36511000D01*
X122912604Y-36474454D01*
X122739534Y-36402766D01*
X122583770Y-36298688D01*
X122451312Y-36166230D01*
X122347234Y-36010466D01*
X122275546Y-35837396D01*
X122239000Y-35653667D01*
X122239000Y-35466333D01*
X122275546Y-35282604D01*
X122347234Y-35109534D01*
X122451312Y-34953770D01*
X122583770Y-34821312D01*
X122739534Y-34717234D01*
X122912604Y-34645546D01*
X123096333Y-34609000D01*
X123283667Y-34609000D01*
X123467396Y-34645546D01*
X123467396Y-34645546D01*
G37*
G36*
X121601000Y-36511000D02*
X119699000Y-36511000D01*
X119699000Y-34609000D01*
X121601000Y-34609000D01*
X121601000Y-36511000D01*
X121601000Y-36511000D01*
G37*
G36*
X117117396Y-34645546D02*
X117290466Y-34717234D01*
X117446230Y-34821312D01*
X117578688Y-34953770D01*
X117682766Y-35109534D01*
X117754454Y-35282604D01*
X117791000Y-35466333D01*
X117791000Y-35653667D01*
X117754454Y-35837396D01*
X117682766Y-36010466D01*
X117578688Y-36166230D01*
X117446230Y-36298688D01*
X117290466Y-36402766D01*
X117117396Y-36474454D01*
X116933667Y-36511000D01*
X116746333Y-36511000D01*
X116562604Y-36474454D01*
X116389534Y-36402766D01*
X116233770Y-36298688D01*
X116101312Y-36166230D01*
X115997234Y-36010466D01*
X115925546Y-35837396D01*
X115889000Y-35653667D01*
X115889000Y-35466333D01*
X115925546Y-35282604D01*
X115997234Y-35109534D01*
X116101312Y-34953770D01*
X116233770Y-34821312D01*
X116389534Y-34717234D01*
X116562604Y-34645546D01*
X116746333Y-34609000D01*
X116933667Y-34609000D01*
X117117396Y-34645546D01*
X117117396Y-34645546D01*
G37*
G36*
X108901000Y-36511000D02*
X106999000Y-36511000D01*
X106999000Y-34609000D01*
X108901000Y-34609000D01*
X108901000Y-36511000D01*
X108901000Y-36511000D01*
G37*
G36*
X77151000Y-36511000D02*
X75249000Y-36511000D01*
X75249000Y-34609000D01*
X77151000Y-34609000D01*
X77151000Y-36511000D01*
X77151000Y-36511000D01*
G37*
G36*
X79017396Y-34645546D02*
X79190466Y-34717234D01*
X79346230Y-34821312D01*
X79478688Y-34953770D01*
X79582766Y-35109534D01*
X79654454Y-35282604D01*
X79691000Y-35466333D01*
X79691000Y-35653667D01*
X79654454Y-35837396D01*
X79582766Y-36010466D01*
X79478688Y-36166230D01*
X79346230Y-36298688D01*
X79190466Y-36402766D01*
X79017396Y-36474454D01*
X78833667Y-36511000D01*
X78646333Y-36511000D01*
X78462604Y-36474454D01*
X78289534Y-36402766D01*
X78133770Y-36298688D01*
X78001312Y-36166230D01*
X77897234Y-36010466D01*
X77825546Y-35837396D01*
X77789000Y-35653667D01*
X77789000Y-35466333D01*
X77825546Y-35282604D01*
X77897234Y-35109534D01*
X78001312Y-34953770D01*
X78133770Y-34821312D01*
X78289534Y-34717234D01*
X78462604Y-34645546D01*
X78646333Y-34609000D01*
X78833667Y-34609000D01*
X79017396Y-34645546D01*
X79017396Y-34645546D01*
G37*
G36*
X83501000Y-36511000D02*
X81599000Y-36511000D01*
X81599000Y-34609000D01*
X83501000Y-34609000D01*
X83501000Y-36511000D01*
X83501000Y-36511000D01*
G37*
G36*
X85367396Y-34645546D02*
X85540466Y-34717234D01*
X85696230Y-34821312D01*
X85828688Y-34953770D01*
X85932766Y-35109534D01*
X86004454Y-35282604D01*
X86041000Y-35466333D01*
X86041000Y-35653667D01*
X86004454Y-35837396D01*
X85932766Y-36010466D01*
X85828688Y-36166230D01*
X85696230Y-36298688D01*
X85540466Y-36402766D01*
X85367396Y-36474454D01*
X85183667Y-36511000D01*
X84996333Y-36511000D01*
X84812604Y-36474454D01*
X84639534Y-36402766D01*
X84483770Y-36298688D01*
X84351312Y-36166230D01*
X84247234Y-36010466D01*
X84175546Y-35837396D01*
X84139000Y-35653667D01*
X84139000Y-35466333D01*
X84175546Y-35282604D01*
X84247234Y-35109534D01*
X84351312Y-34953770D01*
X84483770Y-34821312D01*
X84639534Y-34717234D01*
X84812604Y-34645546D01*
X84996333Y-34609000D01*
X85183667Y-34609000D01*
X85367396Y-34645546D01*
X85367396Y-34645546D01*
G37*
G36*
X98067396Y-34645546D02*
X98240466Y-34717234D01*
X98396230Y-34821312D01*
X98528688Y-34953770D01*
X98632766Y-35109534D01*
X98704454Y-35282604D01*
X98741000Y-35466333D01*
X98741000Y-35653667D01*
X98704454Y-35837396D01*
X98632766Y-36010466D01*
X98528688Y-36166230D01*
X98396230Y-36298688D01*
X98240466Y-36402766D01*
X98067396Y-36474454D01*
X97883667Y-36511000D01*
X97696333Y-36511000D01*
X97512604Y-36474454D01*
X97339534Y-36402766D01*
X97183770Y-36298688D01*
X97051312Y-36166230D01*
X96947234Y-36010466D01*
X96875546Y-35837396D01*
X96839000Y-35653667D01*
X96839000Y-35466333D01*
X96875546Y-35282604D01*
X96947234Y-35109534D01*
X97051312Y-34953770D01*
X97183770Y-34821312D01*
X97339534Y-34717234D01*
X97512604Y-34645546D01*
X97696333Y-34609000D01*
X97883667Y-34609000D01*
X98067396Y-34645546D01*
X98067396Y-34645546D01*
G37*
G36*
X89851000Y-36511000D02*
X87949000Y-36511000D01*
X87949000Y-34609000D01*
X89851000Y-34609000D01*
X89851000Y-36511000D01*
X89851000Y-36511000D01*
G37*
G36*
X91717396Y-34645546D02*
X91890466Y-34717234D01*
X92046230Y-34821312D01*
X92178688Y-34953770D01*
X92282766Y-35109534D01*
X92354454Y-35282604D01*
X92391000Y-35466333D01*
X92391000Y-35653667D01*
X92354454Y-35837396D01*
X92282766Y-36010466D01*
X92178688Y-36166230D01*
X92046230Y-36298688D01*
X91890466Y-36402766D01*
X91717396Y-36474454D01*
X91533667Y-36511000D01*
X91346333Y-36511000D01*
X91162604Y-36474454D01*
X90989534Y-36402766D01*
X90833770Y-36298688D01*
X90701312Y-36166230D01*
X90597234Y-36010466D01*
X90525546Y-35837396D01*
X90489000Y-35653667D01*
X90489000Y-35466333D01*
X90525546Y-35282604D01*
X90597234Y-35109534D01*
X90701312Y-34953770D01*
X90833770Y-34821312D01*
X90989534Y-34717234D01*
X91162604Y-34645546D01*
X91346333Y-34609000D01*
X91533667Y-34609000D01*
X91717396Y-34645546D01*
X91717396Y-34645546D01*
G37*
G36*
X110767396Y-34645546D02*
X110940466Y-34717234D01*
X111096230Y-34821312D01*
X111228688Y-34953770D01*
X111332766Y-35109534D01*
X111404454Y-35282604D01*
X111441000Y-35466333D01*
X111441000Y-35653667D01*
X111404454Y-35837396D01*
X111332766Y-36010466D01*
X111228688Y-36166230D01*
X111096230Y-36298688D01*
X110940466Y-36402766D01*
X110767396Y-36474454D01*
X110583667Y-36511000D01*
X110396333Y-36511000D01*
X110212604Y-36474454D01*
X110039534Y-36402766D01*
X109883770Y-36298688D01*
X109751312Y-36166230D01*
X109647234Y-36010466D01*
X109575546Y-35837396D01*
X109539000Y-35653667D01*
X109539000Y-35466333D01*
X109575546Y-35282604D01*
X109647234Y-35109534D01*
X109751312Y-34953770D01*
X109883770Y-34821312D01*
X110039534Y-34717234D01*
X110212604Y-34645546D01*
X110396333Y-34609000D01*
X110583667Y-34609000D01*
X110767396Y-34645546D01*
X110767396Y-34645546D01*
G37*
G36*
X62478228Y-34741703D02*
X62633100Y-34805853D01*
X62772481Y-34898985D01*
X62891015Y-35017519D01*
X62984147Y-35156900D01*
X63048297Y-35311772D01*
X63081000Y-35476184D01*
X63081000Y-35643816D01*
X63048297Y-35808228D01*
X62984147Y-35963100D01*
X62891015Y-36102481D01*
X62772481Y-36221015D01*
X62633100Y-36314147D01*
X62478228Y-36378297D01*
X62313816Y-36411000D01*
X62146184Y-36411000D01*
X61981772Y-36378297D01*
X61826900Y-36314147D01*
X61687519Y-36221015D01*
X61568985Y-36102481D01*
X61475853Y-35963100D01*
X61411703Y-35808228D01*
X61379000Y-35643816D01*
X61379000Y-35476184D01*
X61411703Y-35311772D01*
X61475853Y-35156900D01*
X61568985Y-35017519D01*
X61687519Y-34898985D01*
X61826900Y-34805853D01*
X61981772Y-34741703D01*
X62146184Y-34709000D01*
X62313816Y-34709000D01*
X62478228Y-34741703D01*
X62478228Y-34741703D01*
G37*
G36*
X72556821Y-34721313D02*
X72556824Y-34721314D01*
X72556825Y-34721314D01*
X72717239Y-34769975D01*
X72717241Y-34769976D01*
X72717244Y-34769977D01*
X72865078Y-34848995D01*
X72994659Y-34955341D01*
X73101005Y-35084922D01*
X73180023Y-35232756D01*
X73180024Y-35232759D01*
X73180025Y-35232761D01*
X73228686Y-35393175D01*
X73228687Y-35393179D01*
X73245117Y-35560000D01*
X73228687Y-35726821D01*
X73228686Y-35726824D01*
X73228686Y-35726825D01*
X73195145Y-35837396D01*
X73180023Y-35887244D01*
X73101005Y-36035078D01*
X72994659Y-36164659D01*
X72865078Y-36271005D01*
X72717244Y-36350023D01*
X72717241Y-36350024D01*
X72717239Y-36350025D01*
X72556825Y-36398686D01*
X72556824Y-36398686D01*
X72556821Y-36398687D01*
X72431804Y-36411000D01*
X72348196Y-36411000D01*
X72223179Y-36398687D01*
X72223176Y-36398686D01*
X72223175Y-36398686D01*
X72062761Y-36350025D01*
X72062759Y-36350024D01*
X72062756Y-36350023D01*
X71914922Y-36271005D01*
X71785341Y-36164659D01*
X71678995Y-36035078D01*
X71599977Y-35887244D01*
X71584856Y-35837396D01*
X71551314Y-35726825D01*
X71551314Y-35726824D01*
X71551313Y-35726821D01*
X71534883Y-35560000D01*
X71551313Y-35393179D01*
X71551314Y-35393175D01*
X71599975Y-35232761D01*
X71599976Y-35232759D01*
X71599977Y-35232756D01*
X71678995Y-35084922D01*
X71785341Y-34955341D01*
X71914922Y-34848995D01*
X72062756Y-34769977D01*
X72062759Y-34769976D01*
X72062761Y-34769975D01*
X72223175Y-34721314D01*
X72223176Y-34721314D01*
X72223179Y-34721313D01*
X72348196Y-34709000D01*
X72431804Y-34709000D01*
X72556821Y-34721313D01*
X72556821Y-34721313D01*
G37*
G36*
X58956694Y-26511860D02*
X59222437Y-26564719D01*
X59723087Y-26772095D01*
X60142049Y-27052037D01*
X60173663Y-27073161D01*
X60556839Y-27456337D01*
X60556841Y-27456340D01*
X60857905Y-27906913D01*
X61065281Y-28407563D01*
X61099618Y-28580186D01*
X61148904Y-28827963D01*
X61171000Y-28939050D01*
X61171000Y-29480950D01*
X61065281Y-30012437D01*
X60857905Y-30513087D01*
X60558871Y-30960622D01*
X60556839Y-30963663D01*
X60173663Y-31346839D01*
X60173660Y-31346841D01*
X59723087Y-31647905D01*
X59222437Y-31855281D01*
X58956694Y-31908140D01*
X58690951Y-31961000D01*
X58149049Y-31961000D01*
X57883306Y-31908140D01*
X57617563Y-31855281D01*
X57116913Y-31647905D01*
X56666340Y-31346841D01*
X56666337Y-31346839D01*
X56283161Y-30963663D01*
X56281129Y-30960622D01*
X55982095Y-30513087D01*
X55774719Y-30012437D01*
X55669000Y-29480950D01*
X55669000Y-28939050D01*
X55691097Y-28827963D01*
X55740382Y-28580186D01*
X55774719Y-28407563D01*
X55982095Y-27906913D01*
X56283159Y-27456340D01*
X56283161Y-27456337D01*
X56666337Y-27073161D01*
X56697951Y-27052037D01*
X57116913Y-26772095D01*
X57617563Y-26564719D01*
X57883306Y-26511860D01*
X58149049Y-26459000D01*
X58690951Y-26459000D01*
X58956694Y-26511860D01*
X58956694Y-26511860D01*
G37*
G36*
X127536694Y-26511860D02*
X127802437Y-26564719D01*
X128303087Y-26772095D01*
X128722049Y-27052037D01*
X128753663Y-27073161D01*
X129136839Y-27456337D01*
X129136841Y-27456340D01*
X129437905Y-27906913D01*
X129645281Y-28407563D01*
X129679618Y-28580186D01*
X129728904Y-28827963D01*
X129751000Y-28939050D01*
X129751000Y-29480950D01*
X129645281Y-30012437D01*
X129437905Y-30513087D01*
X129138871Y-30960622D01*
X129136839Y-30963663D01*
X128753663Y-31346839D01*
X128753660Y-31346841D01*
X128303087Y-31647905D01*
X127802437Y-31855281D01*
X127536694Y-31908140D01*
X127270951Y-31961000D01*
X126729049Y-31961000D01*
X126463306Y-31908140D01*
X126197563Y-31855281D01*
X125696913Y-31647905D01*
X125246340Y-31346841D01*
X125246337Y-31346839D01*
X124863161Y-30963663D01*
X124861129Y-30960622D01*
X124562095Y-30513087D01*
X124354719Y-30012437D01*
X124249000Y-29480950D01*
X124249000Y-28939050D01*
X124271097Y-28827963D01*
X124320382Y-28580186D01*
X124354719Y-28407563D01*
X124562095Y-27906913D01*
X124863159Y-27456340D01*
X124863161Y-27456337D01*
X125246337Y-27073161D01*
X125277951Y-27052037D01*
X125696913Y-26772095D01*
X126197563Y-26564719D01*
X126463306Y-26511860D01*
X126729049Y-26459000D01*
X127270951Y-26459000D01*
X127536694Y-26511860D01*
X127536694Y-26511860D01*
G37*
G36*
X91550443Y-27045519D02*
X91616627Y-27052037D01*
X91729853Y-27086384D01*
X91786467Y-27103557D01*
X91925087Y-27177652D01*
X91942991Y-27187222D01*
X91978729Y-27216552D01*
X92080186Y-27299814D01*
X92163448Y-27401271D01*
X92192778Y-27437009D01*
X92192779Y-27437011D01*
X92276443Y-27593533D01*
X92276443Y-27593534D01*
X92327963Y-27763373D01*
X92345359Y-27940000D01*
X92327963Y-28116627D01*
X92293616Y-28229853D01*
X92276443Y-28286467D01*
X92211715Y-28407563D01*
X92192778Y-28442991D01*
X92163448Y-28478729D01*
X92080186Y-28580186D01*
X91978729Y-28663448D01*
X91942991Y-28692778D01*
X91942989Y-28692779D01*
X91786467Y-28776443D01*
X91729853Y-28793616D01*
X91616627Y-28827963D01*
X91550442Y-28834482D01*
X91484260Y-28841000D01*
X91395740Y-28841000D01*
X91329558Y-28834482D01*
X91263373Y-28827963D01*
X91150147Y-28793616D01*
X91093533Y-28776443D01*
X90937011Y-28692779D01*
X90937009Y-28692778D01*
X90901271Y-28663448D01*
X90799814Y-28580186D01*
X90716552Y-28478729D01*
X90687222Y-28442991D01*
X90668285Y-28407563D01*
X90603557Y-28286467D01*
X90586384Y-28229853D01*
X90552037Y-28116627D01*
X90534641Y-27940000D01*
X90552037Y-27763373D01*
X90603557Y-27593534D01*
X90603557Y-27593533D01*
X90687221Y-27437011D01*
X90687222Y-27437009D01*
X90716552Y-27401271D01*
X90799814Y-27299814D01*
X90901271Y-27216552D01*
X90937009Y-27187222D01*
X90954913Y-27177652D01*
X91093533Y-27103557D01*
X91150147Y-27086384D01*
X91263373Y-27052037D01*
X91329557Y-27045519D01*
X91395740Y-27039000D01*
X91484260Y-27039000D01*
X91550443Y-27045519D01*
X91550443Y-27045519D01*
G37*
G36*
X106790443Y-27045519D02*
X106856627Y-27052037D01*
X106969853Y-27086384D01*
X107026467Y-27103557D01*
X107165087Y-27177652D01*
X107182991Y-27187222D01*
X107218729Y-27216552D01*
X107320186Y-27299814D01*
X107403448Y-27401271D01*
X107432778Y-27437009D01*
X107432779Y-27437011D01*
X107516443Y-27593533D01*
X107516443Y-27593534D01*
X107567963Y-27763373D01*
X107585359Y-27940000D01*
X107567963Y-28116627D01*
X107533616Y-28229853D01*
X107516443Y-28286467D01*
X107451715Y-28407563D01*
X107432778Y-28442991D01*
X107403448Y-28478729D01*
X107320186Y-28580186D01*
X107218729Y-28663448D01*
X107182991Y-28692778D01*
X107182989Y-28692779D01*
X107026467Y-28776443D01*
X106969853Y-28793616D01*
X106856627Y-28827963D01*
X106790442Y-28834482D01*
X106724260Y-28841000D01*
X106635740Y-28841000D01*
X106569558Y-28834482D01*
X106503373Y-28827963D01*
X106390147Y-28793616D01*
X106333533Y-28776443D01*
X106177011Y-28692779D01*
X106177009Y-28692778D01*
X106141271Y-28663448D01*
X106039814Y-28580186D01*
X105956552Y-28478729D01*
X105927222Y-28442991D01*
X105908285Y-28407563D01*
X105843557Y-28286467D01*
X105826384Y-28229853D01*
X105792037Y-28116627D01*
X105774641Y-27940000D01*
X105792037Y-27763373D01*
X105843557Y-27593534D01*
X105843557Y-27593533D01*
X105927221Y-27437011D01*
X105927222Y-27437009D01*
X105956552Y-27401271D01*
X106039814Y-27299814D01*
X106141271Y-27216552D01*
X106177009Y-27187222D01*
X106194913Y-27177652D01*
X106333533Y-27103557D01*
X106390147Y-27086384D01*
X106503373Y-27052037D01*
X106569557Y-27045519D01*
X106635740Y-27039000D01*
X106724260Y-27039000D01*
X106790443Y-27045519D01*
X106790443Y-27045519D01*
G37*
G36*
X104250443Y-27045519D02*
X104316627Y-27052037D01*
X104429853Y-27086384D01*
X104486467Y-27103557D01*
X104625087Y-27177652D01*
X104642991Y-27187222D01*
X104678729Y-27216552D01*
X104780186Y-27299814D01*
X104863448Y-27401271D01*
X104892778Y-27437009D01*
X104892779Y-27437011D01*
X104976443Y-27593533D01*
X104976443Y-27593534D01*
X105027963Y-27763373D01*
X105045359Y-27940000D01*
X105027963Y-28116627D01*
X104993616Y-28229853D01*
X104976443Y-28286467D01*
X104911715Y-28407563D01*
X104892778Y-28442991D01*
X104863448Y-28478729D01*
X104780186Y-28580186D01*
X104678729Y-28663448D01*
X104642991Y-28692778D01*
X104642989Y-28692779D01*
X104486467Y-28776443D01*
X104429853Y-28793616D01*
X104316627Y-28827963D01*
X104250442Y-28834482D01*
X104184260Y-28841000D01*
X104095740Y-28841000D01*
X104029558Y-28834482D01*
X103963373Y-28827963D01*
X103850147Y-28793616D01*
X103793533Y-28776443D01*
X103637011Y-28692779D01*
X103637009Y-28692778D01*
X103601271Y-28663448D01*
X103499814Y-28580186D01*
X103416552Y-28478729D01*
X103387222Y-28442991D01*
X103368285Y-28407563D01*
X103303557Y-28286467D01*
X103286384Y-28229853D01*
X103252037Y-28116627D01*
X103234641Y-27940000D01*
X103252037Y-27763373D01*
X103303557Y-27593534D01*
X103303557Y-27593533D01*
X103387221Y-27437011D01*
X103387222Y-27437009D01*
X103416552Y-27401271D01*
X103499814Y-27299814D01*
X103601271Y-27216552D01*
X103637009Y-27187222D01*
X103654913Y-27177652D01*
X103793533Y-27103557D01*
X103850147Y-27086384D01*
X103963373Y-27052037D01*
X104029557Y-27045519D01*
X104095740Y-27039000D01*
X104184260Y-27039000D01*
X104250443Y-27045519D01*
X104250443Y-27045519D01*
G37*
G36*
X101710443Y-27045519D02*
X101776627Y-27052037D01*
X101889853Y-27086384D01*
X101946467Y-27103557D01*
X102085087Y-27177652D01*
X102102991Y-27187222D01*
X102138729Y-27216552D01*
X102240186Y-27299814D01*
X102323448Y-27401271D01*
X102352778Y-27437009D01*
X102352779Y-27437011D01*
X102436443Y-27593533D01*
X102436443Y-27593534D01*
X102487963Y-27763373D01*
X102505359Y-27940000D01*
X102487963Y-28116627D01*
X102453616Y-28229853D01*
X102436443Y-28286467D01*
X102371715Y-28407563D01*
X102352778Y-28442991D01*
X102323448Y-28478729D01*
X102240186Y-28580186D01*
X102138729Y-28663448D01*
X102102991Y-28692778D01*
X102102989Y-28692779D01*
X101946467Y-28776443D01*
X101889853Y-28793616D01*
X101776627Y-28827963D01*
X101710442Y-28834482D01*
X101644260Y-28841000D01*
X101555740Y-28841000D01*
X101489558Y-28834482D01*
X101423373Y-28827963D01*
X101310147Y-28793616D01*
X101253533Y-28776443D01*
X101097011Y-28692779D01*
X101097009Y-28692778D01*
X101061271Y-28663448D01*
X100959814Y-28580186D01*
X100876552Y-28478729D01*
X100847222Y-28442991D01*
X100828285Y-28407563D01*
X100763557Y-28286467D01*
X100746384Y-28229853D01*
X100712037Y-28116627D01*
X100694641Y-27940000D01*
X100712037Y-27763373D01*
X100763557Y-27593534D01*
X100763557Y-27593533D01*
X100847221Y-27437011D01*
X100847222Y-27437009D01*
X100876552Y-27401271D01*
X100959814Y-27299814D01*
X101061271Y-27216552D01*
X101097009Y-27187222D01*
X101114913Y-27177652D01*
X101253533Y-27103557D01*
X101310147Y-27086384D01*
X101423373Y-27052037D01*
X101489557Y-27045519D01*
X101555740Y-27039000D01*
X101644260Y-27039000D01*
X101710443Y-27045519D01*
X101710443Y-27045519D01*
G37*
G36*
X99170443Y-27045519D02*
X99236627Y-27052037D01*
X99349853Y-27086384D01*
X99406467Y-27103557D01*
X99545087Y-27177652D01*
X99562991Y-27187222D01*
X99598729Y-27216552D01*
X99700186Y-27299814D01*
X99783448Y-27401271D01*
X99812778Y-27437009D01*
X99812779Y-27437011D01*
X99896443Y-27593533D01*
X99896443Y-27593534D01*
X99947963Y-27763373D01*
X99965359Y-27940000D01*
X99947963Y-28116627D01*
X99913616Y-28229853D01*
X99896443Y-28286467D01*
X99831715Y-28407563D01*
X99812778Y-28442991D01*
X99783448Y-28478729D01*
X99700186Y-28580186D01*
X99598729Y-28663448D01*
X99562991Y-28692778D01*
X99562989Y-28692779D01*
X99406467Y-28776443D01*
X99349853Y-28793616D01*
X99236627Y-28827963D01*
X99170442Y-28834482D01*
X99104260Y-28841000D01*
X99015740Y-28841000D01*
X98949558Y-28834482D01*
X98883373Y-28827963D01*
X98770147Y-28793616D01*
X98713533Y-28776443D01*
X98557011Y-28692779D01*
X98557009Y-28692778D01*
X98521271Y-28663448D01*
X98419814Y-28580186D01*
X98336552Y-28478729D01*
X98307222Y-28442991D01*
X98288285Y-28407563D01*
X98223557Y-28286467D01*
X98206384Y-28229853D01*
X98172037Y-28116627D01*
X98154641Y-27940000D01*
X98172037Y-27763373D01*
X98223557Y-27593534D01*
X98223557Y-27593533D01*
X98307221Y-27437011D01*
X98307222Y-27437009D01*
X98336552Y-27401271D01*
X98419814Y-27299814D01*
X98521271Y-27216552D01*
X98557009Y-27187222D01*
X98574913Y-27177652D01*
X98713533Y-27103557D01*
X98770147Y-27086384D01*
X98883373Y-27052037D01*
X98949557Y-27045519D01*
X99015740Y-27039000D01*
X99104260Y-27039000D01*
X99170443Y-27045519D01*
X99170443Y-27045519D01*
G37*
G36*
X96630443Y-27045519D02*
X96696627Y-27052037D01*
X96809853Y-27086384D01*
X96866467Y-27103557D01*
X97005087Y-27177652D01*
X97022991Y-27187222D01*
X97058729Y-27216552D01*
X97160186Y-27299814D01*
X97243448Y-27401271D01*
X97272778Y-27437009D01*
X97272779Y-27437011D01*
X97356443Y-27593533D01*
X97356443Y-27593534D01*
X97407963Y-27763373D01*
X97425359Y-27940000D01*
X97407963Y-28116627D01*
X97373616Y-28229853D01*
X97356443Y-28286467D01*
X97291715Y-28407563D01*
X97272778Y-28442991D01*
X97243448Y-28478729D01*
X97160186Y-28580186D01*
X97058729Y-28663448D01*
X97022991Y-28692778D01*
X97022989Y-28692779D01*
X96866467Y-28776443D01*
X96809853Y-28793616D01*
X96696627Y-28827963D01*
X96630442Y-28834482D01*
X96564260Y-28841000D01*
X96475740Y-28841000D01*
X96409558Y-28834482D01*
X96343373Y-28827963D01*
X96230147Y-28793616D01*
X96173533Y-28776443D01*
X96017011Y-28692779D01*
X96017009Y-28692778D01*
X95981271Y-28663448D01*
X95879814Y-28580186D01*
X95796552Y-28478729D01*
X95767222Y-28442991D01*
X95748285Y-28407563D01*
X95683557Y-28286467D01*
X95666384Y-28229853D01*
X95632037Y-28116627D01*
X95614641Y-27940000D01*
X95632037Y-27763373D01*
X95683557Y-27593534D01*
X95683557Y-27593533D01*
X95767221Y-27437011D01*
X95767222Y-27437009D01*
X95796552Y-27401271D01*
X95879814Y-27299814D01*
X95981271Y-27216552D01*
X96017009Y-27187222D01*
X96034913Y-27177652D01*
X96173533Y-27103557D01*
X96230147Y-27086384D01*
X96343373Y-27052037D01*
X96409557Y-27045519D01*
X96475740Y-27039000D01*
X96564260Y-27039000D01*
X96630443Y-27045519D01*
X96630443Y-27045519D01*
G37*
G36*
X94090443Y-27045519D02*
X94156627Y-27052037D01*
X94269853Y-27086384D01*
X94326467Y-27103557D01*
X94465087Y-27177652D01*
X94482991Y-27187222D01*
X94518729Y-27216552D01*
X94620186Y-27299814D01*
X94703448Y-27401271D01*
X94732778Y-27437009D01*
X94732779Y-27437011D01*
X94816443Y-27593533D01*
X94816443Y-27593534D01*
X94867963Y-27763373D01*
X94885359Y-27940000D01*
X94867963Y-28116627D01*
X94833616Y-28229853D01*
X94816443Y-28286467D01*
X94751715Y-28407563D01*
X94732778Y-28442991D01*
X94703448Y-28478729D01*
X94620186Y-28580186D01*
X94518729Y-28663448D01*
X94482991Y-28692778D01*
X94482989Y-28692779D01*
X94326467Y-28776443D01*
X94269853Y-28793616D01*
X94156627Y-28827963D01*
X94090442Y-28834482D01*
X94024260Y-28841000D01*
X93935740Y-28841000D01*
X93869558Y-28834482D01*
X93803373Y-28827963D01*
X93690147Y-28793616D01*
X93633533Y-28776443D01*
X93477011Y-28692779D01*
X93477009Y-28692778D01*
X93441271Y-28663448D01*
X93339814Y-28580186D01*
X93256552Y-28478729D01*
X93227222Y-28442991D01*
X93208285Y-28407563D01*
X93143557Y-28286467D01*
X93126384Y-28229853D01*
X93092037Y-28116627D01*
X93074641Y-27940000D01*
X93092037Y-27763373D01*
X93143557Y-27593534D01*
X93143557Y-27593533D01*
X93227221Y-27437011D01*
X93227222Y-27437009D01*
X93256552Y-27401271D01*
X93339814Y-27299814D01*
X93441271Y-27216552D01*
X93477009Y-27187222D01*
X93494913Y-27177652D01*
X93633533Y-27103557D01*
X93690147Y-27086384D01*
X93803373Y-27052037D01*
X93869557Y-27045519D01*
X93935740Y-27039000D01*
X94024260Y-27039000D01*
X94090443Y-27045519D01*
X94090443Y-27045519D01*
G37*
G36*
X89801000Y-28841000D02*
X87999000Y-28841000D01*
X87999000Y-27039000D01*
X89801000Y-27039000D01*
X89801000Y-28841000D01*
X89801000Y-28841000D01*
G37*
M02*
