G04 #@! TF.GenerationSoftware,KiCad,Pcbnew,5.0.2+dfsg1-1~bpo9+1*
G04 #@! TF.CreationDate,2019-06-12T08:31:31+01:00*
G04 #@! TF.ProjectId,LedMatrix,4c65644d-6174-4726-9978-2e6b69636164,1.0*
G04 #@! TF.SameCoordinates,Original*
G04 #@! TF.FileFunction,Legend,Top*
G04 #@! TF.FilePolarity,Positive*
%FSLAX46Y46*%
G04 Gerber Fmt 4.6, Leading zero omitted, Abs format (unit mm)*
G04 Created by KiCad (PCBNEW 5.0.2+dfsg1-1~bpo9+1) date Wed 12 Jun 2019 08:31:31 IST*
%MOMM*%
%LPD*%
G01*
G04 APERTURE LIST*
%ADD10C,0.300000*%
%ADD11C,0.120000*%
%ADD12C,0.150000*%
G04 APERTURE END LIST*
D10*
X76196428Y-87038571D02*
X75482142Y-87038571D01*
X75482142Y-85538571D01*
X76696428Y-86252857D02*
X77196428Y-86252857D01*
X77410714Y-87038571D02*
X76696428Y-87038571D01*
X76696428Y-85538571D01*
X77410714Y-85538571D01*
X78053571Y-87038571D02*
X78053571Y-85538571D01*
X78410714Y-85538571D01*
X78625000Y-85610000D01*
X78767857Y-85752857D01*
X78839285Y-85895714D01*
X78910714Y-86181428D01*
X78910714Y-86395714D01*
X78839285Y-86681428D01*
X78767857Y-86824285D01*
X78625000Y-86967142D01*
X78410714Y-87038571D01*
X78053571Y-87038571D01*
X80696428Y-87038571D02*
X80696428Y-86038571D01*
X80696428Y-86181428D02*
X80767857Y-86110000D01*
X80910714Y-86038571D01*
X81125000Y-86038571D01*
X81267857Y-86110000D01*
X81339285Y-86252857D01*
X81339285Y-87038571D01*
X81339285Y-86252857D02*
X81410714Y-86110000D01*
X81553571Y-86038571D01*
X81767857Y-86038571D01*
X81910714Y-86110000D01*
X81982142Y-86252857D01*
X81982142Y-87038571D01*
X83339285Y-87038571D02*
X83339285Y-86252857D01*
X83267857Y-86110000D01*
X83125000Y-86038571D01*
X82839285Y-86038571D01*
X82696428Y-86110000D01*
X83339285Y-86967142D02*
X83196428Y-87038571D01*
X82839285Y-87038571D01*
X82696428Y-86967142D01*
X82625000Y-86824285D01*
X82625000Y-86681428D01*
X82696428Y-86538571D01*
X82839285Y-86467142D01*
X83196428Y-86467142D01*
X83339285Y-86395714D01*
X83839285Y-86038571D02*
X84410714Y-86038571D01*
X84053571Y-85538571D02*
X84053571Y-86824285D01*
X84125000Y-86967142D01*
X84267857Y-87038571D01*
X84410714Y-87038571D01*
X84910714Y-87038571D02*
X84910714Y-86038571D01*
X84910714Y-86324285D02*
X84982142Y-86181428D01*
X85053571Y-86110000D01*
X85196428Y-86038571D01*
X85339285Y-86038571D01*
X85839285Y-87038571D02*
X85839285Y-86038571D01*
X85839285Y-85538571D02*
X85767857Y-85610000D01*
X85839285Y-85681428D01*
X85910714Y-85610000D01*
X85839285Y-85538571D01*
X85839285Y-85681428D01*
X86410714Y-87038571D02*
X87196428Y-86038571D01*
X86410714Y-86038571D02*
X87196428Y-87038571D01*
X88767857Y-86038571D02*
X89125000Y-87038571D01*
X89482142Y-86038571D01*
X90839285Y-87038571D02*
X89982142Y-87038571D01*
X90410714Y-87038571D02*
X90410714Y-85538571D01*
X90267857Y-85752857D01*
X90125000Y-85895714D01*
X89982142Y-85967142D01*
X91482142Y-86895714D02*
X91553571Y-86967142D01*
X91482142Y-87038571D01*
X91410714Y-86967142D01*
X91482142Y-86895714D01*
X91482142Y-87038571D01*
X92482142Y-85538571D02*
X92625000Y-85538571D01*
X92767857Y-85610000D01*
X92839285Y-85681428D01*
X92910714Y-85824285D01*
X92982142Y-86110000D01*
X92982142Y-86467142D01*
X92910714Y-86752857D01*
X92839285Y-86895714D01*
X92767857Y-86967142D01*
X92625000Y-87038571D01*
X92482142Y-87038571D01*
X92339285Y-86967142D01*
X92267857Y-86895714D01*
X92196428Y-86752857D01*
X92125000Y-86467142D01*
X92125000Y-86110000D01*
X92196428Y-85824285D01*
X92267857Y-85681428D01*
X92339285Y-85610000D01*
X92482142Y-85538571D01*
X95196428Y-87610000D02*
X95125000Y-87538571D01*
X94982142Y-87324285D01*
X94910714Y-87181428D01*
X94839285Y-86967142D01*
X94767857Y-86610000D01*
X94767857Y-86324285D01*
X94839285Y-85967142D01*
X94910714Y-85752857D01*
X94982142Y-85610000D01*
X95125000Y-85395714D01*
X95196428Y-85324285D01*
X96410714Y-86967142D02*
X96267857Y-87038571D01*
X95982142Y-87038571D01*
X95839285Y-86967142D01*
X95767857Y-86895714D01*
X95696428Y-86752857D01*
X95696428Y-86324285D01*
X95767857Y-86181428D01*
X95839285Y-86110000D01*
X95982142Y-86038571D01*
X96267857Y-86038571D01*
X96410714Y-86110000D01*
X96910714Y-87610000D02*
X96982142Y-87538571D01*
X97125000Y-87324285D01*
X97196428Y-87181428D01*
X97267857Y-86967142D01*
X97339285Y-86610000D01*
X97339285Y-86324285D01*
X97267857Y-85967142D01*
X97196428Y-85752857D01*
X97125000Y-85610000D01*
X96982142Y-85395714D01*
X96910714Y-85324285D01*
X99125000Y-85681428D02*
X99196428Y-85610000D01*
X99339285Y-85538571D01*
X99696428Y-85538571D01*
X99839285Y-85610000D01*
X99910714Y-85681428D01*
X99982142Y-85824285D01*
X99982142Y-85967142D01*
X99910714Y-86181428D01*
X99053571Y-87038571D01*
X99982142Y-87038571D01*
X100910714Y-85538571D02*
X101053571Y-85538571D01*
X101196428Y-85610000D01*
X101267857Y-85681428D01*
X101339285Y-85824285D01*
X101410714Y-86110000D01*
X101410714Y-86467142D01*
X101339285Y-86752857D01*
X101267857Y-86895714D01*
X101196428Y-86967142D01*
X101053571Y-87038571D01*
X100910714Y-87038571D01*
X100767857Y-86967142D01*
X100696428Y-86895714D01*
X100625000Y-86752857D01*
X100553571Y-86467142D01*
X100553571Y-86110000D01*
X100625000Y-85824285D01*
X100696428Y-85681428D01*
X100767857Y-85610000D01*
X100910714Y-85538571D01*
X102839285Y-87038571D02*
X101982142Y-87038571D01*
X102410714Y-87038571D02*
X102410714Y-85538571D01*
X102267857Y-85752857D01*
X102125000Y-85895714D01*
X101982142Y-85967142D01*
X103553571Y-87038571D02*
X103839285Y-87038571D01*
X103982142Y-86967142D01*
X104053571Y-86895714D01*
X104196428Y-86681428D01*
X104267857Y-86395714D01*
X104267857Y-85824285D01*
X104196428Y-85681428D01*
X104125000Y-85610000D01*
X103982142Y-85538571D01*
X103696428Y-85538571D01*
X103553571Y-85610000D01*
X103482142Y-85681428D01*
X103410714Y-85824285D01*
X103410714Y-86181428D01*
X103482142Y-86324285D01*
X103553571Y-86395714D01*
X103696428Y-86467142D01*
X103982142Y-86467142D01*
X104125000Y-86395714D01*
X104196428Y-86324285D01*
X104267857Y-86181428D01*
X105982142Y-86967142D02*
X106125000Y-87038571D01*
X106410714Y-87038571D01*
X106553571Y-86967142D01*
X106625000Y-86824285D01*
X106625000Y-86752857D01*
X106553571Y-86610000D01*
X106410714Y-86538571D01*
X106196428Y-86538571D01*
X106053571Y-86467142D01*
X105982142Y-86324285D01*
X105982142Y-86252857D01*
X106053571Y-86110000D01*
X106196428Y-86038571D01*
X106410714Y-86038571D01*
X106553571Y-86110000D01*
X107053571Y-86038571D02*
X107625000Y-86038571D01*
X107267857Y-85538571D02*
X107267857Y-86824285D01*
X107339285Y-86967142D01*
X107482142Y-87038571D01*
X107625000Y-87038571D01*
X108696428Y-86967142D02*
X108553571Y-87038571D01*
X108267857Y-87038571D01*
X108125000Y-86967142D01*
X108053571Y-86824285D01*
X108053571Y-86252857D01*
X108125000Y-86110000D01*
X108267857Y-86038571D01*
X108553571Y-86038571D01*
X108696428Y-86110000D01*
X108767857Y-86252857D01*
X108767857Y-86395714D01*
X108053571Y-86538571D01*
X109267857Y-86038571D02*
X109625000Y-87038571D01*
X109982142Y-86038571D01*
X111125000Y-86967142D02*
X110982142Y-87038571D01*
X110696428Y-87038571D01*
X110553571Y-86967142D01*
X110482142Y-86824285D01*
X110482142Y-86252857D01*
X110553571Y-86110000D01*
X110696428Y-86038571D01*
X110982142Y-86038571D01*
X111125000Y-86110000D01*
X111196428Y-86252857D01*
X111196428Y-86395714D01*
X110482142Y-86538571D01*
D11*
G04 #@! TO.C,J2*
X87570000Y-29270000D02*
X87570000Y-27940000D01*
X88900000Y-29270000D02*
X87570000Y-29270000D01*
X90170000Y-29270000D02*
X90170000Y-26610000D01*
X90170000Y-26610000D02*
X108010000Y-26610000D01*
X90170000Y-29270000D02*
X108010000Y-29270000D01*
X108010000Y-29270000D02*
X108010000Y-26610000D01*
G04 #@! TO.C,D41*
X107660000Y-36640000D02*
X107660000Y-36796000D01*
X107660000Y-34324000D02*
X107660000Y-34480000D01*
X110261130Y-36639837D02*
G75*
G02X108179039Y-36640000I-1041130J1079837D01*
G01*
X110261130Y-34480163D02*
G75*
G03X108179039Y-34480000I-1041130J-1079837D01*
G01*
X110892335Y-36638608D02*
G75*
G02X107660000Y-36795516I-1672335J1078608D01*
G01*
X110892335Y-34481392D02*
G75*
G03X107660000Y-34324484I-1672335J-1078608D01*
G01*
G04 #@! TO.C,D42*
X110892335Y-40831392D02*
G75*
G03X107660000Y-40674484I-1672335J-1078608D01*
G01*
X110892335Y-42988608D02*
G75*
G02X107660000Y-43145516I-1672335J1078608D01*
G01*
X110261130Y-40830163D02*
G75*
G03X108179039Y-40830000I-1041130J-1079837D01*
G01*
X110261130Y-42989837D02*
G75*
G02X108179039Y-42990000I-1041130J1079837D01*
G01*
X107660000Y-40674000D02*
X107660000Y-40830000D01*
X107660000Y-42990000D02*
X107660000Y-43146000D01*
G04 #@! TO.C,D58*
X123592335Y-40831392D02*
G75*
G03X120360000Y-40674484I-1672335J-1078608D01*
G01*
X123592335Y-42988608D02*
G75*
G02X120360000Y-43145516I-1672335J1078608D01*
G01*
X122961130Y-40830163D02*
G75*
G03X120879039Y-40830000I-1041130J-1079837D01*
G01*
X122961130Y-42989837D02*
G75*
G02X120879039Y-42990000I-1041130J1079837D01*
G01*
X120360000Y-40674000D02*
X120360000Y-40830000D01*
X120360000Y-42990000D02*
X120360000Y-43146000D01*
G04 #@! TO.C,D50*
X114010000Y-42990000D02*
X114010000Y-43146000D01*
X114010000Y-40674000D02*
X114010000Y-40830000D01*
X116611130Y-42989837D02*
G75*
G02X114529039Y-42990000I-1041130J1079837D01*
G01*
X116611130Y-40830163D02*
G75*
G03X114529039Y-40830000I-1041130J-1079837D01*
G01*
X117242335Y-42988608D02*
G75*
G02X114010000Y-43145516I-1672335J1078608D01*
G01*
X117242335Y-40831392D02*
G75*
G03X114010000Y-40674484I-1672335J-1078608D01*
G01*
G04 #@! TO.C,D57*
X120360000Y-36640000D02*
X120360000Y-36796000D01*
X120360000Y-34324000D02*
X120360000Y-34480000D01*
X122961130Y-36639837D02*
G75*
G02X120879039Y-36640000I-1041130J1079837D01*
G01*
X122961130Y-34480163D02*
G75*
G03X120879039Y-34480000I-1041130J-1079837D01*
G01*
X123592335Y-36638608D02*
G75*
G02X120360000Y-36795516I-1672335J1078608D01*
G01*
X123592335Y-34481392D02*
G75*
G03X120360000Y-34324484I-1672335J-1078608D01*
G01*
G04 #@! TO.C,D49*
X114010000Y-36640000D02*
X114010000Y-36796000D01*
X114010000Y-34324000D02*
X114010000Y-34480000D01*
X116611130Y-36639837D02*
G75*
G02X114529039Y-36640000I-1041130J1079837D01*
G01*
X116611130Y-34480163D02*
G75*
G03X114529039Y-34480000I-1041130J-1079837D01*
G01*
X117242335Y-36638608D02*
G75*
G02X114010000Y-36795516I-1672335J1078608D01*
G01*
X117242335Y-34481392D02*
G75*
G03X114010000Y-34324484I-1672335J-1078608D01*
G01*
G04 #@! TO.C,D52*
X114010000Y-55690000D02*
X114010000Y-55846000D01*
X114010000Y-53374000D02*
X114010000Y-53530000D01*
X116611130Y-55689837D02*
G75*
G02X114529039Y-55690000I-1041130J1079837D01*
G01*
X116611130Y-53530163D02*
G75*
G03X114529039Y-53530000I-1041130J-1079837D01*
G01*
X117242335Y-55688608D02*
G75*
G02X114010000Y-55845516I-1672335J1078608D01*
G01*
X117242335Y-53531392D02*
G75*
G03X114010000Y-53374484I-1672335J-1078608D01*
G01*
G04 #@! TO.C,D54*
X117242335Y-66231392D02*
G75*
G03X114010000Y-66074484I-1672335J-1078608D01*
G01*
X117242335Y-68388608D02*
G75*
G02X114010000Y-68545516I-1672335J1078608D01*
G01*
X116611130Y-66230163D02*
G75*
G03X114529039Y-66230000I-1041130J-1079837D01*
G01*
X116611130Y-68389837D02*
G75*
G02X114529039Y-68390000I-1041130J1079837D01*
G01*
X114010000Y-66074000D02*
X114010000Y-66230000D01*
X114010000Y-68390000D02*
X114010000Y-68546000D01*
G04 #@! TO.C,D55*
X114010000Y-74740000D02*
X114010000Y-74896000D01*
X114010000Y-72424000D02*
X114010000Y-72580000D01*
X116611130Y-74739837D02*
G75*
G02X114529039Y-74740000I-1041130J1079837D01*
G01*
X116611130Y-72580163D02*
G75*
G03X114529039Y-72580000I-1041130J-1079837D01*
G01*
X117242335Y-74738608D02*
G75*
G02X114010000Y-74895516I-1672335J1078608D01*
G01*
X117242335Y-72581392D02*
G75*
G03X114010000Y-72424484I-1672335J-1078608D01*
G01*
G04 #@! TO.C,D56*
X117242335Y-78931392D02*
G75*
G03X114010000Y-78774484I-1672335J-1078608D01*
G01*
X117242335Y-81088608D02*
G75*
G02X114010000Y-81245516I-1672335J1078608D01*
G01*
X116611130Y-78930163D02*
G75*
G03X114529039Y-78930000I-1041130J-1079837D01*
G01*
X116611130Y-81089837D02*
G75*
G02X114529039Y-81090000I-1041130J1079837D01*
G01*
X114010000Y-78774000D02*
X114010000Y-78930000D01*
X114010000Y-81090000D02*
X114010000Y-81246000D01*
G04 #@! TO.C,D59*
X120360000Y-49340000D02*
X120360000Y-49496000D01*
X120360000Y-47024000D02*
X120360000Y-47180000D01*
X122961130Y-49339837D02*
G75*
G02X120879039Y-49340000I-1041130J1079837D01*
G01*
X122961130Y-47180163D02*
G75*
G03X120879039Y-47180000I-1041130J-1079837D01*
G01*
X123592335Y-49338608D02*
G75*
G02X120360000Y-49495516I-1672335J1078608D01*
G01*
X123592335Y-47181392D02*
G75*
G03X120360000Y-47024484I-1672335J-1078608D01*
G01*
G04 #@! TO.C,D60*
X123592335Y-53531392D02*
G75*
G03X120360000Y-53374484I-1672335J-1078608D01*
G01*
X123592335Y-55688608D02*
G75*
G02X120360000Y-55845516I-1672335J1078608D01*
G01*
X122961130Y-53530163D02*
G75*
G03X120879039Y-53530000I-1041130J-1079837D01*
G01*
X122961130Y-55689837D02*
G75*
G02X120879039Y-55690000I-1041130J1079837D01*
G01*
X120360000Y-53374000D02*
X120360000Y-53530000D01*
X120360000Y-55690000D02*
X120360000Y-55846000D01*
G04 #@! TO.C,D61*
X120360000Y-62040000D02*
X120360000Y-62196000D01*
X120360000Y-59724000D02*
X120360000Y-59880000D01*
X122961130Y-62039837D02*
G75*
G02X120879039Y-62040000I-1041130J1079837D01*
G01*
X122961130Y-59880163D02*
G75*
G03X120879039Y-59880000I-1041130J-1079837D01*
G01*
X123592335Y-62038608D02*
G75*
G02X120360000Y-62195516I-1672335J1078608D01*
G01*
X123592335Y-59881392D02*
G75*
G03X120360000Y-59724484I-1672335J-1078608D01*
G01*
G04 #@! TO.C,D62*
X123592335Y-66231392D02*
G75*
G03X120360000Y-66074484I-1672335J-1078608D01*
G01*
X123592335Y-68388608D02*
G75*
G02X120360000Y-68545516I-1672335J1078608D01*
G01*
X122961130Y-66230163D02*
G75*
G03X120879039Y-66230000I-1041130J-1079837D01*
G01*
X122961130Y-68389837D02*
G75*
G02X120879039Y-68390000I-1041130J1079837D01*
G01*
X120360000Y-66074000D02*
X120360000Y-66230000D01*
X120360000Y-68390000D02*
X120360000Y-68546000D01*
G04 #@! TO.C,D63*
X120360000Y-74740000D02*
X120360000Y-74896000D01*
X120360000Y-72424000D02*
X120360000Y-72580000D01*
X122961130Y-74739837D02*
G75*
G02X120879039Y-74740000I-1041130J1079837D01*
G01*
X122961130Y-72580163D02*
G75*
G03X120879039Y-72580000I-1041130J-1079837D01*
G01*
X123592335Y-74738608D02*
G75*
G02X120360000Y-74895516I-1672335J1078608D01*
G01*
X123592335Y-72581392D02*
G75*
G03X120360000Y-72424484I-1672335J-1078608D01*
G01*
G04 #@! TO.C,D64*
X123592335Y-78931392D02*
G75*
G03X120360000Y-78774484I-1672335J-1078608D01*
G01*
X123592335Y-81088608D02*
G75*
G02X120360000Y-81245516I-1672335J1078608D01*
G01*
X122961130Y-78930163D02*
G75*
G03X120879039Y-78930000I-1041130J-1079837D01*
G01*
X122961130Y-81089837D02*
G75*
G02X120879039Y-81090000I-1041130J1079837D01*
G01*
X120360000Y-78774000D02*
X120360000Y-78930000D01*
X120360000Y-81090000D02*
X120360000Y-81246000D01*
G04 #@! TO.C,D10*
X82260000Y-42990000D02*
X82260000Y-43146000D01*
X82260000Y-40674000D02*
X82260000Y-40830000D01*
X84861130Y-42989837D02*
G75*
G02X82779039Y-42990000I-1041130J1079837D01*
G01*
X84861130Y-40830163D02*
G75*
G03X82779039Y-40830000I-1041130J-1079837D01*
G01*
X85492335Y-42988608D02*
G75*
G02X82260000Y-43145516I-1672335J1078608D01*
G01*
X85492335Y-40831392D02*
G75*
G03X82260000Y-40674484I-1672335J-1078608D01*
G01*
G04 #@! TO.C,D17*
X91842335Y-34481392D02*
G75*
G03X88610000Y-34324484I-1672335J-1078608D01*
G01*
X91842335Y-36638608D02*
G75*
G02X88610000Y-36795516I-1672335J1078608D01*
G01*
X91211130Y-34480163D02*
G75*
G03X89129039Y-34480000I-1041130J-1079837D01*
G01*
X91211130Y-36639837D02*
G75*
G02X89129039Y-36640000I-1041130J1079837D01*
G01*
X88610000Y-34324000D02*
X88610000Y-34480000D01*
X88610000Y-36640000D02*
X88610000Y-36796000D01*
G04 #@! TO.C,D15*
X82260000Y-74740000D02*
X82260000Y-74896000D01*
X82260000Y-72424000D02*
X82260000Y-72580000D01*
X84861130Y-74739837D02*
G75*
G02X82779039Y-74740000I-1041130J1079837D01*
G01*
X84861130Y-72580163D02*
G75*
G03X82779039Y-72580000I-1041130J-1079837D01*
G01*
X85492335Y-74738608D02*
G75*
G02X82260000Y-74895516I-1672335J1078608D01*
G01*
X85492335Y-72581392D02*
G75*
G03X82260000Y-72424484I-1672335J-1078608D01*
G01*
G04 #@! TO.C,D53*
X117242335Y-59881392D02*
G75*
G03X114010000Y-59724484I-1672335J-1078608D01*
G01*
X117242335Y-62038608D02*
G75*
G02X114010000Y-62195516I-1672335J1078608D01*
G01*
X116611130Y-59880163D02*
G75*
G03X114529039Y-59880000I-1041130J-1079837D01*
G01*
X116611130Y-62039837D02*
G75*
G02X114529039Y-62040000I-1041130J1079837D01*
G01*
X114010000Y-59724000D02*
X114010000Y-59880000D01*
X114010000Y-62040000D02*
X114010000Y-62196000D01*
G04 #@! TO.C,D51*
X114010000Y-49340000D02*
X114010000Y-49496000D01*
X114010000Y-47024000D02*
X114010000Y-47180000D01*
X116611130Y-49339837D02*
G75*
G02X114529039Y-49340000I-1041130J1079837D01*
G01*
X116611130Y-47180163D02*
G75*
G03X114529039Y-47180000I-1041130J-1079837D01*
G01*
X117242335Y-49338608D02*
G75*
G02X114010000Y-49495516I-1672335J1078608D01*
G01*
X117242335Y-47181392D02*
G75*
G03X114010000Y-47024484I-1672335J-1078608D01*
G01*
G04 #@! TO.C,D38*
X104542335Y-66231392D02*
G75*
G03X101310000Y-66074484I-1672335J-1078608D01*
G01*
X104542335Y-68388608D02*
G75*
G02X101310000Y-68545516I-1672335J1078608D01*
G01*
X103911130Y-66230163D02*
G75*
G03X101829039Y-66230000I-1041130J-1079837D01*
G01*
X103911130Y-68389837D02*
G75*
G02X101829039Y-68390000I-1041130J1079837D01*
G01*
X101310000Y-66074000D02*
X101310000Y-66230000D01*
X101310000Y-68390000D02*
X101310000Y-68546000D01*
G04 #@! TO.C,D39*
X101310000Y-74740000D02*
X101310000Y-74896000D01*
X101310000Y-72424000D02*
X101310000Y-72580000D01*
X103911130Y-74739837D02*
G75*
G02X101829039Y-74740000I-1041130J1079837D01*
G01*
X103911130Y-72580163D02*
G75*
G03X101829039Y-72580000I-1041130J-1079837D01*
G01*
X104542335Y-74738608D02*
G75*
G02X101310000Y-74895516I-1672335J1078608D01*
G01*
X104542335Y-72581392D02*
G75*
G03X101310000Y-72424484I-1672335J-1078608D01*
G01*
G04 #@! TO.C,D40*
X104542335Y-78931392D02*
G75*
G03X101310000Y-78774484I-1672335J-1078608D01*
G01*
X104542335Y-81088608D02*
G75*
G02X101310000Y-81245516I-1672335J1078608D01*
G01*
X103911130Y-78930163D02*
G75*
G03X101829039Y-78930000I-1041130J-1079837D01*
G01*
X103911130Y-81089837D02*
G75*
G02X101829039Y-81090000I-1041130J1079837D01*
G01*
X101310000Y-78774000D02*
X101310000Y-78930000D01*
X101310000Y-81090000D02*
X101310000Y-81246000D01*
G04 #@! TO.C,D43*
X107660000Y-49340000D02*
X107660000Y-49496000D01*
X107660000Y-47024000D02*
X107660000Y-47180000D01*
X110261130Y-49339837D02*
G75*
G02X108179039Y-49340000I-1041130J1079837D01*
G01*
X110261130Y-47180163D02*
G75*
G03X108179039Y-47180000I-1041130J-1079837D01*
G01*
X110892335Y-49338608D02*
G75*
G02X107660000Y-49495516I-1672335J1078608D01*
G01*
X110892335Y-47181392D02*
G75*
G03X107660000Y-47024484I-1672335J-1078608D01*
G01*
G04 #@! TO.C,D44*
X110892335Y-53531392D02*
G75*
G03X107660000Y-53374484I-1672335J-1078608D01*
G01*
X110892335Y-55688608D02*
G75*
G02X107660000Y-55845516I-1672335J1078608D01*
G01*
X110261130Y-53530163D02*
G75*
G03X108179039Y-53530000I-1041130J-1079837D01*
G01*
X110261130Y-55689837D02*
G75*
G02X108179039Y-55690000I-1041130J1079837D01*
G01*
X107660000Y-53374000D02*
X107660000Y-53530000D01*
X107660000Y-55690000D02*
X107660000Y-55846000D01*
G04 #@! TO.C,D45*
X107660000Y-62040000D02*
X107660000Y-62196000D01*
X107660000Y-59724000D02*
X107660000Y-59880000D01*
X110261130Y-62039837D02*
G75*
G02X108179039Y-62040000I-1041130J1079837D01*
G01*
X110261130Y-59880163D02*
G75*
G03X108179039Y-59880000I-1041130J-1079837D01*
G01*
X110892335Y-62038608D02*
G75*
G02X107660000Y-62195516I-1672335J1078608D01*
G01*
X110892335Y-59881392D02*
G75*
G03X107660000Y-59724484I-1672335J-1078608D01*
G01*
G04 #@! TO.C,D46*
X110892335Y-66231392D02*
G75*
G03X107660000Y-66074484I-1672335J-1078608D01*
G01*
X110892335Y-68388608D02*
G75*
G02X107660000Y-68545516I-1672335J1078608D01*
G01*
X110261130Y-66230163D02*
G75*
G03X108179039Y-66230000I-1041130J-1079837D01*
G01*
X110261130Y-68389837D02*
G75*
G02X108179039Y-68390000I-1041130J1079837D01*
G01*
X107660000Y-66074000D02*
X107660000Y-66230000D01*
X107660000Y-68390000D02*
X107660000Y-68546000D01*
G04 #@! TO.C,D47*
X107660000Y-74740000D02*
X107660000Y-74896000D01*
X107660000Y-72424000D02*
X107660000Y-72580000D01*
X110261130Y-74739837D02*
G75*
G02X108179039Y-74740000I-1041130J1079837D01*
G01*
X110261130Y-72580163D02*
G75*
G03X108179039Y-72580000I-1041130J-1079837D01*
G01*
X110892335Y-74738608D02*
G75*
G02X107660000Y-74895516I-1672335J1078608D01*
G01*
X110892335Y-72581392D02*
G75*
G03X107660000Y-72424484I-1672335J-1078608D01*
G01*
G04 #@! TO.C,D48*
X110892335Y-78931392D02*
G75*
G03X107660000Y-78774484I-1672335J-1078608D01*
G01*
X110892335Y-81088608D02*
G75*
G02X107660000Y-81245516I-1672335J1078608D01*
G01*
X110261130Y-78930163D02*
G75*
G03X108179039Y-78930000I-1041130J-1079837D01*
G01*
X110261130Y-81089837D02*
G75*
G02X108179039Y-81090000I-1041130J1079837D01*
G01*
X107660000Y-78774000D02*
X107660000Y-78930000D01*
X107660000Y-81090000D02*
X107660000Y-81246000D01*
G04 #@! TO.C,D1*
X79142335Y-34481392D02*
G75*
G03X75910000Y-34324484I-1672335J-1078608D01*
G01*
X79142335Y-36638608D02*
G75*
G02X75910000Y-36795516I-1672335J1078608D01*
G01*
X78511130Y-34480163D02*
G75*
G03X76429039Y-34480000I-1041130J-1079837D01*
G01*
X78511130Y-36639837D02*
G75*
G02X76429039Y-36640000I-1041130J1079837D01*
G01*
X75910000Y-34324000D02*
X75910000Y-34480000D01*
X75910000Y-36640000D02*
X75910000Y-36796000D01*
G04 #@! TO.C,D16*
X85492335Y-78931392D02*
G75*
G03X82260000Y-78774484I-1672335J-1078608D01*
G01*
X85492335Y-81088608D02*
G75*
G02X82260000Y-81245516I-1672335J1078608D01*
G01*
X84861130Y-78930163D02*
G75*
G03X82779039Y-78930000I-1041130J-1079837D01*
G01*
X84861130Y-81089837D02*
G75*
G02X82779039Y-81090000I-1041130J1079837D01*
G01*
X82260000Y-78774000D02*
X82260000Y-78930000D01*
X82260000Y-81090000D02*
X82260000Y-81246000D01*
G04 #@! TO.C,D19*
X88610000Y-49340000D02*
X88610000Y-49496000D01*
X88610000Y-47024000D02*
X88610000Y-47180000D01*
X91211130Y-49339837D02*
G75*
G02X89129039Y-49340000I-1041130J1079837D01*
G01*
X91211130Y-47180163D02*
G75*
G03X89129039Y-47180000I-1041130J-1079837D01*
G01*
X91842335Y-49338608D02*
G75*
G02X88610000Y-49495516I-1672335J1078608D01*
G01*
X91842335Y-47181392D02*
G75*
G03X88610000Y-47024484I-1672335J-1078608D01*
G01*
G04 #@! TO.C,D21*
X91842335Y-59881392D02*
G75*
G03X88610000Y-59724484I-1672335J-1078608D01*
G01*
X91842335Y-62038608D02*
G75*
G02X88610000Y-62195516I-1672335J1078608D01*
G01*
X91211130Y-59880163D02*
G75*
G03X89129039Y-59880000I-1041130J-1079837D01*
G01*
X91211130Y-62039837D02*
G75*
G02X89129039Y-62040000I-1041130J1079837D01*
G01*
X88610000Y-59724000D02*
X88610000Y-59880000D01*
X88610000Y-62040000D02*
X88610000Y-62196000D01*
G04 #@! TO.C,D22*
X88610000Y-68390000D02*
X88610000Y-68546000D01*
X88610000Y-66074000D02*
X88610000Y-66230000D01*
X91211130Y-68389837D02*
G75*
G02X89129039Y-68390000I-1041130J1079837D01*
G01*
X91211130Y-66230163D02*
G75*
G03X89129039Y-66230000I-1041130J-1079837D01*
G01*
X91842335Y-68388608D02*
G75*
G02X88610000Y-68545516I-1672335J1078608D01*
G01*
X91842335Y-66231392D02*
G75*
G03X88610000Y-66074484I-1672335J-1078608D01*
G01*
G04 #@! TO.C,D23*
X91842335Y-72581392D02*
G75*
G03X88610000Y-72424484I-1672335J-1078608D01*
G01*
X91842335Y-74738608D02*
G75*
G02X88610000Y-74895516I-1672335J1078608D01*
G01*
X91211130Y-72580163D02*
G75*
G03X89129039Y-72580000I-1041130J-1079837D01*
G01*
X91211130Y-74739837D02*
G75*
G02X89129039Y-74740000I-1041130J1079837D01*
G01*
X88610000Y-72424000D02*
X88610000Y-72580000D01*
X88610000Y-74740000D02*
X88610000Y-74896000D01*
G04 #@! TO.C,D24*
X88610000Y-81090000D02*
X88610000Y-81246000D01*
X88610000Y-78774000D02*
X88610000Y-78930000D01*
X91211130Y-81089837D02*
G75*
G02X89129039Y-81090000I-1041130J1079837D01*
G01*
X91211130Y-78930163D02*
G75*
G03X89129039Y-78930000I-1041130J-1079837D01*
G01*
X91842335Y-81088608D02*
G75*
G02X88610000Y-81245516I-1672335J1078608D01*
G01*
X91842335Y-78931392D02*
G75*
G03X88610000Y-78774484I-1672335J-1078608D01*
G01*
G04 #@! TO.C,D25*
X98192335Y-34481392D02*
G75*
G03X94960000Y-34324484I-1672335J-1078608D01*
G01*
X98192335Y-36638608D02*
G75*
G02X94960000Y-36795516I-1672335J1078608D01*
G01*
X97561130Y-34480163D02*
G75*
G03X95479039Y-34480000I-1041130J-1079837D01*
G01*
X97561130Y-36639837D02*
G75*
G02X95479039Y-36640000I-1041130J1079837D01*
G01*
X94960000Y-34324000D02*
X94960000Y-34480000D01*
X94960000Y-36640000D02*
X94960000Y-36796000D01*
G04 #@! TO.C,D26*
X94960000Y-42990000D02*
X94960000Y-43146000D01*
X94960000Y-40674000D02*
X94960000Y-40830000D01*
X97561130Y-42989837D02*
G75*
G02X95479039Y-42990000I-1041130J1079837D01*
G01*
X97561130Y-40830163D02*
G75*
G03X95479039Y-40830000I-1041130J-1079837D01*
G01*
X98192335Y-42988608D02*
G75*
G02X94960000Y-43145516I-1672335J1078608D01*
G01*
X98192335Y-40831392D02*
G75*
G03X94960000Y-40674484I-1672335J-1078608D01*
G01*
G04 #@! TO.C,D27*
X98192335Y-47181392D02*
G75*
G03X94960000Y-47024484I-1672335J-1078608D01*
G01*
X98192335Y-49338608D02*
G75*
G02X94960000Y-49495516I-1672335J1078608D01*
G01*
X97561130Y-47180163D02*
G75*
G03X95479039Y-47180000I-1041130J-1079837D01*
G01*
X97561130Y-49339837D02*
G75*
G02X95479039Y-49340000I-1041130J1079837D01*
G01*
X94960000Y-47024000D02*
X94960000Y-47180000D01*
X94960000Y-49340000D02*
X94960000Y-49496000D01*
G04 #@! TO.C,D28*
X94960000Y-55690000D02*
X94960000Y-55846000D01*
X94960000Y-53374000D02*
X94960000Y-53530000D01*
X97561130Y-55689837D02*
G75*
G02X95479039Y-55690000I-1041130J1079837D01*
G01*
X97561130Y-53530163D02*
G75*
G03X95479039Y-53530000I-1041130J-1079837D01*
G01*
X98192335Y-55688608D02*
G75*
G02X94960000Y-55845516I-1672335J1078608D01*
G01*
X98192335Y-53531392D02*
G75*
G03X94960000Y-53374484I-1672335J-1078608D01*
G01*
G04 #@! TO.C,D29*
X98192335Y-59881392D02*
G75*
G03X94960000Y-59724484I-1672335J-1078608D01*
G01*
X98192335Y-62038608D02*
G75*
G02X94960000Y-62195516I-1672335J1078608D01*
G01*
X97561130Y-59880163D02*
G75*
G03X95479039Y-59880000I-1041130J-1079837D01*
G01*
X97561130Y-62039837D02*
G75*
G02X95479039Y-62040000I-1041130J1079837D01*
G01*
X94960000Y-59724000D02*
X94960000Y-59880000D01*
X94960000Y-62040000D02*
X94960000Y-62196000D01*
G04 #@! TO.C,D30*
X94960000Y-68390000D02*
X94960000Y-68546000D01*
X94960000Y-66074000D02*
X94960000Y-66230000D01*
X97561130Y-68389837D02*
G75*
G02X95479039Y-68390000I-1041130J1079837D01*
G01*
X97561130Y-66230163D02*
G75*
G03X95479039Y-66230000I-1041130J-1079837D01*
G01*
X98192335Y-68388608D02*
G75*
G02X94960000Y-68545516I-1672335J1078608D01*
G01*
X98192335Y-66231392D02*
G75*
G03X94960000Y-66074484I-1672335J-1078608D01*
G01*
G04 #@! TO.C,D31*
X98192335Y-72581392D02*
G75*
G03X94960000Y-72424484I-1672335J-1078608D01*
G01*
X98192335Y-74738608D02*
G75*
G02X94960000Y-74895516I-1672335J1078608D01*
G01*
X97561130Y-72580163D02*
G75*
G03X95479039Y-72580000I-1041130J-1079837D01*
G01*
X97561130Y-74739837D02*
G75*
G02X95479039Y-74740000I-1041130J1079837D01*
G01*
X94960000Y-72424000D02*
X94960000Y-72580000D01*
X94960000Y-74740000D02*
X94960000Y-74896000D01*
G04 #@! TO.C,D32*
X94960000Y-81090000D02*
X94960000Y-81246000D01*
X94960000Y-78774000D02*
X94960000Y-78930000D01*
X97561130Y-81089837D02*
G75*
G02X95479039Y-81090000I-1041130J1079837D01*
G01*
X97561130Y-78930163D02*
G75*
G03X95479039Y-78930000I-1041130J-1079837D01*
G01*
X98192335Y-81088608D02*
G75*
G02X94960000Y-81245516I-1672335J1078608D01*
G01*
X98192335Y-78931392D02*
G75*
G03X94960000Y-78774484I-1672335J-1078608D01*
G01*
G04 #@! TO.C,D33*
X104542335Y-34481392D02*
G75*
G03X101310000Y-34324484I-1672335J-1078608D01*
G01*
X104542335Y-36638608D02*
G75*
G02X101310000Y-36795516I-1672335J1078608D01*
G01*
X103911130Y-34480163D02*
G75*
G03X101829039Y-34480000I-1041130J-1079837D01*
G01*
X103911130Y-36639837D02*
G75*
G02X101829039Y-36640000I-1041130J1079837D01*
G01*
X101310000Y-34324000D02*
X101310000Y-34480000D01*
X101310000Y-36640000D02*
X101310000Y-36796000D01*
G04 #@! TO.C,D34*
X101310000Y-42990000D02*
X101310000Y-43146000D01*
X101310000Y-40674000D02*
X101310000Y-40830000D01*
X103911130Y-42989837D02*
G75*
G02X101829039Y-42990000I-1041130J1079837D01*
G01*
X103911130Y-40830163D02*
G75*
G03X101829039Y-40830000I-1041130J-1079837D01*
G01*
X104542335Y-42988608D02*
G75*
G02X101310000Y-43145516I-1672335J1078608D01*
G01*
X104542335Y-40831392D02*
G75*
G03X101310000Y-40674484I-1672335J-1078608D01*
G01*
G04 #@! TO.C,D35*
X104542335Y-47181392D02*
G75*
G03X101310000Y-47024484I-1672335J-1078608D01*
G01*
X104542335Y-49338608D02*
G75*
G02X101310000Y-49495516I-1672335J1078608D01*
G01*
X103911130Y-47180163D02*
G75*
G03X101829039Y-47180000I-1041130J-1079837D01*
G01*
X103911130Y-49339837D02*
G75*
G02X101829039Y-49340000I-1041130J1079837D01*
G01*
X101310000Y-47024000D02*
X101310000Y-47180000D01*
X101310000Y-49340000D02*
X101310000Y-49496000D01*
G04 #@! TO.C,D37*
X101310000Y-62040000D02*
X101310000Y-62196000D01*
X101310000Y-59724000D02*
X101310000Y-59880000D01*
X103911130Y-62039837D02*
G75*
G02X101829039Y-62040000I-1041130J1079837D01*
G01*
X103911130Y-59880163D02*
G75*
G03X101829039Y-59880000I-1041130J-1079837D01*
G01*
X104542335Y-62038608D02*
G75*
G02X101310000Y-62195516I-1672335J1078608D01*
G01*
X104542335Y-59881392D02*
G75*
G03X101310000Y-59724484I-1672335J-1078608D01*
G01*
G04 #@! TO.C,D13*
X85492335Y-59881392D02*
G75*
G03X82260000Y-59724484I-1672335J-1078608D01*
G01*
X85492335Y-62038608D02*
G75*
G02X82260000Y-62195516I-1672335J1078608D01*
G01*
X84861130Y-59880163D02*
G75*
G03X82779039Y-59880000I-1041130J-1079837D01*
G01*
X84861130Y-62039837D02*
G75*
G02X82779039Y-62040000I-1041130J1079837D01*
G01*
X82260000Y-59724000D02*
X82260000Y-59880000D01*
X82260000Y-62040000D02*
X82260000Y-62196000D01*
G04 #@! TO.C,D12*
X82260000Y-55690000D02*
X82260000Y-55846000D01*
X82260000Y-53374000D02*
X82260000Y-53530000D01*
X84861130Y-55689837D02*
G75*
G02X82779039Y-55690000I-1041130J1079837D01*
G01*
X84861130Y-53530163D02*
G75*
G03X82779039Y-53530000I-1041130J-1079837D01*
G01*
X85492335Y-55688608D02*
G75*
G02X82260000Y-55845516I-1672335J1078608D01*
G01*
X85492335Y-53531392D02*
G75*
G03X82260000Y-53374484I-1672335J-1078608D01*
G01*
G04 #@! TO.C,D11*
X85492335Y-47181392D02*
G75*
G03X82260000Y-47024484I-1672335J-1078608D01*
G01*
X85492335Y-49338608D02*
G75*
G02X82260000Y-49495516I-1672335J1078608D01*
G01*
X84861130Y-47180163D02*
G75*
G03X82779039Y-47180000I-1041130J-1079837D01*
G01*
X84861130Y-49339837D02*
G75*
G02X82779039Y-49340000I-1041130J1079837D01*
G01*
X82260000Y-47024000D02*
X82260000Y-47180000D01*
X82260000Y-49340000D02*
X82260000Y-49496000D01*
G04 #@! TO.C,D18*
X88610000Y-42990000D02*
X88610000Y-43146000D01*
X88610000Y-40674000D02*
X88610000Y-40830000D01*
X91211130Y-42989837D02*
G75*
G02X89129039Y-42990000I-1041130J1079837D01*
G01*
X91211130Y-40830163D02*
G75*
G03X89129039Y-40830000I-1041130J-1079837D01*
G01*
X91842335Y-42988608D02*
G75*
G02X88610000Y-43145516I-1672335J1078608D01*
G01*
X91842335Y-40831392D02*
G75*
G03X88610000Y-40674484I-1672335J-1078608D01*
G01*
G04 #@! TO.C,D9*
X85492335Y-34481392D02*
G75*
G03X82260000Y-34324484I-1672335J-1078608D01*
G01*
X85492335Y-36638608D02*
G75*
G02X82260000Y-36795516I-1672335J1078608D01*
G01*
X84861130Y-34480163D02*
G75*
G03X82779039Y-34480000I-1041130J-1079837D01*
G01*
X84861130Y-36639837D02*
G75*
G02X82779039Y-36640000I-1041130J1079837D01*
G01*
X82260000Y-34324000D02*
X82260000Y-34480000D01*
X82260000Y-36640000D02*
X82260000Y-36796000D01*
G04 #@! TO.C,D8*
X75910000Y-81090000D02*
X75910000Y-81246000D01*
X75910000Y-78774000D02*
X75910000Y-78930000D01*
X78511130Y-81089837D02*
G75*
G02X76429039Y-81090000I-1041130J1079837D01*
G01*
X78511130Y-78930163D02*
G75*
G03X76429039Y-78930000I-1041130J-1079837D01*
G01*
X79142335Y-81088608D02*
G75*
G02X75910000Y-81245516I-1672335J1078608D01*
G01*
X79142335Y-78931392D02*
G75*
G03X75910000Y-78774484I-1672335J-1078608D01*
G01*
G04 #@! TO.C,D7*
X79142335Y-72581392D02*
G75*
G03X75910000Y-72424484I-1672335J-1078608D01*
G01*
X79142335Y-74738608D02*
G75*
G02X75910000Y-74895516I-1672335J1078608D01*
G01*
X78511130Y-72580163D02*
G75*
G03X76429039Y-72580000I-1041130J-1079837D01*
G01*
X78511130Y-74739837D02*
G75*
G02X76429039Y-74740000I-1041130J1079837D01*
G01*
X75910000Y-72424000D02*
X75910000Y-72580000D01*
X75910000Y-74740000D02*
X75910000Y-74896000D01*
G04 #@! TO.C,D6*
X75910000Y-68390000D02*
X75910000Y-68546000D01*
X75910000Y-66074000D02*
X75910000Y-66230000D01*
X78511130Y-68389837D02*
G75*
G02X76429039Y-68390000I-1041130J1079837D01*
G01*
X78511130Y-66230163D02*
G75*
G03X76429039Y-66230000I-1041130J-1079837D01*
G01*
X79142335Y-68388608D02*
G75*
G02X75910000Y-68545516I-1672335J1078608D01*
G01*
X79142335Y-66231392D02*
G75*
G03X75910000Y-66074484I-1672335J-1078608D01*
G01*
G04 #@! TO.C,D5*
X79142335Y-59881392D02*
G75*
G03X75910000Y-59724484I-1672335J-1078608D01*
G01*
X79142335Y-62038608D02*
G75*
G02X75910000Y-62195516I-1672335J1078608D01*
G01*
X78511130Y-59880163D02*
G75*
G03X76429039Y-59880000I-1041130J-1079837D01*
G01*
X78511130Y-62039837D02*
G75*
G02X76429039Y-62040000I-1041130J1079837D01*
G01*
X75910000Y-59724000D02*
X75910000Y-59880000D01*
X75910000Y-62040000D02*
X75910000Y-62196000D01*
G04 #@! TO.C,D4*
X75910000Y-55690000D02*
X75910000Y-55846000D01*
X75910000Y-53374000D02*
X75910000Y-53530000D01*
X78511130Y-55689837D02*
G75*
G02X76429039Y-55690000I-1041130J1079837D01*
G01*
X78511130Y-53530163D02*
G75*
G03X76429039Y-53530000I-1041130J-1079837D01*
G01*
X79142335Y-55688608D02*
G75*
G02X75910000Y-55845516I-1672335J1078608D01*
G01*
X79142335Y-53531392D02*
G75*
G03X75910000Y-53374484I-1672335J-1078608D01*
G01*
G04 #@! TO.C,D3*
X79142335Y-47181392D02*
G75*
G03X75910000Y-47024484I-1672335J-1078608D01*
G01*
X79142335Y-49338608D02*
G75*
G02X75910000Y-49495516I-1672335J1078608D01*
G01*
X78511130Y-47180163D02*
G75*
G03X76429039Y-47180000I-1041130J-1079837D01*
G01*
X78511130Y-49339837D02*
G75*
G02X76429039Y-49340000I-1041130J1079837D01*
G01*
X75910000Y-47024000D02*
X75910000Y-47180000D01*
X75910000Y-49340000D02*
X75910000Y-49496000D01*
G04 #@! TO.C,D2*
X75910000Y-42990000D02*
X75910000Y-43146000D01*
X75910000Y-40674000D02*
X75910000Y-40830000D01*
X78511130Y-42989837D02*
G75*
G02X76429039Y-42990000I-1041130J1079837D01*
G01*
X78511130Y-40830163D02*
G75*
G03X76429039Y-40830000I-1041130J-1079837D01*
G01*
X79142335Y-42988608D02*
G75*
G02X75910000Y-43145516I-1672335J1078608D01*
G01*
X79142335Y-40831392D02*
G75*
G03X75910000Y-40674484I-1672335J-1078608D01*
G01*
G04 #@! TO.C,D20*
X91842335Y-53531392D02*
G75*
G03X88610000Y-53374484I-1672335J-1078608D01*
G01*
X91842335Y-55688608D02*
G75*
G02X88610000Y-55845516I-1672335J1078608D01*
G01*
X91211130Y-53530163D02*
G75*
G03X89129039Y-53530000I-1041130J-1079837D01*
G01*
X91211130Y-55689837D02*
G75*
G02X89129039Y-55690000I-1041130J1079837D01*
G01*
X88610000Y-53374000D02*
X88610000Y-53530000D01*
X88610000Y-55690000D02*
X88610000Y-55846000D01*
G04 #@! TO.C,D14*
X82260000Y-68390000D02*
X82260000Y-68546000D01*
X82260000Y-66074000D02*
X82260000Y-66230000D01*
X84861130Y-68389837D02*
G75*
G02X82779039Y-68390000I-1041130J1079837D01*
G01*
X84861130Y-66230163D02*
G75*
G03X82779039Y-66230000I-1041130J-1079837D01*
G01*
X85492335Y-68388608D02*
G75*
G02X82260000Y-68545516I-1672335J1078608D01*
G01*
X85492335Y-66231392D02*
G75*
G03X82260000Y-66074484I-1672335J-1078608D01*
G01*
G04 #@! TO.C,D36*
X104542335Y-53531392D02*
G75*
G03X101310000Y-53374484I-1672335J-1078608D01*
G01*
X104542335Y-55688608D02*
G75*
G02X101310000Y-55845516I-1672335J1078608D01*
G01*
X103911130Y-53530163D02*
G75*
G03X101829039Y-53530000I-1041130J-1079837D01*
G01*
X103911130Y-55689837D02*
G75*
G02X101829039Y-55690000I-1041130J1079837D01*
G01*
X101310000Y-53374000D02*
X101310000Y-53530000D01*
X101310000Y-55690000D02*
X101310000Y-55846000D01*
G04 #@! TO.C,R8*
X71350000Y-80010000D02*
X70580000Y-80010000D01*
X63270000Y-80010000D02*
X64040000Y-80010000D01*
X70580000Y-78640000D02*
X64040000Y-78640000D01*
X70580000Y-81380000D02*
X70580000Y-78640000D01*
X64040000Y-81380000D02*
X70580000Y-81380000D01*
X64040000Y-78640000D02*
X64040000Y-81380000D01*
G04 #@! TO.C,R1*
X64040000Y-34190000D02*
X64040000Y-36930000D01*
X64040000Y-36930000D02*
X70580000Y-36930000D01*
X70580000Y-36930000D02*
X70580000Y-34190000D01*
X70580000Y-34190000D02*
X64040000Y-34190000D01*
X63270000Y-35560000D02*
X64040000Y-35560000D01*
X71350000Y-35560000D02*
X70580000Y-35560000D01*
G04 #@! TO.C,R2*
X71350000Y-41910000D02*
X70580000Y-41910000D01*
X63270000Y-41910000D02*
X64040000Y-41910000D01*
X70580000Y-40540000D02*
X64040000Y-40540000D01*
X70580000Y-43280000D02*
X70580000Y-40540000D01*
X64040000Y-43280000D02*
X70580000Y-43280000D01*
X64040000Y-40540000D02*
X64040000Y-43280000D01*
G04 #@! TO.C,R3*
X64040000Y-46890000D02*
X64040000Y-49630000D01*
X64040000Y-49630000D02*
X70580000Y-49630000D01*
X70580000Y-49630000D02*
X70580000Y-46890000D01*
X70580000Y-46890000D02*
X64040000Y-46890000D01*
X63270000Y-48260000D02*
X64040000Y-48260000D01*
X71350000Y-48260000D02*
X70580000Y-48260000D01*
G04 #@! TO.C,R4*
X71350000Y-54610000D02*
X70580000Y-54610000D01*
X63270000Y-54610000D02*
X64040000Y-54610000D01*
X70580000Y-53240000D02*
X64040000Y-53240000D01*
X70580000Y-55980000D02*
X70580000Y-53240000D01*
X64040000Y-55980000D02*
X70580000Y-55980000D01*
X64040000Y-53240000D02*
X64040000Y-55980000D01*
G04 #@! TO.C,R5*
X64040000Y-59590000D02*
X64040000Y-62330000D01*
X64040000Y-62330000D02*
X70580000Y-62330000D01*
X70580000Y-62330000D02*
X70580000Y-59590000D01*
X70580000Y-59590000D02*
X64040000Y-59590000D01*
X63270000Y-60960000D02*
X64040000Y-60960000D01*
X71350000Y-60960000D02*
X70580000Y-60960000D01*
G04 #@! TO.C,R6*
X71350000Y-67310000D02*
X70580000Y-67310000D01*
X63270000Y-67310000D02*
X64040000Y-67310000D01*
X70580000Y-65940000D02*
X64040000Y-65940000D01*
X70580000Y-68680000D02*
X70580000Y-65940000D01*
X64040000Y-68680000D02*
X70580000Y-68680000D01*
X64040000Y-65940000D02*
X64040000Y-68680000D01*
G04 #@! TO.C,R7*
X64040000Y-72290000D02*
X64040000Y-75030000D01*
X64040000Y-75030000D02*
X70580000Y-75030000D01*
X70580000Y-75030000D02*
X70580000Y-72290000D01*
X70580000Y-72290000D02*
X64040000Y-72290000D01*
X63270000Y-73660000D02*
X64040000Y-73660000D01*
X71350000Y-73660000D02*
X70580000Y-73660000D01*
G04 #@! TO.C,J2*
D12*
X86022380Y-28273333D02*
X86736666Y-28273333D01*
X86879523Y-28320952D01*
X86974761Y-28416190D01*
X87022380Y-28559047D01*
X87022380Y-28654285D01*
X86117619Y-27844761D02*
X86070000Y-27797142D01*
X86022380Y-27701904D01*
X86022380Y-27463809D01*
X86070000Y-27368571D01*
X86117619Y-27320952D01*
X86212857Y-27273333D01*
X86308095Y-27273333D01*
X86450952Y-27320952D01*
X87022380Y-27892380D01*
X87022380Y-27273333D01*
G04 #@! TO.C,D41*
X108005714Y-33052380D02*
X108005714Y-32052380D01*
X108243809Y-32052380D01*
X108386666Y-32100000D01*
X108481904Y-32195238D01*
X108529523Y-32290476D01*
X108577142Y-32480952D01*
X108577142Y-32623809D01*
X108529523Y-32814285D01*
X108481904Y-32909523D01*
X108386666Y-33004761D01*
X108243809Y-33052380D01*
X108005714Y-33052380D01*
X109434285Y-32385714D02*
X109434285Y-33052380D01*
X109196190Y-32004761D02*
X108958095Y-32719047D01*
X109577142Y-32719047D01*
X110481904Y-33052380D02*
X109910476Y-33052380D01*
X110196190Y-33052380D02*
X110196190Y-32052380D01*
X110100952Y-32195238D01*
X110005714Y-32290476D01*
X109910476Y-32338095D01*
G04 #@! TO.C,D42*
X108005714Y-39402380D02*
X108005714Y-38402380D01*
X108243809Y-38402380D01*
X108386666Y-38450000D01*
X108481904Y-38545238D01*
X108529523Y-38640476D01*
X108577142Y-38830952D01*
X108577142Y-38973809D01*
X108529523Y-39164285D01*
X108481904Y-39259523D01*
X108386666Y-39354761D01*
X108243809Y-39402380D01*
X108005714Y-39402380D01*
X109434285Y-38735714D02*
X109434285Y-39402380D01*
X109196190Y-38354761D02*
X108958095Y-39069047D01*
X109577142Y-39069047D01*
X109910476Y-38497619D02*
X109958095Y-38450000D01*
X110053333Y-38402380D01*
X110291428Y-38402380D01*
X110386666Y-38450000D01*
X110434285Y-38497619D01*
X110481904Y-38592857D01*
X110481904Y-38688095D01*
X110434285Y-38830952D01*
X109862857Y-39402380D01*
X110481904Y-39402380D01*
G04 #@! TO.C,D58*
X120705714Y-39402380D02*
X120705714Y-38402380D01*
X120943809Y-38402380D01*
X121086666Y-38450000D01*
X121181904Y-38545238D01*
X121229523Y-38640476D01*
X121277142Y-38830952D01*
X121277142Y-38973809D01*
X121229523Y-39164285D01*
X121181904Y-39259523D01*
X121086666Y-39354761D01*
X120943809Y-39402380D01*
X120705714Y-39402380D01*
X122181904Y-38402380D02*
X121705714Y-38402380D01*
X121658095Y-38878571D01*
X121705714Y-38830952D01*
X121800952Y-38783333D01*
X122039047Y-38783333D01*
X122134285Y-38830952D01*
X122181904Y-38878571D01*
X122229523Y-38973809D01*
X122229523Y-39211904D01*
X122181904Y-39307142D01*
X122134285Y-39354761D01*
X122039047Y-39402380D01*
X121800952Y-39402380D01*
X121705714Y-39354761D01*
X121658095Y-39307142D01*
X122800952Y-38830952D02*
X122705714Y-38783333D01*
X122658095Y-38735714D01*
X122610476Y-38640476D01*
X122610476Y-38592857D01*
X122658095Y-38497619D01*
X122705714Y-38450000D01*
X122800952Y-38402380D01*
X122991428Y-38402380D01*
X123086666Y-38450000D01*
X123134285Y-38497619D01*
X123181904Y-38592857D01*
X123181904Y-38640476D01*
X123134285Y-38735714D01*
X123086666Y-38783333D01*
X122991428Y-38830952D01*
X122800952Y-38830952D01*
X122705714Y-38878571D01*
X122658095Y-38926190D01*
X122610476Y-39021428D01*
X122610476Y-39211904D01*
X122658095Y-39307142D01*
X122705714Y-39354761D01*
X122800952Y-39402380D01*
X122991428Y-39402380D01*
X123086666Y-39354761D01*
X123134285Y-39307142D01*
X123181904Y-39211904D01*
X123181904Y-39021428D01*
X123134285Y-38926190D01*
X123086666Y-38878571D01*
X122991428Y-38830952D01*
G04 #@! TO.C,D50*
X114355714Y-39402380D02*
X114355714Y-38402380D01*
X114593809Y-38402380D01*
X114736666Y-38450000D01*
X114831904Y-38545238D01*
X114879523Y-38640476D01*
X114927142Y-38830952D01*
X114927142Y-38973809D01*
X114879523Y-39164285D01*
X114831904Y-39259523D01*
X114736666Y-39354761D01*
X114593809Y-39402380D01*
X114355714Y-39402380D01*
X115831904Y-38402380D02*
X115355714Y-38402380D01*
X115308095Y-38878571D01*
X115355714Y-38830952D01*
X115450952Y-38783333D01*
X115689047Y-38783333D01*
X115784285Y-38830952D01*
X115831904Y-38878571D01*
X115879523Y-38973809D01*
X115879523Y-39211904D01*
X115831904Y-39307142D01*
X115784285Y-39354761D01*
X115689047Y-39402380D01*
X115450952Y-39402380D01*
X115355714Y-39354761D01*
X115308095Y-39307142D01*
X116498571Y-38402380D02*
X116593809Y-38402380D01*
X116689047Y-38450000D01*
X116736666Y-38497619D01*
X116784285Y-38592857D01*
X116831904Y-38783333D01*
X116831904Y-39021428D01*
X116784285Y-39211904D01*
X116736666Y-39307142D01*
X116689047Y-39354761D01*
X116593809Y-39402380D01*
X116498571Y-39402380D01*
X116403333Y-39354761D01*
X116355714Y-39307142D01*
X116308095Y-39211904D01*
X116260476Y-39021428D01*
X116260476Y-38783333D01*
X116308095Y-38592857D01*
X116355714Y-38497619D01*
X116403333Y-38450000D01*
X116498571Y-38402380D01*
G04 #@! TO.C,D57*
X120705714Y-33052380D02*
X120705714Y-32052380D01*
X120943809Y-32052380D01*
X121086666Y-32100000D01*
X121181904Y-32195238D01*
X121229523Y-32290476D01*
X121277142Y-32480952D01*
X121277142Y-32623809D01*
X121229523Y-32814285D01*
X121181904Y-32909523D01*
X121086666Y-33004761D01*
X120943809Y-33052380D01*
X120705714Y-33052380D01*
X122181904Y-32052380D02*
X121705714Y-32052380D01*
X121658095Y-32528571D01*
X121705714Y-32480952D01*
X121800952Y-32433333D01*
X122039047Y-32433333D01*
X122134285Y-32480952D01*
X122181904Y-32528571D01*
X122229523Y-32623809D01*
X122229523Y-32861904D01*
X122181904Y-32957142D01*
X122134285Y-33004761D01*
X122039047Y-33052380D01*
X121800952Y-33052380D01*
X121705714Y-33004761D01*
X121658095Y-32957142D01*
X122562857Y-32052380D02*
X123229523Y-32052380D01*
X122800952Y-33052380D01*
G04 #@! TO.C,D49*
X114355714Y-33052380D02*
X114355714Y-32052380D01*
X114593809Y-32052380D01*
X114736666Y-32100000D01*
X114831904Y-32195238D01*
X114879523Y-32290476D01*
X114927142Y-32480952D01*
X114927142Y-32623809D01*
X114879523Y-32814285D01*
X114831904Y-32909523D01*
X114736666Y-33004761D01*
X114593809Y-33052380D01*
X114355714Y-33052380D01*
X115784285Y-32385714D02*
X115784285Y-33052380D01*
X115546190Y-32004761D02*
X115308095Y-32719047D01*
X115927142Y-32719047D01*
X116355714Y-33052380D02*
X116546190Y-33052380D01*
X116641428Y-33004761D01*
X116689047Y-32957142D01*
X116784285Y-32814285D01*
X116831904Y-32623809D01*
X116831904Y-32242857D01*
X116784285Y-32147619D01*
X116736666Y-32100000D01*
X116641428Y-32052380D01*
X116450952Y-32052380D01*
X116355714Y-32100000D01*
X116308095Y-32147619D01*
X116260476Y-32242857D01*
X116260476Y-32480952D01*
X116308095Y-32576190D01*
X116355714Y-32623809D01*
X116450952Y-32671428D01*
X116641428Y-32671428D01*
X116736666Y-32623809D01*
X116784285Y-32576190D01*
X116831904Y-32480952D01*
G04 #@! TO.C,D52*
X114355714Y-52102380D02*
X114355714Y-51102380D01*
X114593809Y-51102380D01*
X114736666Y-51150000D01*
X114831904Y-51245238D01*
X114879523Y-51340476D01*
X114927142Y-51530952D01*
X114927142Y-51673809D01*
X114879523Y-51864285D01*
X114831904Y-51959523D01*
X114736666Y-52054761D01*
X114593809Y-52102380D01*
X114355714Y-52102380D01*
X115831904Y-51102380D02*
X115355714Y-51102380D01*
X115308095Y-51578571D01*
X115355714Y-51530952D01*
X115450952Y-51483333D01*
X115689047Y-51483333D01*
X115784285Y-51530952D01*
X115831904Y-51578571D01*
X115879523Y-51673809D01*
X115879523Y-51911904D01*
X115831904Y-52007142D01*
X115784285Y-52054761D01*
X115689047Y-52102380D01*
X115450952Y-52102380D01*
X115355714Y-52054761D01*
X115308095Y-52007142D01*
X116260476Y-51197619D02*
X116308095Y-51150000D01*
X116403333Y-51102380D01*
X116641428Y-51102380D01*
X116736666Y-51150000D01*
X116784285Y-51197619D01*
X116831904Y-51292857D01*
X116831904Y-51388095D01*
X116784285Y-51530952D01*
X116212857Y-52102380D01*
X116831904Y-52102380D01*
G04 #@! TO.C,D54*
X114355714Y-64802380D02*
X114355714Y-63802380D01*
X114593809Y-63802380D01*
X114736666Y-63850000D01*
X114831904Y-63945238D01*
X114879523Y-64040476D01*
X114927142Y-64230952D01*
X114927142Y-64373809D01*
X114879523Y-64564285D01*
X114831904Y-64659523D01*
X114736666Y-64754761D01*
X114593809Y-64802380D01*
X114355714Y-64802380D01*
X115831904Y-63802380D02*
X115355714Y-63802380D01*
X115308095Y-64278571D01*
X115355714Y-64230952D01*
X115450952Y-64183333D01*
X115689047Y-64183333D01*
X115784285Y-64230952D01*
X115831904Y-64278571D01*
X115879523Y-64373809D01*
X115879523Y-64611904D01*
X115831904Y-64707142D01*
X115784285Y-64754761D01*
X115689047Y-64802380D01*
X115450952Y-64802380D01*
X115355714Y-64754761D01*
X115308095Y-64707142D01*
X116736666Y-64135714D02*
X116736666Y-64802380D01*
X116498571Y-63754761D02*
X116260476Y-64469047D01*
X116879523Y-64469047D01*
G04 #@! TO.C,D55*
X114355714Y-71152380D02*
X114355714Y-70152380D01*
X114593809Y-70152380D01*
X114736666Y-70200000D01*
X114831904Y-70295238D01*
X114879523Y-70390476D01*
X114927142Y-70580952D01*
X114927142Y-70723809D01*
X114879523Y-70914285D01*
X114831904Y-71009523D01*
X114736666Y-71104761D01*
X114593809Y-71152380D01*
X114355714Y-71152380D01*
X115831904Y-70152380D02*
X115355714Y-70152380D01*
X115308095Y-70628571D01*
X115355714Y-70580952D01*
X115450952Y-70533333D01*
X115689047Y-70533333D01*
X115784285Y-70580952D01*
X115831904Y-70628571D01*
X115879523Y-70723809D01*
X115879523Y-70961904D01*
X115831904Y-71057142D01*
X115784285Y-71104761D01*
X115689047Y-71152380D01*
X115450952Y-71152380D01*
X115355714Y-71104761D01*
X115308095Y-71057142D01*
X116784285Y-70152380D02*
X116308095Y-70152380D01*
X116260476Y-70628571D01*
X116308095Y-70580952D01*
X116403333Y-70533333D01*
X116641428Y-70533333D01*
X116736666Y-70580952D01*
X116784285Y-70628571D01*
X116831904Y-70723809D01*
X116831904Y-70961904D01*
X116784285Y-71057142D01*
X116736666Y-71104761D01*
X116641428Y-71152380D01*
X116403333Y-71152380D01*
X116308095Y-71104761D01*
X116260476Y-71057142D01*
G04 #@! TO.C,D56*
X114355714Y-77502380D02*
X114355714Y-76502380D01*
X114593809Y-76502380D01*
X114736666Y-76550000D01*
X114831904Y-76645238D01*
X114879523Y-76740476D01*
X114927142Y-76930952D01*
X114927142Y-77073809D01*
X114879523Y-77264285D01*
X114831904Y-77359523D01*
X114736666Y-77454761D01*
X114593809Y-77502380D01*
X114355714Y-77502380D01*
X115831904Y-76502380D02*
X115355714Y-76502380D01*
X115308095Y-76978571D01*
X115355714Y-76930952D01*
X115450952Y-76883333D01*
X115689047Y-76883333D01*
X115784285Y-76930952D01*
X115831904Y-76978571D01*
X115879523Y-77073809D01*
X115879523Y-77311904D01*
X115831904Y-77407142D01*
X115784285Y-77454761D01*
X115689047Y-77502380D01*
X115450952Y-77502380D01*
X115355714Y-77454761D01*
X115308095Y-77407142D01*
X116736666Y-76502380D02*
X116546190Y-76502380D01*
X116450952Y-76550000D01*
X116403333Y-76597619D01*
X116308095Y-76740476D01*
X116260476Y-76930952D01*
X116260476Y-77311904D01*
X116308095Y-77407142D01*
X116355714Y-77454761D01*
X116450952Y-77502380D01*
X116641428Y-77502380D01*
X116736666Y-77454761D01*
X116784285Y-77407142D01*
X116831904Y-77311904D01*
X116831904Y-77073809D01*
X116784285Y-76978571D01*
X116736666Y-76930952D01*
X116641428Y-76883333D01*
X116450952Y-76883333D01*
X116355714Y-76930952D01*
X116308095Y-76978571D01*
X116260476Y-77073809D01*
G04 #@! TO.C,D59*
X120705714Y-45752380D02*
X120705714Y-44752380D01*
X120943809Y-44752380D01*
X121086666Y-44800000D01*
X121181904Y-44895238D01*
X121229523Y-44990476D01*
X121277142Y-45180952D01*
X121277142Y-45323809D01*
X121229523Y-45514285D01*
X121181904Y-45609523D01*
X121086666Y-45704761D01*
X120943809Y-45752380D01*
X120705714Y-45752380D01*
X122181904Y-44752380D02*
X121705714Y-44752380D01*
X121658095Y-45228571D01*
X121705714Y-45180952D01*
X121800952Y-45133333D01*
X122039047Y-45133333D01*
X122134285Y-45180952D01*
X122181904Y-45228571D01*
X122229523Y-45323809D01*
X122229523Y-45561904D01*
X122181904Y-45657142D01*
X122134285Y-45704761D01*
X122039047Y-45752380D01*
X121800952Y-45752380D01*
X121705714Y-45704761D01*
X121658095Y-45657142D01*
X122705714Y-45752380D02*
X122896190Y-45752380D01*
X122991428Y-45704761D01*
X123039047Y-45657142D01*
X123134285Y-45514285D01*
X123181904Y-45323809D01*
X123181904Y-44942857D01*
X123134285Y-44847619D01*
X123086666Y-44800000D01*
X122991428Y-44752380D01*
X122800952Y-44752380D01*
X122705714Y-44800000D01*
X122658095Y-44847619D01*
X122610476Y-44942857D01*
X122610476Y-45180952D01*
X122658095Y-45276190D01*
X122705714Y-45323809D01*
X122800952Y-45371428D01*
X122991428Y-45371428D01*
X123086666Y-45323809D01*
X123134285Y-45276190D01*
X123181904Y-45180952D01*
G04 #@! TO.C,D60*
X120705714Y-52102380D02*
X120705714Y-51102380D01*
X120943809Y-51102380D01*
X121086666Y-51150000D01*
X121181904Y-51245238D01*
X121229523Y-51340476D01*
X121277142Y-51530952D01*
X121277142Y-51673809D01*
X121229523Y-51864285D01*
X121181904Y-51959523D01*
X121086666Y-52054761D01*
X120943809Y-52102380D01*
X120705714Y-52102380D01*
X122134285Y-51102380D02*
X121943809Y-51102380D01*
X121848571Y-51150000D01*
X121800952Y-51197619D01*
X121705714Y-51340476D01*
X121658095Y-51530952D01*
X121658095Y-51911904D01*
X121705714Y-52007142D01*
X121753333Y-52054761D01*
X121848571Y-52102380D01*
X122039047Y-52102380D01*
X122134285Y-52054761D01*
X122181904Y-52007142D01*
X122229523Y-51911904D01*
X122229523Y-51673809D01*
X122181904Y-51578571D01*
X122134285Y-51530952D01*
X122039047Y-51483333D01*
X121848571Y-51483333D01*
X121753333Y-51530952D01*
X121705714Y-51578571D01*
X121658095Y-51673809D01*
X122848571Y-51102380D02*
X122943809Y-51102380D01*
X123039047Y-51150000D01*
X123086666Y-51197619D01*
X123134285Y-51292857D01*
X123181904Y-51483333D01*
X123181904Y-51721428D01*
X123134285Y-51911904D01*
X123086666Y-52007142D01*
X123039047Y-52054761D01*
X122943809Y-52102380D01*
X122848571Y-52102380D01*
X122753333Y-52054761D01*
X122705714Y-52007142D01*
X122658095Y-51911904D01*
X122610476Y-51721428D01*
X122610476Y-51483333D01*
X122658095Y-51292857D01*
X122705714Y-51197619D01*
X122753333Y-51150000D01*
X122848571Y-51102380D01*
G04 #@! TO.C,D61*
X120705714Y-58452380D02*
X120705714Y-57452380D01*
X120943809Y-57452380D01*
X121086666Y-57500000D01*
X121181904Y-57595238D01*
X121229523Y-57690476D01*
X121277142Y-57880952D01*
X121277142Y-58023809D01*
X121229523Y-58214285D01*
X121181904Y-58309523D01*
X121086666Y-58404761D01*
X120943809Y-58452380D01*
X120705714Y-58452380D01*
X122134285Y-57452380D02*
X121943809Y-57452380D01*
X121848571Y-57500000D01*
X121800952Y-57547619D01*
X121705714Y-57690476D01*
X121658095Y-57880952D01*
X121658095Y-58261904D01*
X121705714Y-58357142D01*
X121753333Y-58404761D01*
X121848571Y-58452380D01*
X122039047Y-58452380D01*
X122134285Y-58404761D01*
X122181904Y-58357142D01*
X122229523Y-58261904D01*
X122229523Y-58023809D01*
X122181904Y-57928571D01*
X122134285Y-57880952D01*
X122039047Y-57833333D01*
X121848571Y-57833333D01*
X121753333Y-57880952D01*
X121705714Y-57928571D01*
X121658095Y-58023809D01*
X123181904Y-58452380D02*
X122610476Y-58452380D01*
X122896190Y-58452380D02*
X122896190Y-57452380D01*
X122800952Y-57595238D01*
X122705714Y-57690476D01*
X122610476Y-57738095D01*
G04 #@! TO.C,D62*
X120705714Y-64802380D02*
X120705714Y-63802380D01*
X120943809Y-63802380D01*
X121086666Y-63850000D01*
X121181904Y-63945238D01*
X121229523Y-64040476D01*
X121277142Y-64230952D01*
X121277142Y-64373809D01*
X121229523Y-64564285D01*
X121181904Y-64659523D01*
X121086666Y-64754761D01*
X120943809Y-64802380D01*
X120705714Y-64802380D01*
X122134285Y-63802380D02*
X121943809Y-63802380D01*
X121848571Y-63850000D01*
X121800952Y-63897619D01*
X121705714Y-64040476D01*
X121658095Y-64230952D01*
X121658095Y-64611904D01*
X121705714Y-64707142D01*
X121753333Y-64754761D01*
X121848571Y-64802380D01*
X122039047Y-64802380D01*
X122134285Y-64754761D01*
X122181904Y-64707142D01*
X122229523Y-64611904D01*
X122229523Y-64373809D01*
X122181904Y-64278571D01*
X122134285Y-64230952D01*
X122039047Y-64183333D01*
X121848571Y-64183333D01*
X121753333Y-64230952D01*
X121705714Y-64278571D01*
X121658095Y-64373809D01*
X122610476Y-63897619D02*
X122658095Y-63850000D01*
X122753333Y-63802380D01*
X122991428Y-63802380D01*
X123086666Y-63850000D01*
X123134285Y-63897619D01*
X123181904Y-63992857D01*
X123181904Y-64088095D01*
X123134285Y-64230952D01*
X122562857Y-64802380D01*
X123181904Y-64802380D01*
G04 #@! TO.C,D63*
X120705714Y-71152380D02*
X120705714Y-70152380D01*
X120943809Y-70152380D01*
X121086666Y-70200000D01*
X121181904Y-70295238D01*
X121229523Y-70390476D01*
X121277142Y-70580952D01*
X121277142Y-70723809D01*
X121229523Y-70914285D01*
X121181904Y-71009523D01*
X121086666Y-71104761D01*
X120943809Y-71152380D01*
X120705714Y-71152380D01*
X122134285Y-70152380D02*
X121943809Y-70152380D01*
X121848571Y-70200000D01*
X121800952Y-70247619D01*
X121705714Y-70390476D01*
X121658095Y-70580952D01*
X121658095Y-70961904D01*
X121705714Y-71057142D01*
X121753333Y-71104761D01*
X121848571Y-71152380D01*
X122039047Y-71152380D01*
X122134285Y-71104761D01*
X122181904Y-71057142D01*
X122229523Y-70961904D01*
X122229523Y-70723809D01*
X122181904Y-70628571D01*
X122134285Y-70580952D01*
X122039047Y-70533333D01*
X121848571Y-70533333D01*
X121753333Y-70580952D01*
X121705714Y-70628571D01*
X121658095Y-70723809D01*
X122562857Y-70152380D02*
X123181904Y-70152380D01*
X122848571Y-70533333D01*
X122991428Y-70533333D01*
X123086666Y-70580952D01*
X123134285Y-70628571D01*
X123181904Y-70723809D01*
X123181904Y-70961904D01*
X123134285Y-71057142D01*
X123086666Y-71104761D01*
X122991428Y-71152380D01*
X122705714Y-71152380D01*
X122610476Y-71104761D01*
X122562857Y-71057142D01*
G04 #@! TO.C,D64*
X120705714Y-77502380D02*
X120705714Y-76502380D01*
X120943809Y-76502380D01*
X121086666Y-76550000D01*
X121181904Y-76645238D01*
X121229523Y-76740476D01*
X121277142Y-76930952D01*
X121277142Y-77073809D01*
X121229523Y-77264285D01*
X121181904Y-77359523D01*
X121086666Y-77454761D01*
X120943809Y-77502380D01*
X120705714Y-77502380D01*
X122134285Y-76502380D02*
X121943809Y-76502380D01*
X121848571Y-76550000D01*
X121800952Y-76597619D01*
X121705714Y-76740476D01*
X121658095Y-76930952D01*
X121658095Y-77311904D01*
X121705714Y-77407142D01*
X121753333Y-77454761D01*
X121848571Y-77502380D01*
X122039047Y-77502380D01*
X122134285Y-77454761D01*
X122181904Y-77407142D01*
X122229523Y-77311904D01*
X122229523Y-77073809D01*
X122181904Y-76978571D01*
X122134285Y-76930952D01*
X122039047Y-76883333D01*
X121848571Y-76883333D01*
X121753333Y-76930952D01*
X121705714Y-76978571D01*
X121658095Y-77073809D01*
X123086666Y-76835714D02*
X123086666Y-77502380D01*
X122848571Y-76454761D02*
X122610476Y-77169047D01*
X123229523Y-77169047D01*
G04 #@! TO.C,D10*
X82605714Y-39402380D02*
X82605714Y-38402380D01*
X82843809Y-38402380D01*
X82986666Y-38450000D01*
X83081904Y-38545238D01*
X83129523Y-38640476D01*
X83177142Y-38830952D01*
X83177142Y-38973809D01*
X83129523Y-39164285D01*
X83081904Y-39259523D01*
X82986666Y-39354761D01*
X82843809Y-39402380D01*
X82605714Y-39402380D01*
X84129523Y-39402380D02*
X83558095Y-39402380D01*
X83843809Y-39402380D02*
X83843809Y-38402380D01*
X83748571Y-38545238D01*
X83653333Y-38640476D01*
X83558095Y-38688095D01*
X84748571Y-38402380D02*
X84843809Y-38402380D01*
X84939047Y-38450000D01*
X84986666Y-38497619D01*
X85034285Y-38592857D01*
X85081904Y-38783333D01*
X85081904Y-39021428D01*
X85034285Y-39211904D01*
X84986666Y-39307142D01*
X84939047Y-39354761D01*
X84843809Y-39402380D01*
X84748571Y-39402380D01*
X84653333Y-39354761D01*
X84605714Y-39307142D01*
X84558095Y-39211904D01*
X84510476Y-39021428D01*
X84510476Y-38783333D01*
X84558095Y-38592857D01*
X84605714Y-38497619D01*
X84653333Y-38450000D01*
X84748571Y-38402380D01*
G04 #@! TO.C,D17*
X88955714Y-33052380D02*
X88955714Y-32052380D01*
X89193809Y-32052380D01*
X89336666Y-32100000D01*
X89431904Y-32195238D01*
X89479523Y-32290476D01*
X89527142Y-32480952D01*
X89527142Y-32623809D01*
X89479523Y-32814285D01*
X89431904Y-32909523D01*
X89336666Y-33004761D01*
X89193809Y-33052380D01*
X88955714Y-33052380D01*
X90479523Y-33052380D02*
X89908095Y-33052380D01*
X90193809Y-33052380D02*
X90193809Y-32052380D01*
X90098571Y-32195238D01*
X90003333Y-32290476D01*
X89908095Y-32338095D01*
X90812857Y-32052380D02*
X91479523Y-32052380D01*
X91050952Y-33052380D01*
G04 #@! TO.C,D15*
X82605714Y-71152380D02*
X82605714Y-70152380D01*
X82843809Y-70152380D01*
X82986666Y-70200000D01*
X83081904Y-70295238D01*
X83129523Y-70390476D01*
X83177142Y-70580952D01*
X83177142Y-70723809D01*
X83129523Y-70914285D01*
X83081904Y-71009523D01*
X82986666Y-71104761D01*
X82843809Y-71152380D01*
X82605714Y-71152380D01*
X84129523Y-71152380D02*
X83558095Y-71152380D01*
X83843809Y-71152380D02*
X83843809Y-70152380D01*
X83748571Y-70295238D01*
X83653333Y-70390476D01*
X83558095Y-70438095D01*
X85034285Y-70152380D02*
X84558095Y-70152380D01*
X84510476Y-70628571D01*
X84558095Y-70580952D01*
X84653333Y-70533333D01*
X84891428Y-70533333D01*
X84986666Y-70580952D01*
X85034285Y-70628571D01*
X85081904Y-70723809D01*
X85081904Y-70961904D01*
X85034285Y-71057142D01*
X84986666Y-71104761D01*
X84891428Y-71152380D01*
X84653333Y-71152380D01*
X84558095Y-71104761D01*
X84510476Y-71057142D01*
G04 #@! TO.C,D53*
X114355714Y-58452380D02*
X114355714Y-57452380D01*
X114593809Y-57452380D01*
X114736666Y-57500000D01*
X114831904Y-57595238D01*
X114879523Y-57690476D01*
X114927142Y-57880952D01*
X114927142Y-58023809D01*
X114879523Y-58214285D01*
X114831904Y-58309523D01*
X114736666Y-58404761D01*
X114593809Y-58452380D01*
X114355714Y-58452380D01*
X115831904Y-57452380D02*
X115355714Y-57452380D01*
X115308095Y-57928571D01*
X115355714Y-57880952D01*
X115450952Y-57833333D01*
X115689047Y-57833333D01*
X115784285Y-57880952D01*
X115831904Y-57928571D01*
X115879523Y-58023809D01*
X115879523Y-58261904D01*
X115831904Y-58357142D01*
X115784285Y-58404761D01*
X115689047Y-58452380D01*
X115450952Y-58452380D01*
X115355714Y-58404761D01*
X115308095Y-58357142D01*
X116212857Y-57452380D02*
X116831904Y-57452380D01*
X116498571Y-57833333D01*
X116641428Y-57833333D01*
X116736666Y-57880952D01*
X116784285Y-57928571D01*
X116831904Y-58023809D01*
X116831904Y-58261904D01*
X116784285Y-58357142D01*
X116736666Y-58404761D01*
X116641428Y-58452380D01*
X116355714Y-58452380D01*
X116260476Y-58404761D01*
X116212857Y-58357142D01*
G04 #@! TO.C,D51*
X114355714Y-45752380D02*
X114355714Y-44752380D01*
X114593809Y-44752380D01*
X114736666Y-44800000D01*
X114831904Y-44895238D01*
X114879523Y-44990476D01*
X114927142Y-45180952D01*
X114927142Y-45323809D01*
X114879523Y-45514285D01*
X114831904Y-45609523D01*
X114736666Y-45704761D01*
X114593809Y-45752380D01*
X114355714Y-45752380D01*
X115831904Y-44752380D02*
X115355714Y-44752380D01*
X115308095Y-45228571D01*
X115355714Y-45180952D01*
X115450952Y-45133333D01*
X115689047Y-45133333D01*
X115784285Y-45180952D01*
X115831904Y-45228571D01*
X115879523Y-45323809D01*
X115879523Y-45561904D01*
X115831904Y-45657142D01*
X115784285Y-45704761D01*
X115689047Y-45752380D01*
X115450952Y-45752380D01*
X115355714Y-45704761D01*
X115308095Y-45657142D01*
X116831904Y-45752380D02*
X116260476Y-45752380D01*
X116546190Y-45752380D02*
X116546190Y-44752380D01*
X116450952Y-44895238D01*
X116355714Y-44990476D01*
X116260476Y-45038095D01*
G04 #@! TO.C,D38*
X101655714Y-64802380D02*
X101655714Y-63802380D01*
X101893809Y-63802380D01*
X102036666Y-63850000D01*
X102131904Y-63945238D01*
X102179523Y-64040476D01*
X102227142Y-64230952D01*
X102227142Y-64373809D01*
X102179523Y-64564285D01*
X102131904Y-64659523D01*
X102036666Y-64754761D01*
X101893809Y-64802380D01*
X101655714Y-64802380D01*
X102560476Y-63802380D02*
X103179523Y-63802380D01*
X102846190Y-64183333D01*
X102989047Y-64183333D01*
X103084285Y-64230952D01*
X103131904Y-64278571D01*
X103179523Y-64373809D01*
X103179523Y-64611904D01*
X103131904Y-64707142D01*
X103084285Y-64754761D01*
X102989047Y-64802380D01*
X102703333Y-64802380D01*
X102608095Y-64754761D01*
X102560476Y-64707142D01*
X103750952Y-64230952D02*
X103655714Y-64183333D01*
X103608095Y-64135714D01*
X103560476Y-64040476D01*
X103560476Y-63992857D01*
X103608095Y-63897619D01*
X103655714Y-63850000D01*
X103750952Y-63802380D01*
X103941428Y-63802380D01*
X104036666Y-63850000D01*
X104084285Y-63897619D01*
X104131904Y-63992857D01*
X104131904Y-64040476D01*
X104084285Y-64135714D01*
X104036666Y-64183333D01*
X103941428Y-64230952D01*
X103750952Y-64230952D01*
X103655714Y-64278571D01*
X103608095Y-64326190D01*
X103560476Y-64421428D01*
X103560476Y-64611904D01*
X103608095Y-64707142D01*
X103655714Y-64754761D01*
X103750952Y-64802380D01*
X103941428Y-64802380D01*
X104036666Y-64754761D01*
X104084285Y-64707142D01*
X104131904Y-64611904D01*
X104131904Y-64421428D01*
X104084285Y-64326190D01*
X104036666Y-64278571D01*
X103941428Y-64230952D01*
G04 #@! TO.C,D39*
X101655714Y-71152380D02*
X101655714Y-70152380D01*
X101893809Y-70152380D01*
X102036666Y-70200000D01*
X102131904Y-70295238D01*
X102179523Y-70390476D01*
X102227142Y-70580952D01*
X102227142Y-70723809D01*
X102179523Y-70914285D01*
X102131904Y-71009523D01*
X102036666Y-71104761D01*
X101893809Y-71152380D01*
X101655714Y-71152380D01*
X102560476Y-70152380D02*
X103179523Y-70152380D01*
X102846190Y-70533333D01*
X102989047Y-70533333D01*
X103084285Y-70580952D01*
X103131904Y-70628571D01*
X103179523Y-70723809D01*
X103179523Y-70961904D01*
X103131904Y-71057142D01*
X103084285Y-71104761D01*
X102989047Y-71152380D01*
X102703333Y-71152380D01*
X102608095Y-71104761D01*
X102560476Y-71057142D01*
X103655714Y-71152380D02*
X103846190Y-71152380D01*
X103941428Y-71104761D01*
X103989047Y-71057142D01*
X104084285Y-70914285D01*
X104131904Y-70723809D01*
X104131904Y-70342857D01*
X104084285Y-70247619D01*
X104036666Y-70200000D01*
X103941428Y-70152380D01*
X103750952Y-70152380D01*
X103655714Y-70200000D01*
X103608095Y-70247619D01*
X103560476Y-70342857D01*
X103560476Y-70580952D01*
X103608095Y-70676190D01*
X103655714Y-70723809D01*
X103750952Y-70771428D01*
X103941428Y-70771428D01*
X104036666Y-70723809D01*
X104084285Y-70676190D01*
X104131904Y-70580952D01*
G04 #@! TO.C,D40*
X101655714Y-77502380D02*
X101655714Y-76502380D01*
X101893809Y-76502380D01*
X102036666Y-76550000D01*
X102131904Y-76645238D01*
X102179523Y-76740476D01*
X102227142Y-76930952D01*
X102227142Y-77073809D01*
X102179523Y-77264285D01*
X102131904Y-77359523D01*
X102036666Y-77454761D01*
X101893809Y-77502380D01*
X101655714Y-77502380D01*
X103084285Y-76835714D02*
X103084285Y-77502380D01*
X102846190Y-76454761D02*
X102608095Y-77169047D01*
X103227142Y-77169047D01*
X103798571Y-76502380D02*
X103893809Y-76502380D01*
X103989047Y-76550000D01*
X104036666Y-76597619D01*
X104084285Y-76692857D01*
X104131904Y-76883333D01*
X104131904Y-77121428D01*
X104084285Y-77311904D01*
X104036666Y-77407142D01*
X103989047Y-77454761D01*
X103893809Y-77502380D01*
X103798571Y-77502380D01*
X103703333Y-77454761D01*
X103655714Y-77407142D01*
X103608095Y-77311904D01*
X103560476Y-77121428D01*
X103560476Y-76883333D01*
X103608095Y-76692857D01*
X103655714Y-76597619D01*
X103703333Y-76550000D01*
X103798571Y-76502380D01*
G04 #@! TO.C,D43*
X108005714Y-45752380D02*
X108005714Y-44752380D01*
X108243809Y-44752380D01*
X108386666Y-44800000D01*
X108481904Y-44895238D01*
X108529523Y-44990476D01*
X108577142Y-45180952D01*
X108577142Y-45323809D01*
X108529523Y-45514285D01*
X108481904Y-45609523D01*
X108386666Y-45704761D01*
X108243809Y-45752380D01*
X108005714Y-45752380D01*
X109434285Y-45085714D02*
X109434285Y-45752380D01*
X109196190Y-44704761D02*
X108958095Y-45419047D01*
X109577142Y-45419047D01*
X109862857Y-44752380D02*
X110481904Y-44752380D01*
X110148571Y-45133333D01*
X110291428Y-45133333D01*
X110386666Y-45180952D01*
X110434285Y-45228571D01*
X110481904Y-45323809D01*
X110481904Y-45561904D01*
X110434285Y-45657142D01*
X110386666Y-45704761D01*
X110291428Y-45752380D01*
X110005714Y-45752380D01*
X109910476Y-45704761D01*
X109862857Y-45657142D01*
G04 #@! TO.C,D44*
X108005714Y-52102380D02*
X108005714Y-51102380D01*
X108243809Y-51102380D01*
X108386666Y-51150000D01*
X108481904Y-51245238D01*
X108529523Y-51340476D01*
X108577142Y-51530952D01*
X108577142Y-51673809D01*
X108529523Y-51864285D01*
X108481904Y-51959523D01*
X108386666Y-52054761D01*
X108243809Y-52102380D01*
X108005714Y-52102380D01*
X109434285Y-51435714D02*
X109434285Y-52102380D01*
X109196190Y-51054761D02*
X108958095Y-51769047D01*
X109577142Y-51769047D01*
X110386666Y-51435714D02*
X110386666Y-52102380D01*
X110148571Y-51054761D02*
X109910476Y-51769047D01*
X110529523Y-51769047D01*
G04 #@! TO.C,D45*
X108005714Y-58452380D02*
X108005714Y-57452380D01*
X108243809Y-57452380D01*
X108386666Y-57500000D01*
X108481904Y-57595238D01*
X108529523Y-57690476D01*
X108577142Y-57880952D01*
X108577142Y-58023809D01*
X108529523Y-58214285D01*
X108481904Y-58309523D01*
X108386666Y-58404761D01*
X108243809Y-58452380D01*
X108005714Y-58452380D01*
X109434285Y-57785714D02*
X109434285Y-58452380D01*
X109196190Y-57404761D02*
X108958095Y-58119047D01*
X109577142Y-58119047D01*
X110434285Y-57452380D02*
X109958095Y-57452380D01*
X109910476Y-57928571D01*
X109958095Y-57880952D01*
X110053333Y-57833333D01*
X110291428Y-57833333D01*
X110386666Y-57880952D01*
X110434285Y-57928571D01*
X110481904Y-58023809D01*
X110481904Y-58261904D01*
X110434285Y-58357142D01*
X110386666Y-58404761D01*
X110291428Y-58452380D01*
X110053333Y-58452380D01*
X109958095Y-58404761D01*
X109910476Y-58357142D01*
G04 #@! TO.C,D46*
X108005714Y-64802380D02*
X108005714Y-63802380D01*
X108243809Y-63802380D01*
X108386666Y-63850000D01*
X108481904Y-63945238D01*
X108529523Y-64040476D01*
X108577142Y-64230952D01*
X108577142Y-64373809D01*
X108529523Y-64564285D01*
X108481904Y-64659523D01*
X108386666Y-64754761D01*
X108243809Y-64802380D01*
X108005714Y-64802380D01*
X109434285Y-64135714D02*
X109434285Y-64802380D01*
X109196190Y-63754761D02*
X108958095Y-64469047D01*
X109577142Y-64469047D01*
X110386666Y-63802380D02*
X110196190Y-63802380D01*
X110100952Y-63850000D01*
X110053333Y-63897619D01*
X109958095Y-64040476D01*
X109910476Y-64230952D01*
X109910476Y-64611904D01*
X109958095Y-64707142D01*
X110005714Y-64754761D01*
X110100952Y-64802380D01*
X110291428Y-64802380D01*
X110386666Y-64754761D01*
X110434285Y-64707142D01*
X110481904Y-64611904D01*
X110481904Y-64373809D01*
X110434285Y-64278571D01*
X110386666Y-64230952D01*
X110291428Y-64183333D01*
X110100952Y-64183333D01*
X110005714Y-64230952D01*
X109958095Y-64278571D01*
X109910476Y-64373809D01*
G04 #@! TO.C,D47*
X108005714Y-71152380D02*
X108005714Y-70152380D01*
X108243809Y-70152380D01*
X108386666Y-70200000D01*
X108481904Y-70295238D01*
X108529523Y-70390476D01*
X108577142Y-70580952D01*
X108577142Y-70723809D01*
X108529523Y-70914285D01*
X108481904Y-71009523D01*
X108386666Y-71104761D01*
X108243809Y-71152380D01*
X108005714Y-71152380D01*
X109434285Y-70485714D02*
X109434285Y-71152380D01*
X109196190Y-70104761D02*
X108958095Y-70819047D01*
X109577142Y-70819047D01*
X109862857Y-70152380D02*
X110529523Y-70152380D01*
X110100952Y-71152380D01*
G04 #@! TO.C,D48*
X108005714Y-77502380D02*
X108005714Y-76502380D01*
X108243809Y-76502380D01*
X108386666Y-76550000D01*
X108481904Y-76645238D01*
X108529523Y-76740476D01*
X108577142Y-76930952D01*
X108577142Y-77073809D01*
X108529523Y-77264285D01*
X108481904Y-77359523D01*
X108386666Y-77454761D01*
X108243809Y-77502380D01*
X108005714Y-77502380D01*
X109434285Y-76835714D02*
X109434285Y-77502380D01*
X109196190Y-76454761D02*
X108958095Y-77169047D01*
X109577142Y-77169047D01*
X110100952Y-76930952D02*
X110005714Y-76883333D01*
X109958095Y-76835714D01*
X109910476Y-76740476D01*
X109910476Y-76692857D01*
X109958095Y-76597619D01*
X110005714Y-76550000D01*
X110100952Y-76502380D01*
X110291428Y-76502380D01*
X110386666Y-76550000D01*
X110434285Y-76597619D01*
X110481904Y-76692857D01*
X110481904Y-76740476D01*
X110434285Y-76835714D01*
X110386666Y-76883333D01*
X110291428Y-76930952D01*
X110100952Y-76930952D01*
X110005714Y-76978571D01*
X109958095Y-77026190D01*
X109910476Y-77121428D01*
X109910476Y-77311904D01*
X109958095Y-77407142D01*
X110005714Y-77454761D01*
X110100952Y-77502380D01*
X110291428Y-77502380D01*
X110386666Y-77454761D01*
X110434285Y-77407142D01*
X110481904Y-77311904D01*
X110481904Y-77121428D01*
X110434285Y-77026190D01*
X110386666Y-76978571D01*
X110291428Y-76930952D01*
G04 #@! TO.C,D1*
X76731904Y-33052380D02*
X76731904Y-32052380D01*
X76970000Y-32052380D01*
X77112857Y-32100000D01*
X77208095Y-32195238D01*
X77255714Y-32290476D01*
X77303333Y-32480952D01*
X77303333Y-32623809D01*
X77255714Y-32814285D01*
X77208095Y-32909523D01*
X77112857Y-33004761D01*
X76970000Y-33052380D01*
X76731904Y-33052380D01*
X78255714Y-33052380D02*
X77684285Y-33052380D01*
X77970000Y-33052380D02*
X77970000Y-32052380D01*
X77874761Y-32195238D01*
X77779523Y-32290476D01*
X77684285Y-32338095D01*
G04 #@! TO.C,D16*
X82605714Y-77502380D02*
X82605714Y-76502380D01*
X82843809Y-76502380D01*
X82986666Y-76550000D01*
X83081904Y-76645238D01*
X83129523Y-76740476D01*
X83177142Y-76930952D01*
X83177142Y-77073809D01*
X83129523Y-77264285D01*
X83081904Y-77359523D01*
X82986666Y-77454761D01*
X82843809Y-77502380D01*
X82605714Y-77502380D01*
X84129523Y-77502380D02*
X83558095Y-77502380D01*
X83843809Y-77502380D02*
X83843809Y-76502380D01*
X83748571Y-76645238D01*
X83653333Y-76740476D01*
X83558095Y-76788095D01*
X84986666Y-76502380D02*
X84796190Y-76502380D01*
X84700952Y-76550000D01*
X84653333Y-76597619D01*
X84558095Y-76740476D01*
X84510476Y-76930952D01*
X84510476Y-77311904D01*
X84558095Y-77407142D01*
X84605714Y-77454761D01*
X84700952Y-77502380D01*
X84891428Y-77502380D01*
X84986666Y-77454761D01*
X85034285Y-77407142D01*
X85081904Y-77311904D01*
X85081904Y-77073809D01*
X85034285Y-76978571D01*
X84986666Y-76930952D01*
X84891428Y-76883333D01*
X84700952Y-76883333D01*
X84605714Y-76930952D01*
X84558095Y-76978571D01*
X84510476Y-77073809D01*
G04 #@! TO.C,D19*
X88955714Y-45752380D02*
X88955714Y-44752380D01*
X89193809Y-44752380D01*
X89336666Y-44800000D01*
X89431904Y-44895238D01*
X89479523Y-44990476D01*
X89527142Y-45180952D01*
X89527142Y-45323809D01*
X89479523Y-45514285D01*
X89431904Y-45609523D01*
X89336666Y-45704761D01*
X89193809Y-45752380D01*
X88955714Y-45752380D01*
X90479523Y-45752380D02*
X89908095Y-45752380D01*
X90193809Y-45752380D02*
X90193809Y-44752380D01*
X90098571Y-44895238D01*
X90003333Y-44990476D01*
X89908095Y-45038095D01*
X90955714Y-45752380D02*
X91146190Y-45752380D01*
X91241428Y-45704761D01*
X91289047Y-45657142D01*
X91384285Y-45514285D01*
X91431904Y-45323809D01*
X91431904Y-44942857D01*
X91384285Y-44847619D01*
X91336666Y-44800000D01*
X91241428Y-44752380D01*
X91050952Y-44752380D01*
X90955714Y-44800000D01*
X90908095Y-44847619D01*
X90860476Y-44942857D01*
X90860476Y-45180952D01*
X90908095Y-45276190D01*
X90955714Y-45323809D01*
X91050952Y-45371428D01*
X91241428Y-45371428D01*
X91336666Y-45323809D01*
X91384285Y-45276190D01*
X91431904Y-45180952D01*
G04 #@! TO.C,D21*
X88955714Y-58452380D02*
X88955714Y-57452380D01*
X89193809Y-57452380D01*
X89336666Y-57500000D01*
X89431904Y-57595238D01*
X89479523Y-57690476D01*
X89527142Y-57880952D01*
X89527142Y-58023809D01*
X89479523Y-58214285D01*
X89431904Y-58309523D01*
X89336666Y-58404761D01*
X89193809Y-58452380D01*
X88955714Y-58452380D01*
X89908095Y-57547619D02*
X89955714Y-57500000D01*
X90050952Y-57452380D01*
X90289047Y-57452380D01*
X90384285Y-57500000D01*
X90431904Y-57547619D01*
X90479523Y-57642857D01*
X90479523Y-57738095D01*
X90431904Y-57880952D01*
X89860476Y-58452380D01*
X90479523Y-58452380D01*
X91431904Y-58452380D02*
X90860476Y-58452380D01*
X91146190Y-58452380D02*
X91146190Y-57452380D01*
X91050952Y-57595238D01*
X90955714Y-57690476D01*
X90860476Y-57738095D01*
G04 #@! TO.C,D22*
X88955714Y-64802380D02*
X88955714Y-63802380D01*
X89193809Y-63802380D01*
X89336666Y-63850000D01*
X89431904Y-63945238D01*
X89479523Y-64040476D01*
X89527142Y-64230952D01*
X89527142Y-64373809D01*
X89479523Y-64564285D01*
X89431904Y-64659523D01*
X89336666Y-64754761D01*
X89193809Y-64802380D01*
X88955714Y-64802380D01*
X89908095Y-63897619D02*
X89955714Y-63850000D01*
X90050952Y-63802380D01*
X90289047Y-63802380D01*
X90384285Y-63850000D01*
X90431904Y-63897619D01*
X90479523Y-63992857D01*
X90479523Y-64088095D01*
X90431904Y-64230952D01*
X89860476Y-64802380D01*
X90479523Y-64802380D01*
X90860476Y-63897619D02*
X90908095Y-63850000D01*
X91003333Y-63802380D01*
X91241428Y-63802380D01*
X91336666Y-63850000D01*
X91384285Y-63897619D01*
X91431904Y-63992857D01*
X91431904Y-64088095D01*
X91384285Y-64230952D01*
X90812857Y-64802380D01*
X91431904Y-64802380D01*
G04 #@! TO.C,D23*
X88955714Y-71152380D02*
X88955714Y-70152380D01*
X89193809Y-70152380D01*
X89336666Y-70200000D01*
X89431904Y-70295238D01*
X89479523Y-70390476D01*
X89527142Y-70580952D01*
X89527142Y-70723809D01*
X89479523Y-70914285D01*
X89431904Y-71009523D01*
X89336666Y-71104761D01*
X89193809Y-71152380D01*
X88955714Y-71152380D01*
X89908095Y-70247619D02*
X89955714Y-70200000D01*
X90050952Y-70152380D01*
X90289047Y-70152380D01*
X90384285Y-70200000D01*
X90431904Y-70247619D01*
X90479523Y-70342857D01*
X90479523Y-70438095D01*
X90431904Y-70580952D01*
X89860476Y-71152380D01*
X90479523Y-71152380D01*
X90812857Y-70152380D02*
X91431904Y-70152380D01*
X91098571Y-70533333D01*
X91241428Y-70533333D01*
X91336666Y-70580952D01*
X91384285Y-70628571D01*
X91431904Y-70723809D01*
X91431904Y-70961904D01*
X91384285Y-71057142D01*
X91336666Y-71104761D01*
X91241428Y-71152380D01*
X90955714Y-71152380D01*
X90860476Y-71104761D01*
X90812857Y-71057142D01*
G04 #@! TO.C,D24*
X88955714Y-77502380D02*
X88955714Y-76502380D01*
X89193809Y-76502380D01*
X89336666Y-76550000D01*
X89431904Y-76645238D01*
X89479523Y-76740476D01*
X89527142Y-76930952D01*
X89527142Y-77073809D01*
X89479523Y-77264285D01*
X89431904Y-77359523D01*
X89336666Y-77454761D01*
X89193809Y-77502380D01*
X88955714Y-77502380D01*
X89908095Y-76597619D02*
X89955714Y-76550000D01*
X90050952Y-76502380D01*
X90289047Y-76502380D01*
X90384285Y-76550000D01*
X90431904Y-76597619D01*
X90479523Y-76692857D01*
X90479523Y-76788095D01*
X90431904Y-76930952D01*
X89860476Y-77502380D01*
X90479523Y-77502380D01*
X91336666Y-76835714D02*
X91336666Y-77502380D01*
X91098571Y-76454761D02*
X90860476Y-77169047D01*
X91479523Y-77169047D01*
G04 #@! TO.C,D25*
X95305714Y-33052380D02*
X95305714Y-32052380D01*
X95543809Y-32052380D01*
X95686666Y-32100000D01*
X95781904Y-32195238D01*
X95829523Y-32290476D01*
X95877142Y-32480952D01*
X95877142Y-32623809D01*
X95829523Y-32814285D01*
X95781904Y-32909523D01*
X95686666Y-33004761D01*
X95543809Y-33052380D01*
X95305714Y-33052380D01*
X96258095Y-32147619D02*
X96305714Y-32100000D01*
X96400952Y-32052380D01*
X96639047Y-32052380D01*
X96734285Y-32100000D01*
X96781904Y-32147619D01*
X96829523Y-32242857D01*
X96829523Y-32338095D01*
X96781904Y-32480952D01*
X96210476Y-33052380D01*
X96829523Y-33052380D01*
X97734285Y-32052380D02*
X97258095Y-32052380D01*
X97210476Y-32528571D01*
X97258095Y-32480952D01*
X97353333Y-32433333D01*
X97591428Y-32433333D01*
X97686666Y-32480952D01*
X97734285Y-32528571D01*
X97781904Y-32623809D01*
X97781904Y-32861904D01*
X97734285Y-32957142D01*
X97686666Y-33004761D01*
X97591428Y-33052380D01*
X97353333Y-33052380D01*
X97258095Y-33004761D01*
X97210476Y-32957142D01*
G04 #@! TO.C,D26*
X95305714Y-39402380D02*
X95305714Y-38402380D01*
X95543809Y-38402380D01*
X95686666Y-38450000D01*
X95781904Y-38545238D01*
X95829523Y-38640476D01*
X95877142Y-38830952D01*
X95877142Y-38973809D01*
X95829523Y-39164285D01*
X95781904Y-39259523D01*
X95686666Y-39354761D01*
X95543809Y-39402380D01*
X95305714Y-39402380D01*
X96258095Y-38497619D02*
X96305714Y-38450000D01*
X96400952Y-38402380D01*
X96639047Y-38402380D01*
X96734285Y-38450000D01*
X96781904Y-38497619D01*
X96829523Y-38592857D01*
X96829523Y-38688095D01*
X96781904Y-38830952D01*
X96210476Y-39402380D01*
X96829523Y-39402380D01*
X97686666Y-38402380D02*
X97496190Y-38402380D01*
X97400952Y-38450000D01*
X97353333Y-38497619D01*
X97258095Y-38640476D01*
X97210476Y-38830952D01*
X97210476Y-39211904D01*
X97258095Y-39307142D01*
X97305714Y-39354761D01*
X97400952Y-39402380D01*
X97591428Y-39402380D01*
X97686666Y-39354761D01*
X97734285Y-39307142D01*
X97781904Y-39211904D01*
X97781904Y-38973809D01*
X97734285Y-38878571D01*
X97686666Y-38830952D01*
X97591428Y-38783333D01*
X97400952Y-38783333D01*
X97305714Y-38830952D01*
X97258095Y-38878571D01*
X97210476Y-38973809D01*
G04 #@! TO.C,D27*
X95305714Y-45752380D02*
X95305714Y-44752380D01*
X95543809Y-44752380D01*
X95686666Y-44800000D01*
X95781904Y-44895238D01*
X95829523Y-44990476D01*
X95877142Y-45180952D01*
X95877142Y-45323809D01*
X95829523Y-45514285D01*
X95781904Y-45609523D01*
X95686666Y-45704761D01*
X95543809Y-45752380D01*
X95305714Y-45752380D01*
X96258095Y-44847619D02*
X96305714Y-44800000D01*
X96400952Y-44752380D01*
X96639047Y-44752380D01*
X96734285Y-44800000D01*
X96781904Y-44847619D01*
X96829523Y-44942857D01*
X96829523Y-45038095D01*
X96781904Y-45180952D01*
X96210476Y-45752380D01*
X96829523Y-45752380D01*
X97162857Y-44752380D02*
X97829523Y-44752380D01*
X97400952Y-45752380D01*
G04 #@! TO.C,D28*
X95305714Y-52102380D02*
X95305714Y-51102380D01*
X95543809Y-51102380D01*
X95686666Y-51150000D01*
X95781904Y-51245238D01*
X95829523Y-51340476D01*
X95877142Y-51530952D01*
X95877142Y-51673809D01*
X95829523Y-51864285D01*
X95781904Y-51959523D01*
X95686666Y-52054761D01*
X95543809Y-52102380D01*
X95305714Y-52102380D01*
X96258095Y-51197619D02*
X96305714Y-51150000D01*
X96400952Y-51102380D01*
X96639047Y-51102380D01*
X96734285Y-51150000D01*
X96781904Y-51197619D01*
X96829523Y-51292857D01*
X96829523Y-51388095D01*
X96781904Y-51530952D01*
X96210476Y-52102380D01*
X96829523Y-52102380D01*
X97400952Y-51530952D02*
X97305714Y-51483333D01*
X97258095Y-51435714D01*
X97210476Y-51340476D01*
X97210476Y-51292857D01*
X97258095Y-51197619D01*
X97305714Y-51150000D01*
X97400952Y-51102380D01*
X97591428Y-51102380D01*
X97686666Y-51150000D01*
X97734285Y-51197619D01*
X97781904Y-51292857D01*
X97781904Y-51340476D01*
X97734285Y-51435714D01*
X97686666Y-51483333D01*
X97591428Y-51530952D01*
X97400952Y-51530952D01*
X97305714Y-51578571D01*
X97258095Y-51626190D01*
X97210476Y-51721428D01*
X97210476Y-51911904D01*
X97258095Y-52007142D01*
X97305714Y-52054761D01*
X97400952Y-52102380D01*
X97591428Y-52102380D01*
X97686666Y-52054761D01*
X97734285Y-52007142D01*
X97781904Y-51911904D01*
X97781904Y-51721428D01*
X97734285Y-51626190D01*
X97686666Y-51578571D01*
X97591428Y-51530952D01*
G04 #@! TO.C,D29*
X95305714Y-58452380D02*
X95305714Y-57452380D01*
X95543809Y-57452380D01*
X95686666Y-57500000D01*
X95781904Y-57595238D01*
X95829523Y-57690476D01*
X95877142Y-57880952D01*
X95877142Y-58023809D01*
X95829523Y-58214285D01*
X95781904Y-58309523D01*
X95686666Y-58404761D01*
X95543809Y-58452380D01*
X95305714Y-58452380D01*
X96258095Y-57547619D02*
X96305714Y-57500000D01*
X96400952Y-57452380D01*
X96639047Y-57452380D01*
X96734285Y-57500000D01*
X96781904Y-57547619D01*
X96829523Y-57642857D01*
X96829523Y-57738095D01*
X96781904Y-57880952D01*
X96210476Y-58452380D01*
X96829523Y-58452380D01*
X97305714Y-58452380D02*
X97496190Y-58452380D01*
X97591428Y-58404761D01*
X97639047Y-58357142D01*
X97734285Y-58214285D01*
X97781904Y-58023809D01*
X97781904Y-57642857D01*
X97734285Y-57547619D01*
X97686666Y-57500000D01*
X97591428Y-57452380D01*
X97400952Y-57452380D01*
X97305714Y-57500000D01*
X97258095Y-57547619D01*
X97210476Y-57642857D01*
X97210476Y-57880952D01*
X97258095Y-57976190D01*
X97305714Y-58023809D01*
X97400952Y-58071428D01*
X97591428Y-58071428D01*
X97686666Y-58023809D01*
X97734285Y-57976190D01*
X97781904Y-57880952D01*
G04 #@! TO.C,D30*
X95305714Y-64802380D02*
X95305714Y-63802380D01*
X95543809Y-63802380D01*
X95686666Y-63850000D01*
X95781904Y-63945238D01*
X95829523Y-64040476D01*
X95877142Y-64230952D01*
X95877142Y-64373809D01*
X95829523Y-64564285D01*
X95781904Y-64659523D01*
X95686666Y-64754761D01*
X95543809Y-64802380D01*
X95305714Y-64802380D01*
X96210476Y-63802380D02*
X96829523Y-63802380D01*
X96496190Y-64183333D01*
X96639047Y-64183333D01*
X96734285Y-64230952D01*
X96781904Y-64278571D01*
X96829523Y-64373809D01*
X96829523Y-64611904D01*
X96781904Y-64707142D01*
X96734285Y-64754761D01*
X96639047Y-64802380D01*
X96353333Y-64802380D01*
X96258095Y-64754761D01*
X96210476Y-64707142D01*
X97448571Y-63802380D02*
X97543809Y-63802380D01*
X97639047Y-63850000D01*
X97686666Y-63897619D01*
X97734285Y-63992857D01*
X97781904Y-64183333D01*
X97781904Y-64421428D01*
X97734285Y-64611904D01*
X97686666Y-64707142D01*
X97639047Y-64754761D01*
X97543809Y-64802380D01*
X97448571Y-64802380D01*
X97353333Y-64754761D01*
X97305714Y-64707142D01*
X97258095Y-64611904D01*
X97210476Y-64421428D01*
X97210476Y-64183333D01*
X97258095Y-63992857D01*
X97305714Y-63897619D01*
X97353333Y-63850000D01*
X97448571Y-63802380D01*
G04 #@! TO.C,D31*
X95305714Y-71152380D02*
X95305714Y-70152380D01*
X95543809Y-70152380D01*
X95686666Y-70200000D01*
X95781904Y-70295238D01*
X95829523Y-70390476D01*
X95877142Y-70580952D01*
X95877142Y-70723809D01*
X95829523Y-70914285D01*
X95781904Y-71009523D01*
X95686666Y-71104761D01*
X95543809Y-71152380D01*
X95305714Y-71152380D01*
X96210476Y-70152380D02*
X96829523Y-70152380D01*
X96496190Y-70533333D01*
X96639047Y-70533333D01*
X96734285Y-70580952D01*
X96781904Y-70628571D01*
X96829523Y-70723809D01*
X96829523Y-70961904D01*
X96781904Y-71057142D01*
X96734285Y-71104761D01*
X96639047Y-71152380D01*
X96353333Y-71152380D01*
X96258095Y-71104761D01*
X96210476Y-71057142D01*
X97781904Y-71152380D02*
X97210476Y-71152380D01*
X97496190Y-71152380D02*
X97496190Y-70152380D01*
X97400952Y-70295238D01*
X97305714Y-70390476D01*
X97210476Y-70438095D01*
G04 #@! TO.C,D32*
X95305714Y-77502380D02*
X95305714Y-76502380D01*
X95543809Y-76502380D01*
X95686666Y-76550000D01*
X95781904Y-76645238D01*
X95829523Y-76740476D01*
X95877142Y-76930952D01*
X95877142Y-77073809D01*
X95829523Y-77264285D01*
X95781904Y-77359523D01*
X95686666Y-77454761D01*
X95543809Y-77502380D01*
X95305714Y-77502380D01*
X96210476Y-76502380D02*
X96829523Y-76502380D01*
X96496190Y-76883333D01*
X96639047Y-76883333D01*
X96734285Y-76930952D01*
X96781904Y-76978571D01*
X96829523Y-77073809D01*
X96829523Y-77311904D01*
X96781904Y-77407142D01*
X96734285Y-77454761D01*
X96639047Y-77502380D01*
X96353333Y-77502380D01*
X96258095Y-77454761D01*
X96210476Y-77407142D01*
X97210476Y-76597619D02*
X97258095Y-76550000D01*
X97353333Y-76502380D01*
X97591428Y-76502380D01*
X97686666Y-76550000D01*
X97734285Y-76597619D01*
X97781904Y-76692857D01*
X97781904Y-76788095D01*
X97734285Y-76930952D01*
X97162857Y-77502380D01*
X97781904Y-77502380D01*
G04 #@! TO.C,D33*
X101655714Y-33052380D02*
X101655714Y-32052380D01*
X101893809Y-32052380D01*
X102036666Y-32100000D01*
X102131904Y-32195238D01*
X102179523Y-32290476D01*
X102227142Y-32480952D01*
X102227142Y-32623809D01*
X102179523Y-32814285D01*
X102131904Y-32909523D01*
X102036666Y-33004761D01*
X101893809Y-33052380D01*
X101655714Y-33052380D01*
X102560476Y-32052380D02*
X103179523Y-32052380D01*
X102846190Y-32433333D01*
X102989047Y-32433333D01*
X103084285Y-32480952D01*
X103131904Y-32528571D01*
X103179523Y-32623809D01*
X103179523Y-32861904D01*
X103131904Y-32957142D01*
X103084285Y-33004761D01*
X102989047Y-33052380D01*
X102703333Y-33052380D01*
X102608095Y-33004761D01*
X102560476Y-32957142D01*
X103512857Y-32052380D02*
X104131904Y-32052380D01*
X103798571Y-32433333D01*
X103941428Y-32433333D01*
X104036666Y-32480952D01*
X104084285Y-32528571D01*
X104131904Y-32623809D01*
X104131904Y-32861904D01*
X104084285Y-32957142D01*
X104036666Y-33004761D01*
X103941428Y-33052380D01*
X103655714Y-33052380D01*
X103560476Y-33004761D01*
X103512857Y-32957142D01*
G04 #@! TO.C,D34*
X101655714Y-39402380D02*
X101655714Y-38402380D01*
X101893809Y-38402380D01*
X102036666Y-38450000D01*
X102131904Y-38545238D01*
X102179523Y-38640476D01*
X102227142Y-38830952D01*
X102227142Y-38973809D01*
X102179523Y-39164285D01*
X102131904Y-39259523D01*
X102036666Y-39354761D01*
X101893809Y-39402380D01*
X101655714Y-39402380D01*
X102560476Y-38402380D02*
X103179523Y-38402380D01*
X102846190Y-38783333D01*
X102989047Y-38783333D01*
X103084285Y-38830952D01*
X103131904Y-38878571D01*
X103179523Y-38973809D01*
X103179523Y-39211904D01*
X103131904Y-39307142D01*
X103084285Y-39354761D01*
X102989047Y-39402380D01*
X102703333Y-39402380D01*
X102608095Y-39354761D01*
X102560476Y-39307142D01*
X104036666Y-38735714D02*
X104036666Y-39402380D01*
X103798571Y-38354761D02*
X103560476Y-39069047D01*
X104179523Y-39069047D01*
G04 #@! TO.C,D35*
X101655714Y-45752380D02*
X101655714Y-44752380D01*
X101893809Y-44752380D01*
X102036666Y-44800000D01*
X102131904Y-44895238D01*
X102179523Y-44990476D01*
X102227142Y-45180952D01*
X102227142Y-45323809D01*
X102179523Y-45514285D01*
X102131904Y-45609523D01*
X102036666Y-45704761D01*
X101893809Y-45752380D01*
X101655714Y-45752380D01*
X102560476Y-44752380D02*
X103179523Y-44752380D01*
X102846190Y-45133333D01*
X102989047Y-45133333D01*
X103084285Y-45180952D01*
X103131904Y-45228571D01*
X103179523Y-45323809D01*
X103179523Y-45561904D01*
X103131904Y-45657142D01*
X103084285Y-45704761D01*
X102989047Y-45752380D01*
X102703333Y-45752380D01*
X102608095Y-45704761D01*
X102560476Y-45657142D01*
X104084285Y-44752380D02*
X103608095Y-44752380D01*
X103560476Y-45228571D01*
X103608095Y-45180952D01*
X103703333Y-45133333D01*
X103941428Y-45133333D01*
X104036666Y-45180952D01*
X104084285Y-45228571D01*
X104131904Y-45323809D01*
X104131904Y-45561904D01*
X104084285Y-45657142D01*
X104036666Y-45704761D01*
X103941428Y-45752380D01*
X103703333Y-45752380D01*
X103608095Y-45704761D01*
X103560476Y-45657142D01*
G04 #@! TO.C,D37*
X101655714Y-58452380D02*
X101655714Y-57452380D01*
X101893809Y-57452380D01*
X102036666Y-57500000D01*
X102131904Y-57595238D01*
X102179523Y-57690476D01*
X102227142Y-57880952D01*
X102227142Y-58023809D01*
X102179523Y-58214285D01*
X102131904Y-58309523D01*
X102036666Y-58404761D01*
X101893809Y-58452380D01*
X101655714Y-58452380D01*
X102560476Y-57452380D02*
X103179523Y-57452380D01*
X102846190Y-57833333D01*
X102989047Y-57833333D01*
X103084285Y-57880952D01*
X103131904Y-57928571D01*
X103179523Y-58023809D01*
X103179523Y-58261904D01*
X103131904Y-58357142D01*
X103084285Y-58404761D01*
X102989047Y-58452380D01*
X102703333Y-58452380D01*
X102608095Y-58404761D01*
X102560476Y-58357142D01*
X103512857Y-57452380D02*
X104179523Y-57452380D01*
X103750952Y-58452380D01*
G04 #@! TO.C,D13*
X82605714Y-58452380D02*
X82605714Y-57452380D01*
X82843809Y-57452380D01*
X82986666Y-57500000D01*
X83081904Y-57595238D01*
X83129523Y-57690476D01*
X83177142Y-57880952D01*
X83177142Y-58023809D01*
X83129523Y-58214285D01*
X83081904Y-58309523D01*
X82986666Y-58404761D01*
X82843809Y-58452380D01*
X82605714Y-58452380D01*
X84129523Y-58452380D02*
X83558095Y-58452380D01*
X83843809Y-58452380D02*
X83843809Y-57452380D01*
X83748571Y-57595238D01*
X83653333Y-57690476D01*
X83558095Y-57738095D01*
X84462857Y-57452380D02*
X85081904Y-57452380D01*
X84748571Y-57833333D01*
X84891428Y-57833333D01*
X84986666Y-57880952D01*
X85034285Y-57928571D01*
X85081904Y-58023809D01*
X85081904Y-58261904D01*
X85034285Y-58357142D01*
X84986666Y-58404761D01*
X84891428Y-58452380D01*
X84605714Y-58452380D01*
X84510476Y-58404761D01*
X84462857Y-58357142D01*
G04 #@! TO.C,D12*
X82605714Y-52102380D02*
X82605714Y-51102380D01*
X82843809Y-51102380D01*
X82986666Y-51150000D01*
X83081904Y-51245238D01*
X83129523Y-51340476D01*
X83177142Y-51530952D01*
X83177142Y-51673809D01*
X83129523Y-51864285D01*
X83081904Y-51959523D01*
X82986666Y-52054761D01*
X82843809Y-52102380D01*
X82605714Y-52102380D01*
X84129523Y-52102380D02*
X83558095Y-52102380D01*
X83843809Y-52102380D02*
X83843809Y-51102380D01*
X83748571Y-51245238D01*
X83653333Y-51340476D01*
X83558095Y-51388095D01*
X84510476Y-51197619D02*
X84558095Y-51150000D01*
X84653333Y-51102380D01*
X84891428Y-51102380D01*
X84986666Y-51150000D01*
X85034285Y-51197619D01*
X85081904Y-51292857D01*
X85081904Y-51388095D01*
X85034285Y-51530952D01*
X84462857Y-52102380D01*
X85081904Y-52102380D01*
G04 #@! TO.C,D11*
X82605714Y-45752380D02*
X82605714Y-44752380D01*
X82843809Y-44752380D01*
X82986666Y-44800000D01*
X83081904Y-44895238D01*
X83129523Y-44990476D01*
X83177142Y-45180952D01*
X83177142Y-45323809D01*
X83129523Y-45514285D01*
X83081904Y-45609523D01*
X82986666Y-45704761D01*
X82843809Y-45752380D01*
X82605714Y-45752380D01*
X84129523Y-45752380D02*
X83558095Y-45752380D01*
X83843809Y-45752380D02*
X83843809Y-44752380D01*
X83748571Y-44895238D01*
X83653333Y-44990476D01*
X83558095Y-45038095D01*
X85081904Y-45752380D02*
X84510476Y-45752380D01*
X84796190Y-45752380D02*
X84796190Y-44752380D01*
X84700952Y-44895238D01*
X84605714Y-44990476D01*
X84510476Y-45038095D01*
G04 #@! TO.C,D18*
X88955714Y-39402380D02*
X88955714Y-38402380D01*
X89193809Y-38402380D01*
X89336666Y-38450000D01*
X89431904Y-38545238D01*
X89479523Y-38640476D01*
X89527142Y-38830952D01*
X89527142Y-38973809D01*
X89479523Y-39164285D01*
X89431904Y-39259523D01*
X89336666Y-39354761D01*
X89193809Y-39402380D01*
X88955714Y-39402380D01*
X90479523Y-39402380D02*
X89908095Y-39402380D01*
X90193809Y-39402380D02*
X90193809Y-38402380D01*
X90098571Y-38545238D01*
X90003333Y-38640476D01*
X89908095Y-38688095D01*
X91050952Y-38830952D02*
X90955714Y-38783333D01*
X90908095Y-38735714D01*
X90860476Y-38640476D01*
X90860476Y-38592857D01*
X90908095Y-38497619D01*
X90955714Y-38450000D01*
X91050952Y-38402380D01*
X91241428Y-38402380D01*
X91336666Y-38450000D01*
X91384285Y-38497619D01*
X91431904Y-38592857D01*
X91431904Y-38640476D01*
X91384285Y-38735714D01*
X91336666Y-38783333D01*
X91241428Y-38830952D01*
X91050952Y-38830952D01*
X90955714Y-38878571D01*
X90908095Y-38926190D01*
X90860476Y-39021428D01*
X90860476Y-39211904D01*
X90908095Y-39307142D01*
X90955714Y-39354761D01*
X91050952Y-39402380D01*
X91241428Y-39402380D01*
X91336666Y-39354761D01*
X91384285Y-39307142D01*
X91431904Y-39211904D01*
X91431904Y-39021428D01*
X91384285Y-38926190D01*
X91336666Y-38878571D01*
X91241428Y-38830952D01*
G04 #@! TO.C,D9*
X83081904Y-33052380D02*
X83081904Y-32052380D01*
X83320000Y-32052380D01*
X83462857Y-32100000D01*
X83558095Y-32195238D01*
X83605714Y-32290476D01*
X83653333Y-32480952D01*
X83653333Y-32623809D01*
X83605714Y-32814285D01*
X83558095Y-32909523D01*
X83462857Y-33004761D01*
X83320000Y-33052380D01*
X83081904Y-33052380D01*
X84129523Y-33052380D02*
X84320000Y-33052380D01*
X84415238Y-33004761D01*
X84462857Y-32957142D01*
X84558095Y-32814285D01*
X84605714Y-32623809D01*
X84605714Y-32242857D01*
X84558095Y-32147619D01*
X84510476Y-32100000D01*
X84415238Y-32052380D01*
X84224761Y-32052380D01*
X84129523Y-32100000D01*
X84081904Y-32147619D01*
X84034285Y-32242857D01*
X84034285Y-32480952D01*
X84081904Y-32576190D01*
X84129523Y-32623809D01*
X84224761Y-32671428D01*
X84415238Y-32671428D01*
X84510476Y-32623809D01*
X84558095Y-32576190D01*
X84605714Y-32480952D01*
G04 #@! TO.C,D8*
X76731904Y-77502380D02*
X76731904Y-76502380D01*
X76970000Y-76502380D01*
X77112857Y-76550000D01*
X77208095Y-76645238D01*
X77255714Y-76740476D01*
X77303333Y-76930952D01*
X77303333Y-77073809D01*
X77255714Y-77264285D01*
X77208095Y-77359523D01*
X77112857Y-77454761D01*
X76970000Y-77502380D01*
X76731904Y-77502380D01*
X77874761Y-76930952D02*
X77779523Y-76883333D01*
X77731904Y-76835714D01*
X77684285Y-76740476D01*
X77684285Y-76692857D01*
X77731904Y-76597619D01*
X77779523Y-76550000D01*
X77874761Y-76502380D01*
X78065238Y-76502380D01*
X78160476Y-76550000D01*
X78208095Y-76597619D01*
X78255714Y-76692857D01*
X78255714Y-76740476D01*
X78208095Y-76835714D01*
X78160476Y-76883333D01*
X78065238Y-76930952D01*
X77874761Y-76930952D01*
X77779523Y-76978571D01*
X77731904Y-77026190D01*
X77684285Y-77121428D01*
X77684285Y-77311904D01*
X77731904Y-77407142D01*
X77779523Y-77454761D01*
X77874761Y-77502380D01*
X78065238Y-77502380D01*
X78160476Y-77454761D01*
X78208095Y-77407142D01*
X78255714Y-77311904D01*
X78255714Y-77121428D01*
X78208095Y-77026190D01*
X78160476Y-76978571D01*
X78065238Y-76930952D01*
G04 #@! TO.C,D7*
X76731904Y-71152380D02*
X76731904Y-70152380D01*
X76970000Y-70152380D01*
X77112857Y-70200000D01*
X77208095Y-70295238D01*
X77255714Y-70390476D01*
X77303333Y-70580952D01*
X77303333Y-70723809D01*
X77255714Y-70914285D01*
X77208095Y-71009523D01*
X77112857Y-71104761D01*
X76970000Y-71152380D01*
X76731904Y-71152380D01*
X77636666Y-70152380D02*
X78303333Y-70152380D01*
X77874761Y-71152380D01*
G04 #@! TO.C,D6*
X76731904Y-64802380D02*
X76731904Y-63802380D01*
X76970000Y-63802380D01*
X77112857Y-63850000D01*
X77208095Y-63945238D01*
X77255714Y-64040476D01*
X77303333Y-64230952D01*
X77303333Y-64373809D01*
X77255714Y-64564285D01*
X77208095Y-64659523D01*
X77112857Y-64754761D01*
X76970000Y-64802380D01*
X76731904Y-64802380D01*
X78160476Y-63802380D02*
X77970000Y-63802380D01*
X77874761Y-63850000D01*
X77827142Y-63897619D01*
X77731904Y-64040476D01*
X77684285Y-64230952D01*
X77684285Y-64611904D01*
X77731904Y-64707142D01*
X77779523Y-64754761D01*
X77874761Y-64802380D01*
X78065238Y-64802380D01*
X78160476Y-64754761D01*
X78208095Y-64707142D01*
X78255714Y-64611904D01*
X78255714Y-64373809D01*
X78208095Y-64278571D01*
X78160476Y-64230952D01*
X78065238Y-64183333D01*
X77874761Y-64183333D01*
X77779523Y-64230952D01*
X77731904Y-64278571D01*
X77684285Y-64373809D01*
G04 #@! TO.C,D5*
X76731904Y-58452380D02*
X76731904Y-57452380D01*
X76970000Y-57452380D01*
X77112857Y-57500000D01*
X77208095Y-57595238D01*
X77255714Y-57690476D01*
X77303333Y-57880952D01*
X77303333Y-58023809D01*
X77255714Y-58214285D01*
X77208095Y-58309523D01*
X77112857Y-58404761D01*
X76970000Y-58452380D01*
X76731904Y-58452380D01*
X78208095Y-57452380D02*
X77731904Y-57452380D01*
X77684285Y-57928571D01*
X77731904Y-57880952D01*
X77827142Y-57833333D01*
X78065238Y-57833333D01*
X78160476Y-57880952D01*
X78208095Y-57928571D01*
X78255714Y-58023809D01*
X78255714Y-58261904D01*
X78208095Y-58357142D01*
X78160476Y-58404761D01*
X78065238Y-58452380D01*
X77827142Y-58452380D01*
X77731904Y-58404761D01*
X77684285Y-58357142D01*
G04 #@! TO.C,D4*
X76731904Y-52102380D02*
X76731904Y-51102380D01*
X76970000Y-51102380D01*
X77112857Y-51150000D01*
X77208095Y-51245238D01*
X77255714Y-51340476D01*
X77303333Y-51530952D01*
X77303333Y-51673809D01*
X77255714Y-51864285D01*
X77208095Y-51959523D01*
X77112857Y-52054761D01*
X76970000Y-52102380D01*
X76731904Y-52102380D01*
X78160476Y-51435714D02*
X78160476Y-52102380D01*
X77922380Y-51054761D02*
X77684285Y-51769047D01*
X78303333Y-51769047D01*
G04 #@! TO.C,D3*
X76731904Y-45752380D02*
X76731904Y-44752380D01*
X76970000Y-44752380D01*
X77112857Y-44800000D01*
X77208095Y-44895238D01*
X77255714Y-44990476D01*
X77303333Y-45180952D01*
X77303333Y-45323809D01*
X77255714Y-45514285D01*
X77208095Y-45609523D01*
X77112857Y-45704761D01*
X76970000Y-45752380D01*
X76731904Y-45752380D01*
X77636666Y-44752380D02*
X78255714Y-44752380D01*
X77922380Y-45133333D01*
X78065238Y-45133333D01*
X78160476Y-45180952D01*
X78208095Y-45228571D01*
X78255714Y-45323809D01*
X78255714Y-45561904D01*
X78208095Y-45657142D01*
X78160476Y-45704761D01*
X78065238Y-45752380D01*
X77779523Y-45752380D01*
X77684285Y-45704761D01*
X77636666Y-45657142D01*
G04 #@! TO.C,D2*
X76731904Y-39402380D02*
X76731904Y-38402380D01*
X76970000Y-38402380D01*
X77112857Y-38450000D01*
X77208095Y-38545238D01*
X77255714Y-38640476D01*
X77303333Y-38830952D01*
X77303333Y-38973809D01*
X77255714Y-39164285D01*
X77208095Y-39259523D01*
X77112857Y-39354761D01*
X76970000Y-39402380D01*
X76731904Y-39402380D01*
X77684285Y-38497619D02*
X77731904Y-38450000D01*
X77827142Y-38402380D01*
X78065238Y-38402380D01*
X78160476Y-38450000D01*
X78208095Y-38497619D01*
X78255714Y-38592857D01*
X78255714Y-38688095D01*
X78208095Y-38830952D01*
X77636666Y-39402380D01*
X78255714Y-39402380D01*
G04 #@! TO.C,D20*
X88955714Y-52102380D02*
X88955714Y-51102380D01*
X89193809Y-51102380D01*
X89336666Y-51150000D01*
X89431904Y-51245238D01*
X89479523Y-51340476D01*
X89527142Y-51530952D01*
X89527142Y-51673809D01*
X89479523Y-51864285D01*
X89431904Y-51959523D01*
X89336666Y-52054761D01*
X89193809Y-52102380D01*
X88955714Y-52102380D01*
X89908095Y-51197619D02*
X89955714Y-51150000D01*
X90050952Y-51102380D01*
X90289047Y-51102380D01*
X90384285Y-51150000D01*
X90431904Y-51197619D01*
X90479523Y-51292857D01*
X90479523Y-51388095D01*
X90431904Y-51530952D01*
X89860476Y-52102380D01*
X90479523Y-52102380D01*
X91098571Y-51102380D02*
X91193809Y-51102380D01*
X91289047Y-51150000D01*
X91336666Y-51197619D01*
X91384285Y-51292857D01*
X91431904Y-51483333D01*
X91431904Y-51721428D01*
X91384285Y-51911904D01*
X91336666Y-52007142D01*
X91289047Y-52054761D01*
X91193809Y-52102380D01*
X91098571Y-52102380D01*
X91003333Y-52054761D01*
X90955714Y-52007142D01*
X90908095Y-51911904D01*
X90860476Y-51721428D01*
X90860476Y-51483333D01*
X90908095Y-51292857D01*
X90955714Y-51197619D01*
X91003333Y-51150000D01*
X91098571Y-51102380D01*
G04 #@! TO.C,D14*
X82605714Y-64802380D02*
X82605714Y-63802380D01*
X82843809Y-63802380D01*
X82986666Y-63850000D01*
X83081904Y-63945238D01*
X83129523Y-64040476D01*
X83177142Y-64230952D01*
X83177142Y-64373809D01*
X83129523Y-64564285D01*
X83081904Y-64659523D01*
X82986666Y-64754761D01*
X82843809Y-64802380D01*
X82605714Y-64802380D01*
X84129523Y-64802380D02*
X83558095Y-64802380D01*
X83843809Y-64802380D02*
X83843809Y-63802380D01*
X83748571Y-63945238D01*
X83653333Y-64040476D01*
X83558095Y-64088095D01*
X84986666Y-64135714D02*
X84986666Y-64802380D01*
X84748571Y-63754761D02*
X84510476Y-64469047D01*
X85129523Y-64469047D01*
G04 #@! TO.C,D36*
X101655714Y-52102380D02*
X101655714Y-51102380D01*
X101893809Y-51102380D01*
X102036666Y-51150000D01*
X102131904Y-51245238D01*
X102179523Y-51340476D01*
X102227142Y-51530952D01*
X102227142Y-51673809D01*
X102179523Y-51864285D01*
X102131904Y-51959523D01*
X102036666Y-52054761D01*
X101893809Y-52102380D01*
X101655714Y-52102380D01*
X102560476Y-51102380D02*
X103179523Y-51102380D01*
X102846190Y-51483333D01*
X102989047Y-51483333D01*
X103084285Y-51530952D01*
X103131904Y-51578571D01*
X103179523Y-51673809D01*
X103179523Y-51911904D01*
X103131904Y-52007142D01*
X103084285Y-52054761D01*
X102989047Y-52102380D01*
X102703333Y-52102380D01*
X102608095Y-52054761D01*
X102560476Y-52007142D01*
X104036666Y-51102380D02*
X103846190Y-51102380D01*
X103750952Y-51150000D01*
X103703333Y-51197619D01*
X103608095Y-51340476D01*
X103560476Y-51530952D01*
X103560476Y-51911904D01*
X103608095Y-52007142D01*
X103655714Y-52054761D01*
X103750952Y-52102380D01*
X103941428Y-52102380D01*
X104036666Y-52054761D01*
X104084285Y-52007142D01*
X104131904Y-51911904D01*
X104131904Y-51673809D01*
X104084285Y-51578571D01*
X104036666Y-51530952D01*
X103941428Y-51483333D01*
X103750952Y-51483333D01*
X103655714Y-51530952D01*
X103608095Y-51578571D01*
X103560476Y-51673809D01*
G04 #@! TO.C,R8*
X67143333Y-78092380D02*
X66810000Y-77616190D01*
X66571904Y-78092380D02*
X66571904Y-77092380D01*
X66952857Y-77092380D01*
X67048095Y-77140000D01*
X67095714Y-77187619D01*
X67143333Y-77282857D01*
X67143333Y-77425714D01*
X67095714Y-77520952D01*
X67048095Y-77568571D01*
X66952857Y-77616190D01*
X66571904Y-77616190D01*
X67714761Y-77520952D02*
X67619523Y-77473333D01*
X67571904Y-77425714D01*
X67524285Y-77330476D01*
X67524285Y-77282857D01*
X67571904Y-77187619D01*
X67619523Y-77140000D01*
X67714761Y-77092380D01*
X67905238Y-77092380D01*
X68000476Y-77140000D01*
X68048095Y-77187619D01*
X68095714Y-77282857D01*
X68095714Y-77330476D01*
X68048095Y-77425714D01*
X68000476Y-77473333D01*
X67905238Y-77520952D01*
X67714761Y-77520952D01*
X67619523Y-77568571D01*
X67571904Y-77616190D01*
X67524285Y-77711428D01*
X67524285Y-77901904D01*
X67571904Y-77997142D01*
X67619523Y-78044761D01*
X67714761Y-78092380D01*
X67905238Y-78092380D01*
X68000476Y-78044761D01*
X68048095Y-77997142D01*
X68095714Y-77901904D01*
X68095714Y-77711428D01*
X68048095Y-77616190D01*
X68000476Y-77568571D01*
X67905238Y-77520952D01*
G04 #@! TO.C,R1*
X67143333Y-33642380D02*
X66810000Y-33166190D01*
X66571904Y-33642380D02*
X66571904Y-32642380D01*
X66952857Y-32642380D01*
X67048095Y-32690000D01*
X67095714Y-32737619D01*
X67143333Y-32832857D01*
X67143333Y-32975714D01*
X67095714Y-33070952D01*
X67048095Y-33118571D01*
X66952857Y-33166190D01*
X66571904Y-33166190D01*
X68095714Y-33642380D02*
X67524285Y-33642380D01*
X67810000Y-33642380D02*
X67810000Y-32642380D01*
X67714761Y-32785238D01*
X67619523Y-32880476D01*
X67524285Y-32928095D01*
G04 #@! TO.C,R2*
X67143333Y-39992380D02*
X66810000Y-39516190D01*
X66571904Y-39992380D02*
X66571904Y-38992380D01*
X66952857Y-38992380D01*
X67048095Y-39040000D01*
X67095714Y-39087619D01*
X67143333Y-39182857D01*
X67143333Y-39325714D01*
X67095714Y-39420952D01*
X67048095Y-39468571D01*
X66952857Y-39516190D01*
X66571904Y-39516190D01*
X67524285Y-39087619D02*
X67571904Y-39040000D01*
X67667142Y-38992380D01*
X67905238Y-38992380D01*
X68000476Y-39040000D01*
X68048095Y-39087619D01*
X68095714Y-39182857D01*
X68095714Y-39278095D01*
X68048095Y-39420952D01*
X67476666Y-39992380D01*
X68095714Y-39992380D01*
G04 #@! TO.C,R3*
X67143333Y-46342380D02*
X66810000Y-45866190D01*
X66571904Y-46342380D02*
X66571904Y-45342380D01*
X66952857Y-45342380D01*
X67048095Y-45390000D01*
X67095714Y-45437619D01*
X67143333Y-45532857D01*
X67143333Y-45675714D01*
X67095714Y-45770952D01*
X67048095Y-45818571D01*
X66952857Y-45866190D01*
X66571904Y-45866190D01*
X67476666Y-45342380D02*
X68095714Y-45342380D01*
X67762380Y-45723333D01*
X67905238Y-45723333D01*
X68000476Y-45770952D01*
X68048095Y-45818571D01*
X68095714Y-45913809D01*
X68095714Y-46151904D01*
X68048095Y-46247142D01*
X68000476Y-46294761D01*
X67905238Y-46342380D01*
X67619523Y-46342380D01*
X67524285Y-46294761D01*
X67476666Y-46247142D01*
G04 #@! TO.C,R4*
X67143333Y-52692380D02*
X66810000Y-52216190D01*
X66571904Y-52692380D02*
X66571904Y-51692380D01*
X66952857Y-51692380D01*
X67048095Y-51740000D01*
X67095714Y-51787619D01*
X67143333Y-51882857D01*
X67143333Y-52025714D01*
X67095714Y-52120952D01*
X67048095Y-52168571D01*
X66952857Y-52216190D01*
X66571904Y-52216190D01*
X68000476Y-52025714D02*
X68000476Y-52692380D01*
X67762380Y-51644761D02*
X67524285Y-52359047D01*
X68143333Y-52359047D01*
G04 #@! TO.C,R5*
X67143333Y-59042380D02*
X66810000Y-58566190D01*
X66571904Y-59042380D02*
X66571904Y-58042380D01*
X66952857Y-58042380D01*
X67048095Y-58090000D01*
X67095714Y-58137619D01*
X67143333Y-58232857D01*
X67143333Y-58375714D01*
X67095714Y-58470952D01*
X67048095Y-58518571D01*
X66952857Y-58566190D01*
X66571904Y-58566190D01*
X68048095Y-58042380D02*
X67571904Y-58042380D01*
X67524285Y-58518571D01*
X67571904Y-58470952D01*
X67667142Y-58423333D01*
X67905238Y-58423333D01*
X68000476Y-58470952D01*
X68048095Y-58518571D01*
X68095714Y-58613809D01*
X68095714Y-58851904D01*
X68048095Y-58947142D01*
X68000476Y-58994761D01*
X67905238Y-59042380D01*
X67667142Y-59042380D01*
X67571904Y-58994761D01*
X67524285Y-58947142D01*
G04 #@! TO.C,R6*
X67143333Y-65392380D02*
X66810000Y-64916190D01*
X66571904Y-65392380D02*
X66571904Y-64392380D01*
X66952857Y-64392380D01*
X67048095Y-64440000D01*
X67095714Y-64487619D01*
X67143333Y-64582857D01*
X67143333Y-64725714D01*
X67095714Y-64820952D01*
X67048095Y-64868571D01*
X66952857Y-64916190D01*
X66571904Y-64916190D01*
X68000476Y-64392380D02*
X67810000Y-64392380D01*
X67714761Y-64440000D01*
X67667142Y-64487619D01*
X67571904Y-64630476D01*
X67524285Y-64820952D01*
X67524285Y-65201904D01*
X67571904Y-65297142D01*
X67619523Y-65344761D01*
X67714761Y-65392380D01*
X67905238Y-65392380D01*
X68000476Y-65344761D01*
X68048095Y-65297142D01*
X68095714Y-65201904D01*
X68095714Y-64963809D01*
X68048095Y-64868571D01*
X68000476Y-64820952D01*
X67905238Y-64773333D01*
X67714761Y-64773333D01*
X67619523Y-64820952D01*
X67571904Y-64868571D01*
X67524285Y-64963809D01*
G04 #@! TO.C,R7*
X67143333Y-71742380D02*
X66810000Y-71266190D01*
X66571904Y-71742380D02*
X66571904Y-70742380D01*
X66952857Y-70742380D01*
X67048095Y-70790000D01*
X67095714Y-70837619D01*
X67143333Y-70932857D01*
X67143333Y-71075714D01*
X67095714Y-71170952D01*
X67048095Y-71218571D01*
X66952857Y-71266190D01*
X66571904Y-71266190D01*
X67476666Y-70742380D02*
X68143333Y-70742380D01*
X67714761Y-71742380D01*
G04 #@! TO.C,REF\002A\002A*
X57086666Y-25962380D02*
X56753333Y-25486190D01*
X56515238Y-25962380D02*
X56515238Y-24962380D01*
X56896190Y-24962380D01*
X56991428Y-25010000D01*
X57039047Y-25057619D01*
X57086666Y-25152857D01*
X57086666Y-25295714D01*
X57039047Y-25390952D01*
X56991428Y-25438571D01*
X56896190Y-25486190D01*
X56515238Y-25486190D01*
X57515238Y-25438571D02*
X57848571Y-25438571D01*
X57991428Y-25962380D02*
X57515238Y-25962380D01*
X57515238Y-24962380D01*
X57991428Y-24962380D01*
X58753333Y-25438571D02*
X58420000Y-25438571D01*
X58420000Y-25962380D02*
X58420000Y-24962380D01*
X58896190Y-24962380D01*
X59420000Y-24962380D02*
X59420000Y-25200476D01*
X59181904Y-25105238D02*
X59420000Y-25200476D01*
X59658095Y-25105238D01*
X59277142Y-25390952D02*
X59420000Y-25200476D01*
X59562857Y-25390952D01*
X60181904Y-24962380D02*
X60181904Y-25200476D01*
X59943809Y-25105238D02*
X60181904Y-25200476D01*
X60420000Y-25105238D01*
X60039047Y-25390952D02*
X60181904Y-25200476D01*
X60324761Y-25390952D01*
X57086666Y-81842380D02*
X56753333Y-81366190D01*
X56515238Y-81842380D02*
X56515238Y-80842380D01*
X56896190Y-80842380D01*
X56991428Y-80890000D01*
X57039047Y-80937619D01*
X57086666Y-81032857D01*
X57086666Y-81175714D01*
X57039047Y-81270952D01*
X56991428Y-81318571D01*
X56896190Y-81366190D01*
X56515238Y-81366190D01*
X57515238Y-81318571D02*
X57848571Y-81318571D01*
X57991428Y-81842380D02*
X57515238Y-81842380D01*
X57515238Y-80842380D01*
X57991428Y-80842380D01*
X58753333Y-81318571D02*
X58420000Y-81318571D01*
X58420000Y-81842380D02*
X58420000Y-80842380D01*
X58896190Y-80842380D01*
X59420000Y-80842380D02*
X59420000Y-81080476D01*
X59181904Y-80985238D02*
X59420000Y-81080476D01*
X59658095Y-80985238D01*
X59277142Y-81270952D02*
X59420000Y-81080476D01*
X59562857Y-81270952D01*
X60181904Y-80842380D02*
X60181904Y-81080476D01*
X59943809Y-80985238D02*
X60181904Y-81080476D01*
X60420000Y-80985238D01*
X60039047Y-81270952D02*
X60181904Y-81080476D01*
X60324761Y-81270952D01*
X125666666Y-81842380D02*
X125333333Y-81366190D01*
X125095238Y-81842380D02*
X125095238Y-80842380D01*
X125476190Y-80842380D01*
X125571428Y-80890000D01*
X125619047Y-80937619D01*
X125666666Y-81032857D01*
X125666666Y-81175714D01*
X125619047Y-81270952D01*
X125571428Y-81318571D01*
X125476190Y-81366190D01*
X125095238Y-81366190D01*
X126095238Y-81318571D02*
X126428571Y-81318571D01*
X126571428Y-81842380D02*
X126095238Y-81842380D01*
X126095238Y-80842380D01*
X126571428Y-80842380D01*
X127333333Y-81318571D02*
X127000000Y-81318571D01*
X127000000Y-81842380D02*
X127000000Y-80842380D01*
X127476190Y-80842380D01*
X128000000Y-80842380D02*
X128000000Y-81080476D01*
X127761904Y-80985238D02*
X128000000Y-81080476D01*
X128238095Y-80985238D01*
X127857142Y-81270952D02*
X128000000Y-81080476D01*
X128142857Y-81270952D01*
X128761904Y-80842380D02*
X128761904Y-81080476D01*
X128523809Y-80985238D02*
X128761904Y-81080476D01*
X129000000Y-80985238D01*
X128619047Y-81270952D02*
X128761904Y-81080476D01*
X128904761Y-81270952D01*
X125666666Y-25962380D02*
X125333333Y-25486190D01*
X125095238Y-25962380D02*
X125095238Y-24962380D01*
X125476190Y-24962380D01*
X125571428Y-25010000D01*
X125619047Y-25057619D01*
X125666666Y-25152857D01*
X125666666Y-25295714D01*
X125619047Y-25390952D01*
X125571428Y-25438571D01*
X125476190Y-25486190D01*
X125095238Y-25486190D01*
X126095238Y-25438571D02*
X126428571Y-25438571D01*
X126571428Y-25962380D02*
X126095238Y-25962380D01*
X126095238Y-24962380D01*
X126571428Y-24962380D01*
X127333333Y-25438571D02*
X127000000Y-25438571D01*
X127000000Y-25962380D02*
X127000000Y-24962380D01*
X127476190Y-24962380D01*
X128000000Y-24962380D02*
X128000000Y-25200476D01*
X127761904Y-25105238D02*
X128000000Y-25200476D01*
X128238095Y-25105238D01*
X127857142Y-25390952D02*
X128000000Y-25200476D01*
X128142857Y-25390952D01*
X128761904Y-24962380D02*
X128761904Y-25200476D01*
X128523809Y-25105238D02*
X128761904Y-25200476D01*
X129000000Y-25105238D01*
X128619047Y-25390952D02*
X128761904Y-25200476D01*
X128904761Y-25390952D01*
G04 #@! TD*
M02*
