M48
;DRILL file {KiCad 5.0.2+dfsg1-1~bpo9+1} date Wed 12 Jun 2019 08:32:19 IST
;FORMAT={3:3/ absolute / metric / suppress leading zeros}
FMAT,2
METRIC,TZ
T1C0.800
T2C0.900
T3C1.000
T4C2.700
%
G90
G05
T1
X62230Y-54610
X62230Y-80010
X72390Y-80010
X62230Y-35560
X72390Y-35560
X62230Y-60960
X72390Y-60960
X62230Y-67310
X72390Y-67310
X62230Y-48260
X72390Y-48260
X62230Y-41910
X72390Y-41910
X62230Y-73660
X72390Y-73660
X72390Y-54610
T2
X82550Y-60960
X85090Y-60960
X95250Y-80010
X97790Y-80010
X107950Y-48260
X110490Y-48260
X120650Y-73660
X123190Y-73660
X114300Y-48260
X116840Y-48260
X120650Y-54610
X123190Y-54610
X82550Y-80010
X85090Y-80010
X120650Y-41910
X123190Y-41910
X101600Y-41910
X104140Y-41910
X95250Y-60960
X97790Y-60960
X107950Y-54610
X110490Y-54610
X82550Y-54610
X85090Y-54610
X107950Y-67310
X110490Y-67310
X88900Y-67310
X91440Y-67310
X88900Y-48260
X91440Y-48260
X88900Y-80010
X91440Y-80010
X76200Y-48260
X78740Y-48260
X114300Y-60960
X116840Y-60960
X88900Y-60960
X91440Y-60960
X101600Y-54610
X104140Y-54610
X76200Y-67310
X78740Y-67310
X88900Y-73660
X91440Y-73660
X114300Y-67310
X116840Y-67310
X88900Y-54610
X91440Y-54610
X107950Y-41910
X110490Y-41910
X82550Y-73660
X85090Y-73660
X120650Y-67310
X123190Y-67310
X120650Y-80010
X123190Y-80010
X76200Y-41910
X78740Y-41910
X120650Y-35560
X123190Y-35560
X76200Y-80010
X78740Y-80010
X76200Y-73660
X78740Y-73660
X120650Y-48260
X123190Y-48260
X101600Y-67310
X104140Y-67310
X95250Y-48260
X97790Y-48260
X107950Y-35560
X110490Y-35560
X114300Y-35560
X116840Y-35560
X101600Y-48260
X104140Y-48260
X95250Y-41910
X97790Y-41910
X101600Y-60960
X104140Y-60960
X101600Y-73660
X104140Y-73660
X120650Y-60960
X123190Y-60960
X82550Y-35560
X85090Y-35560
X88900Y-41910
X91440Y-41910
X76200Y-35560
X78740Y-35560
X95250Y-73660
X97790Y-73660
X95250Y-67310
X97790Y-67310
X82550Y-48260
X85090Y-48260
X101600Y-35560
X104140Y-35560
X114300Y-41910
X116840Y-41910
X114300Y-73660
X116840Y-73660
X114300Y-54610
X116840Y-54610
X88900Y-35560
X91440Y-35560
X82550Y-41910
X85090Y-41910
X95250Y-54610
X97790Y-54610
X107950Y-73660
X110490Y-73660
X76200Y-54610
X78740Y-54610
X101600Y-80010
X104140Y-80010
X114300Y-80010
X116840Y-80010
X82550Y-67310
X85090Y-67310
X95250Y-35560
X97790Y-35560
X107950Y-80010
X110490Y-80010
X76200Y-60960
X78740Y-60960
X107950Y-60960
X110490Y-60960
T3
X57150Y-50800
X57150Y-53340
X57150Y-55880
X57150Y-58420
X57150Y-60960
X57150Y-63500
X57150Y-66040
X57150Y-68580
X88900Y-27940
X91440Y-27940
X93980Y-27940
X96520Y-27940
X99060Y-27940
X101600Y-27940
X104140Y-27940
X106680Y-27940
T4
X127000Y-85090
X58420Y-85090
X58420Y-29210
X127000Y-29210
T0
M30
