G04 #@! TF.GenerationSoftware,KiCad,Pcbnew,5.0.2+dfsg1-1~bpo9+1*
G04 #@! TF.CreationDate,2019-06-18T09:32:28+01:00*
G04 #@! TF.ProjectId,LedMatrix,4c65644d-6174-4726-9978-2e6b69636164,1.0*
G04 #@! TF.SameCoordinates,Original*
G04 #@! TF.FileFunction,Copper,L1,Top*
G04 #@! TF.FilePolarity,Positive*
%FSLAX46Y46*%
G04 Gerber Fmt 4.6, Leading zero omitted, Abs format (unit mm)*
G04 Created by KiCad (PCBNEW 5.0.2+dfsg1-1~bpo9+1) date Tue 18 Jun 2019 09:32:28 IST*
%MOMM*%
%LPD*%
G01*
G04 APERTURE LIST*
G04 #@! TA.AperFunction,ComponentPad*
%ADD10O,1.700000X1.700000*%
G04 #@! TD*
G04 #@! TA.AperFunction,ComponentPad*
%ADD11R,1.700000X1.700000*%
G04 #@! TD*
G04 #@! TA.AperFunction,ComponentPad*
%ADD12C,1.800000*%
G04 #@! TD*
G04 #@! TA.AperFunction,ComponentPad*
%ADD13R,1.800000X1.800000*%
G04 #@! TD*
G04 #@! TA.AperFunction,ComponentPad*
%ADD14O,1.600000X1.600000*%
G04 #@! TD*
G04 #@! TA.AperFunction,ComponentPad*
%ADD15C,1.600000*%
G04 #@! TD*
G04 #@! TA.AperFunction,ComponentPad*
%ADD16C,5.400000*%
G04 #@! TD*
G04 #@! TA.AperFunction,Conductor*
%ADD17C,0.250000*%
G04 #@! TD*
G04 APERTURE END LIST*
D10*
G04 #@! TO.P,J2,8*
G04 #@! TO.N,Net-(D57-Pad1)*
X106680000Y-27940000D03*
G04 #@! TO.P,J2,7*
G04 #@! TO.N,Net-(D49-Pad1)*
X104140000Y-27940000D03*
G04 #@! TO.P,J2,6*
G04 #@! TO.N,Net-(D41-Pad1)*
X101600000Y-27940000D03*
G04 #@! TO.P,J2,5*
G04 #@! TO.N,Net-(D33-Pad1)*
X99060000Y-27940000D03*
G04 #@! TO.P,J2,4*
G04 #@! TO.N,Net-(D25-Pad1)*
X96520000Y-27940000D03*
G04 #@! TO.P,J2,3*
G04 #@! TO.N,Net-(D17-Pad1)*
X93980000Y-27940000D03*
G04 #@! TO.P,J2,2*
G04 #@! TO.N,Net-(D10-Pad1)*
X91440000Y-27940000D03*
D11*
G04 #@! TO.P,J2,1*
G04 #@! TO.N,Net-(D1-Pad1)*
X88900000Y-27940000D03*
G04 #@! TD*
G04 #@! TO.P,J1,1*
G04 #@! TO.N,Net-(J1-Pad1)*
X57150000Y-50800000D03*
D10*
G04 #@! TO.P,J1,2*
G04 #@! TO.N,Net-(J1-Pad2)*
X57150000Y-53340000D03*
G04 #@! TO.P,J1,3*
G04 #@! TO.N,Net-(J1-Pad3)*
X57150000Y-55880000D03*
G04 #@! TO.P,J1,4*
G04 #@! TO.N,Net-(J1-Pad4)*
X57150000Y-58420000D03*
G04 #@! TO.P,J1,5*
G04 #@! TO.N,Net-(J1-Pad5)*
X57150000Y-60960000D03*
G04 #@! TO.P,J1,6*
G04 #@! TO.N,Net-(J1-Pad6)*
X57150000Y-63500000D03*
G04 #@! TO.P,J1,7*
G04 #@! TO.N,Net-(J1-Pad7)*
X57150000Y-66040000D03*
G04 #@! TO.P,J1,8*
G04 #@! TO.N,Net-(J1-Pad8)*
X57150000Y-68580000D03*
G04 #@! TD*
D12*
G04 #@! TO.P,D41,2*
G04 #@! TO.N,Net-(D1-Pad2)*
X110490000Y-35560000D03*
D13*
G04 #@! TO.P,D41,1*
G04 #@! TO.N,Net-(D41-Pad1)*
X107950000Y-35560000D03*
G04 #@! TD*
G04 #@! TO.P,D42,1*
G04 #@! TO.N,Net-(D41-Pad1)*
X107950000Y-41910000D03*
D12*
G04 #@! TO.P,D42,2*
G04 #@! TO.N,Net-(D10-Pad2)*
X110490000Y-41910000D03*
G04 #@! TD*
D13*
G04 #@! TO.P,D58,1*
G04 #@! TO.N,Net-(D57-Pad1)*
X120650000Y-41910000D03*
D12*
G04 #@! TO.P,D58,2*
G04 #@! TO.N,Net-(D10-Pad2)*
X123190000Y-41910000D03*
G04 #@! TD*
G04 #@! TO.P,D50,2*
G04 #@! TO.N,Net-(D10-Pad2)*
X116840000Y-41910000D03*
D13*
G04 #@! TO.P,D50,1*
G04 #@! TO.N,Net-(D49-Pad1)*
X114300000Y-41910000D03*
G04 #@! TD*
D12*
G04 #@! TO.P,D57,2*
G04 #@! TO.N,Net-(D1-Pad2)*
X123190000Y-35560000D03*
D13*
G04 #@! TO.P,D57,1*
G04 #@! TO.N,Net-(D57-Pad1)*
X120650000Y-35560000D03*
G04 #@! TD*
D12*
G04 #@! TO.P,D49,2*
G04 #@! TO.N,Net-(D1-Pad2)*
X116840000Y-35560000D03*
D13*
G04 #@! TO.P,D49,1*
G04 #@! TO.N,Net-(D49-Pad1)*
X114300000Y-35560000D03*
G04 #@! TD*
D12*
G04 #@! TO.P,D52,2*
G04 #@! TO.N,Net-(D12-Pad2)*
X116840000Y-54610000D03*
D13*
G04 #@! TO.P,D52,1*
G04 #@! TO.N,Net-(D49-Pad1)*
X114300000Y-54610000D03*
G04 #@! TD*
G04 #@! TO.P,D54,1*
G04 #@! TO.N,Net-(D49-Pad1)*
X114300000Y-67310000D03*
D12*
G04 #@! TO.P,D54,2*
G04 #@! TO.N,Net-(D14-Pad2)*
X116840000Y-67310000D03*
G04 #@! TD*
G04 #@! TO.P,D55,2*
G04 #@! TO.N,Net-(D15-Pad2)*
X116840000Y-73660000D03*
D13*
G04 #@! TO.P,D55,1*
G04 #@! TO.N,Net-(D49-Pad1)*
X114300000Y-73660000D03*
G04 #@! TD*
G04 #@! TO.P,D56,1*
G04 #@! TO.N,Net-(D49-Pad1)*
X114300000Y-80010000D03*
D12*
G04 #@! TO.P,D56,2*
G04 #@! TO.N,Net-(D16-Pad2)*
X116840000Y-80010000D03*
G04 #@! TD*
G04 #@! TO.P,D59,2*
G04 #@! TO.N,Net-(D11-Pad2)*
X123190000Y-48260000D03*
D13*
G04 #@! TO.P,D59,1*
G04 #@! TO.N,Net-(D57-Pad1)*
X120650000Y-48260000D03*
G04 #@! TD*
G04 #@! TO.P,D60,1*
G04 #@! TO.N,Net-(D57-Pad1)*
X120650000Y-54610000D03*
D12*
G04 #@! TO.P,D60,2*
G04 #@! TO.N,Net-(D12-Pad2)*
X123190000Y-54610000D03*
G04 #@! TD*
G04 #@! TO.P,D61,2*
G04 #@! TO.N,Net-(D13-Pad2)*
X123190000Y-60960000D03*
D13*
G04 #@! TO.P,D61,1*
G04 #@! TO.N,Net-(D57-Pad1)*
X120650000Y-60960000D03*
G04 #@! TD*
G04 #@! TO.P,D62,1*
G04 #@! TO.N,Net-(D57-Pad1)*
X120650000Y-67310000D03*
D12*
G04 #@! TO.P,D62,2*
G04 #@! TO.N,Net-(D14-Pad2)*
X123190000Y-67310000D03*
G04 #@! TD*
G04 #@! TO.P,D63,2*
G04 #@! TO.N,Net-(D15-Pad2)*
X123190000Y-73660000D03*
D13*
G04 #@! TO.P,D63,1*
G04 #@! TO.N,Net-(D57-Pad1)*
X120650000Y-73660000D03*
G04 #@! TD*
G04 #@! TO.P,D64,1*
G04 #@! TO.N,Net-(D57-Pad1)*
X120650000Y-80010000D03*
D12*
G04 #@! TO.P,D64,2*
G04 #@! TO.N,Net-(D16-Pad2)*
X123190000Y-80010000D03*
G04 #@! TD*
G04 #@! TO.P,D10,2*
G04 #@! TO.N,Net-(D10-Pad2)*
X85090000Y-41910000D03*
D13*
G04 #@! TO.P,D10,1*
G04 #@! TO.N,Net-(D10-Pad1)*
X82550000Y-41910000D03*
G04 #@! TD*
G04 #@! TO.P,D17,1*
G04 #@! TO.N,Net-(D17-Pad1)*
X88900000Y-35560000D03*
D12*
G04 #@! TO.P,D17,2*
G04 #@! TO.N,Net-(D1-Pad2)*
X91440000Y-35560000D03*
G04 #@! TD*
G04 #@! TO.P,D15,2*
G04 #@! TO.N,Net-(D15-Pad2)*
X85090000Y-73660000D03*
D13*
G04 #@! TO.P,D15,1*
G04 #@! TO.N,Net-(D10-Pad1)*
X82550000Y-73660000D03*
G04 #@! TD*
G04 #@! TO.P,D53,1*
G04 #@! TO.N,Net-(D49-Pad1)*
X114300000Y-60960000D03*
D12*
G04 #@! TO.P,D53,2*
G04 #@! TO.N,Net-(D13-Pad2)*
X116840000Y-60960000D03*
G04 #@! TD*
G04 #@! TO.P,D51,2*
G04 #@! TO.N,Net-(D11-Pad2)*
X116840000Y-48260000D03*
D13*
G04 #@! TO.P,D51,1*
G04 #@! TO.N,Net-(D49-Pad1)*
X114300000Y-48260000D03*
G04 #@! TD*
G04 #@! TO.P,D38,1*
G04 #@! TO.N,Net-(D33-Pad1)*
X101600000Y-67310000D03*
D12*
G04 #@! TO.P,D38,2*
G04 #@! TO.N,Net-(D14-Pad2)*
X104140000Y-67310000D03*
G04 #@! TD*
G04 #@! TO.P,D39,2*
G04 #@! TO.N,Net-(D15-Pad2)*
X104140000Y-73660000D03*
D13*
G04 #@! TO.P,D39,1*
G04 #@! TO.N,Net-(D33-Pad1)*
X101600000Y-73660000D03*
G04 #@! TD*
G04 #@! TO.P,D40,1*
G04 #@! TO.N,Net-(D33-Pad1)*
X101600000Y-80010000D03*
D12*
G04 #@! TO.P,D40,2*
G04 #@! TO.N,Net-(D16-Pad2)*
X104140000Y-80010000D03*
G04 #@! TD*
G04 #@! TO.P,D43,2*
G04 #@! TO.N,Net-(D11-Pad2)*
X110490000Y-48260000D03*
D13*
G04 #@! TO.P,D43,1*
G04 #@! TO.N,Net-(D41-Pad1)*
X107950000Y-48260000D03*
G04 #@! TD*
G04 #@! TO.P,D44,1*
G04 #@! TO.N,Net-(D41-Pad1)*
X107950000Y-54610000D03*
D12*
G04 #@! TO.P,D44,2*
G04 #@! TO.N,Net-(D12-Pad2)*
X110490000Y-54610000D03*
G04 #@! TD*
G04 #@! TO.P,D45,2*
G04 #@! TO.N,Net-(D13-Pad2)*
X110490000Y-60960000D03*
D13*
G04 #@! TO.P,D45,1*
G04 #@! TO.N,Net-(D41-Pad1)*
X107950000Y-60960000D03*
G04 #@! TD*
G04 #@! TO.P,D46,1*
G04 #@! TO.N,Net-(D41-Pad1)*
X107950000Y-67310000D03*
D12*
G04 #@! TO.P,D46,2*
G04 #@! TO.N,Net-(D14-Pad2)*
X110490000Y-67310000D03*
G04 #@! TD*
G04 #@! TO.P,D47,2*
G04 #@! TO.N,Net-(D15-Pad2)*
X110490000Y-73660000D03*
D13*
G04 #@! TO.P,D47,1*
G04 #@! TO.N,Net-(D41-Pad1)*
X107950000Y-73660000D03*
G04 #@! TD*
G04 #@! TO.P,D48,1*
G04 #@! TO.N,Net-(D41-Pad1)*
X107950000Y-80010000D03*
D12*
G04 #@! TO.P,D48,2*
G04 #@! TO.N,Net-(D16-Pad2)*
X110490000Y-80010000D03*
G04 #@! TD*
D13*
G04 #@! TO.P,D1,1*
G04 #@! TO.N,Net-(D1-Pad1)*
X76200000Y-35560000D03*
D12*
G04 #@! TO.P,D1,2*
G04 #@! TO.N,Net-(D1-Pad2)*
X78740000Y-35560000D03*
G04 #@! TD*
D13*
G04 #@! TO.P,D16,1*
G04 #@! TO.N,Net-(D10-Pad1)*
X82550000Y-80010000D03*
D12*
G04 #@! TO.P,D16,2*
G04 #@! TO.N,Net-(D16-Pad2)*
X85090000Y-80010000D03*
G04 #@! TD*
G04 #@! TO.P,D19,2*
G04 #@! TO.N,Net-(D11-Pad2)*
X91440000Y-48260000D03*
D13*
G04 #@! TO.P,D19,1*
G04 #@! TO.N,Net-(D17-Pad1)*
X88900000Y-48260000D03*
G04 #@! TD*
G04 #@! TO.P,D21,1*
G04 #@! TO.N,Net-(D17-Pad1)*
X88900000Y-60960000D03*
D12*
G04 #@! TO.P,D21,2*
G04 #@! TO.N,Net-(D13-Pad2)*
X91440000Y-60960000D03*
G04 #@! TD*
G04 #@! TO.P,D22,2*
G04 #@! TO.N,Net-(D14-Pad2)*
X91440000Y-67310000D03*
D13*
G04 #@! TO.P,D22,1*
G04 #@! TO.N,Net-(D17-Pad1)*
X88900000Y-67310000D03*
G04 #@! TD*
G04 #@! TO.P,D23,1*
G04 #@! TO.N,Net-(D17-Pad1)*
X88900000Y-73660000D03*
D12*
G04 #@! TO.P,D23,2*
G04 #@! TO.N,Net-(D15-Pad2)*
X91440000Y-73660000D03*
G04 #@! TD*
G04 #@! TO.P,D24,2*
G04 #@! TO.N,Net-(D16-Pad2)*
X91440000Y-80010000D03*
D13*
G04 #@! TO.P,D24,1*
G04 #@! TO.N,Net-(D17-Pad1)*
X88900000Y-80010000D03*
G04 #@! TD*
G04 #@! TO.P,D25,1*
G04 #@! TO.N,Net-(D25-Pad1)*
X95250000Y-35560000D03*
D12*
G04 #@! TO.P,D25,2*
G04 #@! TO.N,Net-(D1-Pad2)*
X97790000Y-35560000D03*
G04 #@! TD*
G04 #@! TO.P,D26,2*
G04 #@! TO.N,Net-(D10-Pad2)*
X97790000Y-41910000D03*
D13*
G04 #@! TO.P,D26,1*
G04 #@! TO.N,Net-(D25-Pad1)*
X95250000Y-41910000D03*
G04 #@! TD*
G04 #@! TO.P,D27,1*
G04 #@! TO.N,Net-(D25-Pad1)*
X95250000Y-48260000D03*
D12*
G04 #@! TO.P,D27,2*
G04 #@! TO.N,Net-(D11-Pad2)*
X97790000Y-48260000D03*
G04 #@! TD*
G04 #@! TO.P,D28,2*
G04 #@! TO.N,Net-(D12-Pad2)*
X97790000Y-54610000D03*
D13*
G04 #@! TO.P,D28,1*
G04 #@! TO.N,Net-(D25-Pad1)*
X95250000Y-54610000D03*
G04 #@! TD*
G04 #@! TO.P,D29,1*
G04 #@! TO.N,Net-(D25-Pad1)*
X95250000Y-60960000D03*
D12*
G04 #@! TO.P,D29,2*
G04 #@! TO.N,Net-(D13-Pad2)*
X97790000Y-60960000D03*
G04 #@! TD*
G04 #@! TO.P,D30,2*
G04 #@! TO.N,Net-(D14-Pad2)*
X97790000Y-67310000D03*
D13*
G04 #@! TO.P,D30,1*
G04 #@! TO.N,Net-(D25-Pad1)*
X95250000Y-67310000D03*
G04 #@! TD*
G04 #@! TO.P,D31,1*
G04 #@! TO.N,Net-(D25-Pad1)*
X95250000Y-73660000D03*
D12*
G04 #@! TO.P,D31,2*
G04 #@! TO.N,Net-(D15-Pad2)*
X97790000Y-73660000D03*
G04 #@! TD*
G04 #@! TO.P,D32,2*
G04 #@! TO.N,Net-(D16-Pad2)*
X97790000Y-80010000D03*
D13*
G04 #@! TO.P,D32,1*
G04 #@! TO.N,Net-(D25-Pad1)*
X95250000Y-80010000D03*
G04 #@! TD*
G04 #@! TO.P,D33,1*
G04 #@! TO.N,Net-(D33-Pad1)*
X101600000Y-35560000D03*
D12*
G04 #@! TO.P,D33,2*
G04 #@! TO.N,Net-(D1-Pad2)*
X104140000Y-35560000D03*
G04 #@! TD*
G04 #@! TO.P,D34,2*
G04 #@! TO.N,Net-(D10-Pad2)*
X104140000Y-41910000D03*
D13*
G04 #@! TO.P,D34,1*
G04 #@! TO.N,Net-(D33-Pad1)*
X101600000Y-41910000D03*
G04 #@! TD*
G04 #@! TO.P,D35,1*
G04 #@! TO.N,Net-(D33-Pad1)*
X101600000Y-48260000D03*
D12*
G04 #@! TO.P,D35,2*
G04 #@! TO.N,Net-(D11-Pad2)*
X104140000Y-48260000D03*
G04 #@! TD*
G04 #@! TO.P,D37,2*
G04 #@! TO.N,Net-(D13-Pad2)*
X104140000Y-60960000D03*
D13*
G04 #@! TO.P,D37,1*
G04 #@! TO.N,Net-(D33-Pad1)*
X101600000Y-60960000D03*
G04 #@! TD*
G04 #@! TO.P,D13,1*
G04 #@! TO.N,Net-(D10-Pad1)*
X82550000Y-60960000D03*
D12*
G04 #@! TO.P,D13,2*
G04 #@! TO.N,Net-(D13-Pad2)*
X85090000Y-60960000D03*
G04 #@! TD*
G04 #@! TO.P,D12,2*
G04 #@! TO.N,Net-(D12-Pad2)*
X85090000Y-54610000D03*
D13*
G04 #@! TO.P,D12,1*
G04 #@! TO.N,Net-(D10-Pad1)*
X82550000Y-54610000D03*
G04 #@! TD*
G04 #@! TO.P,D11,1*
G04 #@! TO.N,Net-(D10-Pad1)*
X82550000Y-48260000D03*
D12*
G04 #@! TO.P,D11,2*
G04 #@! TO.N,Net-(D11-Pad2)*
X85090000Y-48260000D03*
G04 #@! TD*
G04 #@! TO.P,D18,2*
G04 #@! TO.N,Net-(D10-Pad2)*
X91440000Y-41910000D03*
D13*
G04 #@! TO.P,D18,1*
G04 #@! TO.N,Net-(D17-Pad1)*
X88900000Y-41910000D03*
G04 #@! TD*
G04 #@! TO.P,D9,1*
G04 #@! TO.N,Net-(D10-Pad1)*
X82550000Y-35560000D03*
D12*
G04 #@! TO.P,D9,2*
G04 #@! TO.N,Net-(D1-Pad2)*
X85090000Y-35560000D03*
G04 #@! TD*
G04 #@! TO.P,D8,2*
G04 #@! TO.N,Net-(D16-Pad2)*
X78740000Y-80010000D03*
D13*
G04 #@! TO.P,D8,1*
G04 #@! TO.N,Net-(D1-Pad1)*
X76200000Y-80010000D03*
G04 #@! TD*
G04 #@! TO.P,D7,1*
G04 #@! TO.N,Net-(D1-Pad1)*
X76200000Y-73660000D03*
D12*
G04 #@! TO.P,D7,2*
G04 #@! TO.N,Net-(D15-Pad2)*
X78740000Y-73660000D03*
G04 #@! TD*
G04 #@! TO.P,D6,2*
G04 #@! TO.N,Net-(D14-Pad2)*
X78740000Y-67310000D03*
D13*
G04 #@! TO.P,D6,1*
G04 #@! TO.N,Net-(D1-Pad1)*
X76200000Y-67310000D03*
G04 #@! TD*
G04 #@! TO.P,D5,1*
G04 #@! TO.N,Net-(D1-Pad1)*
X76200000Y-60960000D03*
D12*
G04 #@! TO.P,D5,2*
G04 #@! TO.N,Net-(D13-Pad2)*
X78740000Y-60960000D03*
G04 #@! TD*
G04 #@! TO.P,D4,2*
G04 #@! TO.N,Net-(D12-Pad2)*
X78740000Y-54610000D03*
D13*
G04 #@! TO.P,D4,1*
G04 #@! TO.N,Net-(D1-Pad1)*
X76200000Y-54610000D03*
G04 #@! TD*
G04 #@! TO.P,D3,1*
G04 #@! TO.N,Net-(D1-Pad1)*
X76200000Y-48260000D03*
D12*
G04 #@! TO.P,D3,2*
G04 #@! TO.N,Net-(D11-Pad2)*
X78740000Y-48260000D03*
G04 #@! TD*
G04 #@! TO.P,D2,2*
G04 #@! TO.N,Net-(D10-Pad2)*
X78740000Y-41910000D03*
D13*
G04 #@! TO.P,D2,1*
G04 #@! TO.N,Net-(D1-Pad1)*
X76200000Y-41910000D03*
G04 #@! TD*
G04 #@! TO.P,D20,1*
G04 #@! TO.N,Net-(D17-Pad1)*
X88900000Y-54610000D03*
D12*
G04 #@! TO.P,D20,2*
G04 #@! TO.N,Net-(D12-Pad2)*
X91440000Y-54610000D03*
G04 #@! TD*
G04 #@! TO.P,D14,2*
G04 #@! TO.N,Net-(D14-Pad2)*
X85090000Y-67310000D03*
D13*
G04 #@! TO.P,D14,1*
G04 #@! TO.N,Net-(D10-Pad1)*
X82550000Y-67310000D03*
G04 #@! TD*
G04 #@! TO.P,D36,1*
G04 #@! TO.N,Net-(D33-Pad1)*
X101600000Y-54610000D03*
D12*
G04 #@! TO.P,D36,2*
G04 #@! TO.N,Net-(D12-Pad2)*
X104140000Y-54610000D03*
G04 #@! TD*
D14*
G04 #@! TO.P,R8,2*
G04 #@! TO.N,Net-(D16-Pad2)*
X72390000Y-80010000D03*
D15*
G04 #@! TO.P,R8,1*
G04 #@! TO.N,Net-(J1-Pad8)*
X62230000Y-80010000D03*
G04 #@! TD*
G04 #@! TO.P,R1,1*
G04 #@! TO.N,Net-(J1-Pad1)*
X62230000Y-35560000D03*
D14*
G04 #@! TO.P,R1,2*
G04 #@! TO.N,Net-(D1-Pad2)*
X72390000Y-35560000D03*
G04 #@! TD*
G04 #@! TO.P,R2,2*
G04 #@! TO.N,Net-(D10-Pad2)*
X72390000Y-41910000D03*
D15*
G04 #@! TO.P,R2,1*
G04 #@! TO.N,Net-(J1-Pad2)*
X62230000Y-41910000D03*
G04 #@! TD*
G04 #@! TO.P,R3,1*
G04 #@! TO.N,Net-(J1-Pad3)*
X62230000Y-48260000D03*
D14*
G04 #@! TO.P,R3,2*
G04 #@! TO.N,Net-(D11-Pad2)*
X72390000Y-48260000D03*
G04 #@! TD*
G04 #@! TO.P,R4,2*
G04 #@! TO.N,Net-(D12-Pad2)*
X72390000Y-54610000D03*
D15*
G04 #@! TO.P,R4,1*
G04 #@! TO.N,Net-(J1-Pad4)*
X62230000Y-54610000D03*
G04 #@! TD*
G04 #@! TO.P,R5,1*
G04 #@! TO.N,Net-(J1-Pad5)*
X62230000Y-60960000D03*
D14*
G04 #@! TO.P,R5,2*
G04 #@! TO.N,Net-(D13-Pad2)*
X72390000Y-60960000D03*
G04 #@! TD*
G04 #@! TO.P,R6,2*
G04 #@! TO.N,Net-(D14-Pad2)*
X72390000Y-67310000D03*
D15*
G04 #@! TO.P,R6,1*
G04 #@! TO.N,Net-(J1-Pad6)*
X62230000Y-67310000D03*
G04 #@! TD*
G04 #@! TO.P,R7,1*
G04 #@! TO.N,Net-(J1-Pad7)*
X62230000Y-73660000D03*
D14*
G04 #@! TO.P,R7,2*
G04 #@! TO.N,Net-(D15-Pad2)*
X72390000Y-73660000D03*
G04 #@! TD*
D16*
G04 #@! TO.P,REF\002A\002A,1*
G04 #@! TO.N,N/C*
X58420000Y-29210000D03*
G04 #@! TD*
G04 #@! TO.P,REF\002A\002A,1*
G04 #@! TO.N,N/C*
X58420000Y-85090000D03*
G04 #@! TD*
G04 #@! TO.P,REF\002A\002A,1*
G04 #@! TO.N,N/C*
X127000000Y-85090000D03*
G04 #@! TD*
G04 #@! TO.P,REF\002A\002A,1*
G04 #@! TO.N,N/C*
X127000000Y-29210000D03*
G04 #@! TD*
D17*
G04 #@! TO.N,*
X82550000Y-36830000D02*
X82550000Y-36785001D01*
G04 #@! TO.N,Net-(J1-Pad7)*
X62230000Y-71120000D02*
X62230000Y-73660000D01*
X57150000Y-66040000D02*
X62230000Y-71120000D01*
G04 #@! TO.N,Net-(J1-Pad6)*
X58420000Y-63500000D02*
X62230000Y-67310000D01*
X57150000Y-63500000D02*
X58420000Y-63500000D01*
G04 #@! TO.N,Net-(J1-Pad5)*
X57150000Y-60960000D02*
X62230000Y-60960000D01*
G04 #@! TO.N,Net-(J1-Pad4)*
X58420000Y-58420000D02*
X62230000Y-54610000D01*
X57150000Y-58420000D02*
X58420000Y-58420000D01*
G04 #@! TO.N,Net-(J1-Pad3)*
X62230000Y-50800000D02*
X62230000Y-48260000D01*
X57150000Y-55880000D02*
X62230000Y-50800000D01*
G04 #@! TO.N,Net-(J1-Pad2)*
X61430001Y-42709999D02*
X62230000Y-41910000D01*
X58420000Y-45720000D02*
X61430001Y-42709999D01*
X58420000Y-52070000D02*
X58420000Y-45720000D01*
X57150000Y-53340000D02*
X58420000Y-52070000D01*
G04 #@! TO.N,Net-(J1-Pad1)*
X57150000Y-40640000D02*
X62230000Y-35560000D01*
X57150000Y-50800000D02*
X57150000Y-40640000D01*
G04 #@! TO.N,Net-(J1-Pad8)*
X57150000Y-74930000D02*
X62230000Y-80010000D01*
X57150000Y-68580000D02*
X57150000Y-74930000D01*
G04 #@! TO.N,Net-(D33-Pad1)*
X99060000Y-34170000D02*
X100450000Y-35560000D01*
X100450000Y-35560000D02*
X101600000Y-35560000D01*
X99060000Y-27940000D02*
X99060000Y-34170000D01*
X101600000Y-35560000D02*
X101600000Y-80010000D01*
G04 #@! TO.N,Net-(D10-Pad1)*
X82550000Y-78860000D02*
X82550000Y-41910000D01*
X82550000Y-80010000D02*
X82550000Y-78860000D01*
X83000010Y-36010010D02*
X82550000Y-35560000D01*
X82550000Y-40760000D02*
X83000010Y-40309990D01*
X83000010Y-40309990D02*
X83000010Y-36010010D01*
X82550000Y-41910000D02*
X82550000Y-40760000D01*
X82550000Y-34410000D02*
X82550000Y-35560000D01*
X82625001Y-34334999D02*
X82550000Y-34410000D01*
X85045001Y-34334999D02*
X82625001Y-34334999D01*
X91440000Y-27940000D02*
X85045001Y-34334999D01*
G04 #@! TO.N,Net-(D17-Pad1)*
X93980000Y-30480000D02*
X88900000Y-35560000D01*
X93980000Y-27940000D02*
X93980000Y-30480000D01*
X88900000Y-35560000D02*
X88900000Y-80010000D01*
G04 #@! TO.N,Net-(D1-Pad1)*
X76200000Y-34410000D02*
X76200000Y-35560000D01*
X82670000Y-27940000D02*
X76200000Y-34410000D01*
X88900000Y-27940000D02*
X82670000Y-27940000D01*
X76200000Y-35560000D02*
X76200000Y-80010000D01*
G04 #@! TO.N,Net-(D25-Pad1)*
X96400000Y-35560000D02*
X95250000Y-35560000D01*
X96520000Y-35440000D02*
X96400000Y-35560000D01*
X96520000Y-27940000D02*
X96520000Y-35440000D01*
X95250000Y-35560000D02*
X95250000Y-80010000D01*
G04 #@! TO.N,Net-(D49-Pad1)*
X113150000Y-35560000D02*
X114300000Y-35560000D01*
X111880000Y-34290000D02*
X113150000Y-35560000D01*
X110490000Y-34290000D02*
X111880000Y-34290000D01*
X104140000Y-27940000D02*
X110490000Y-34290000D01*
X114300000Y-35560000D02*
X114300000Y-41910000D01*
X114300000Y-41910000D02*
X114300000Y-48260000D01*
X114300000Y-48260000D02*
X114300000Y-54610000D01*
X114300000Y-54610000D02*
X114300000Y-60960000D01*
X114300000Y-60960000D02*
X114300000Y-67310000D01*
X114300000Y-67310000D02*
X114300000Y-73660000D01*
X114300000Y-73660000D02*
X114300000Y-80010000D01*
G04 #@! TO.N,Net-(D41-Pad1)*
X101600000Y-30360000D02*
X106800000Y-35560000D01*
X101600000Y-27940000D02*
X101600000Y-30360000D01*
X107950000Y-41910000D02*
X107950000Y-80010000D01*
X107950000Y-35560000D02*
X107950000Y-41910000D01*
X106800000Y-35560000D02*
X107950000Y-35560000D01*
G04 #@! TO.N,Net-(D57-Pad1)*
X120650000Y-80010000D02*
X120650000Y-35560000D01*
X107882081Y-27940000D02*
X106680000Y-27940000D01*
X111880000Y-27940000D02*
X107882081Y-27940000D01*
X119500000Y-35560000D02*
X111880000Y-27940000D01*
X120650000Y-35560000D02*
X119500000Y-35560000D01*
G04 #@! TD*
M02*
